/* XPM */
static char *_9956_0eac86c7fff9dfb6d8c16ff325f64418205bad1c949ef893269144551f39a46a[] = {
/* columns rows colors chars-per-pixel */
"128 128 68 1 ",
"  c #5F0000",
". c #660000",
"X c #6B0000",
"o c #730000",
"O c #7C0000",
"+ c #840000",
"@ c #8C0000",
"# c #880F00",
"$ c #940000",
"% c #9B0000",
"& c #9B0E00",
"* c #9C1200",
"= c #971800",
"- c #A40000",
"; c #AB0000",
": c #A20C00",
"> c #AD0C00",
", c #B40000",
"< c #B90000",
"1 c #B40C00",
"2 c #B80C00",
"3 c #A11300",
"4 c #AB1300",
"5 c #A01C00",
"6 c #B61300",
"7 c #BA1300",
"8 c #B41B00",
"9 c #BC1C00",
"0 c #AB2500",
"q c #AD2900",
"w c #B72400",
"e c #BE2300",
"r c #B22B00",
"t c #BC2800",
"y c #A93400",
"u c #B53300",
"i c #BA3300",
"p c #B53800",
"a c #C12500",
"s c #C32B00",
"d c #C63200",
"f c #C93400",
"g c #C43D00",
"h c #CB3D00",
"j c #D13E00",
"k c #C54100",
"l c #CD4300",
"z c #D34500",
"x c #D64A00",
"c c #D94D00",
"v c #CC5300",
"b c #DB5200",
"n c #DD5B00",
"m c #E05F00",
"M c #DF6000",
"N c #E36400",
"B c #E76B00",
"V c #E96D00",
"C c #EA7000",
"Z c #F07300",
"A c #3D3DE6",
"S c #453DE6",
"D c #4B3DE6",
"F c #423FEA",
"G c #4B3FE9",
"H c #503DE6",
"J c #4040EE",
"K c None",
/* pixels */
"JJJJJJJJJJJJJJJJJJJJJJJJJJJJJJJJJJJJJJJJJJJJJJJJJJJJJJJJJJJJJJJJJJJJJJJJJJJJJJJJJJJJJJJJJJJJJJJJJJJJJJJJJJJJJJJJJJJJJJJJJJJJJJJJ",
"JJJJJJJJJJJJJJJJJJJJJJJJJJJJJJJJJJJJJJJJJJJJJJJJJJJJJJJJJJJJJJJJJJJJJJJJJJJJJJJJJJJJJJJJJJJJJJJJJJJJJJJJJJJJJJJJJJJJJJJJJJJJJJJJ",
"JJJJJJJJJJJJJJJJJJJJJJJJJJJJJJJJJJJJJJJJJJJJJJJJJJJJJJJJJJJJJJJJJJJJJJJJJJJJJJJJJJJJJJJJJJJJJJJJJJJJJJJJJJJJJJJJJJJJJJJJJJJJJJJJ",
"JJJJJJJJJJJJJJJJJJJJJJJJJJJJJJJJJJJJJJJJJJJJJJJJJJJJJJJJJJJJJJJJJJJJJJJJJJJJJJJJJJJJJJJJJJJJJJJJJJJJJJJJJJJJJJJJJJJJJJJJJJJJJJJJ",
"JJJJJJJJJJJJJJJJJJJJJJJJJJJJJJJJJJJJJJJJJJJJJJJJJJJJJJJJJJJJJJJJJJJJJJJJJJJJJJJJJJJJJJJJJJJJJJJJJJJJJJJJJJJJJJJJJJJJJJJJJJJJJJJJ",
"JJJJJJJJJJJJJJJJJJJJJJJJJJJJJJJJJJJJJJJJJJJJJJJJJJJJJJJJJJJJJJJJJJJJJJJJJJJJJJJJJJJJJJJJJJJJJJJJJJJJJJJJJJJJJJJJJJJJJJJJJJJJJJJJ",
"JJJJJJJJJJJJJJJJJJJJJJJJJJJJJJJJJJJJJJJJJJJJJJJJJJJJJJJJJJJJJJJJJJJJJJJJJJJJJJJJJJJJJJJJJJJJJJJJJJJJJJJJJJJJJJJJJJJJJJJJJJJJJJJJ",
"JJJJJJJJJJJJJJJJJJJJJJJJJJJJJJJJJJJJJJJJJJJJJJJJJJJJJJJJJJJJJJJJJJJJJJJJJJJJJJJJJJJJJJJJJJJJJJJJJJJJJJJJJJJJJJJJJJJJJJJJJJJJJJJJ",
"JJJJJJJJJJJJJJJJJJJJJJJJJJJJJJJJJJJJJJJJJJJJJJJJJJJJJJJJJJJJJJJJJJJJJJJJJJJJJJJJJJJJJJJJJJJJJJJJJJJJJJJJJJJJJJJJJJJJJJJJJJJJJJJJ",
"JJJJJJJJJJJJJJJJJJJJJJJJJJJJJJJJJJJJJJJJJJJJJJJJJJJJJJJJJJJJJJJJJJJJJJJJJJJJJJJJJJJJJJJJJJJJJJJJJJJJJJJJJJJJJJJJJJJJJJJJJJJJJJJJ",
"JJJJJJJJJJJJJJJJJJJJJJJJJJJJJJJJJJJJJJJJJJJJJJJJJJJJJJJJJJJJJJJJJJJJJJJJJJJJJJJJJJJJJJJJJJJJJJJJJJJJJJJJJJJJJJJJJJJJJJJJJJJJJJJJ",
"JJJJJJJJJJJJJJJJJJJJJJJJJJJJJJJJJJJJJJJJJJJJJJJJJJJJJJJJJJJJJJJJJJJJJJJJJJJJJJJJJJJJJJJJJJJJJJJJJJJJJJJJJJJJJJJJJJJJJJJJJJJJJJJJ",
"JJJJJJJJJJJJJJJJJJJJJJJJJJJJJJJJJJJJJJJJJJJJJJJJJJJJJJJJJJJJJJJJJJJJJJJJJJJJJJJJJJJJJJJJJJJJJJJJJJJJJJJJJJJJJJJJJJJJJJJJJJJJJJJJ",
"JJJJJJJJJJJJJJJJJJJJJJJJJJJJJJJJJJJJJJJJJJJJJJJJJJJJJJJJJJJJJJJJJJJJJJJJJJJJJJJJJJJJJJJJJJJJJJJJJJJJJJJJJJJJJJJJJJJJJJJJJJJJJJJJ",
"JJJJJJJJJJJJJJJJJJJJJJJJJJJJJJJJJJJJJJJJJJJJJJJJJJJJJJJJJJJJJJJJJJJJJJJJJJJJJJJJJJJJJJJJJJJJJJJJJJJJJJJJJJJJJJJJJJJJJJJJJJJJJJJJ",
"JJJJJJJJJJJJJJJJJJJJJJJJJJJJJJJJJJJJJJJJJJJJJJJJJJJJJJJJJJJJJJJJJJJJJJJJJJJJFJJJJJJJJJJJJJJJJJJJJJJJJJJJJJJJJJJJJJJJJJJJJJJJJJJJ",
"JJJJJJJJJJJJJJJJJJJJJJJJJJJJJJJJJJJJJJJJJJJJJJJJJJJJJJJJJJJJJJJJJX.O$,<<$@..XJJJJJJJJJJJJJJJJJJJJJJJJJJJJJJJJJJJJJJJJJJJJJJJJJJJ",
"JJJJJJJJJJJJJJJJJJJJJJJJJJJJJJJJJJJJJJJJJJJJJJJJJJJJJJJJJJJJJJX+$;<,,$XXXO$@XXXXJJJJJJJJJJJJJJJJJJJJJJJJJJJJJJJJJJJJJJJJJJJJJJJJ",
"JJJJJJJJJJJJJJJJJJJJJJJJJJJJJJJJJJJJJJJJJJJJJJJJJJJJJJJJJJJKX%;;$OOOOoXXKKKKKXXXXXXJJJJJJJJJJJJJJJJJJJJJJJJJJJJJJJJJJJJJJJJJJJJJ",
"JJJJJJJJJJJJJJJJJJJJJJJJJJJJJJJJJJJJJJJJJJJJJJJJJJJJJJJJJJK.$.$$XXXXXXXJJJJJJJXXXXXXXJJJJJJJJJJJJJJJJJJJJJJJJJJJJJJJJJJJJJJJJJJJ",
"JJJJJJJJJJJJJJJJJJJJJJJJJJJJJJJJJJJJJJJJJJJJJJJJJJJJJJJJJJJ.$XKKKJKKKKK+XKJJJJJJJoXXXXKJJJJJJJJJJJJJJJJJJJJJJJJJJJJJJJJJJJJJJJJJ",
"JJJJJJJJJJJJJJJJJJJJJJJJJJJJJJJJJJJJJXXXXXXXJJJJJJJJJJJJK@$.$XX.$;$-,,,+XXXXXXJJJJXXXXXJJJJJJJJJJJJJJJJJJJJJJJJJJJJJJJJJJJJJJJJJ",
"JJJJJJJJJJJJJJJJJJJJJJJJJJJJJJJJJKKKXXXXXXXXJJJJJJJJJJJJXOOOKKO++$;,;@$.$@XXXXXJJJJJJXXKKJJJJJJJJJJJJJJJJJJJJJJJJJJJJJJJJJJJJJJJ",
"JJJJJJJJJJJJJJJJJJJJJJJJJJJJJJJJJoXXXXXJJJJJJJJJJJJJJJJJXXX$$$$$XXXKXJJJJJJKXXXXJJJJJKXXKJJJJJJJJJJJJJJJJJJJJJJJJJJJJJJJJJJJJJJJ",
"JJJJJJJJJJJJJJJJJJJJJJJJJJJJJJJXXXXXXJJJJJJJJJJJJJJJJJJX.+K.XKJJJJJJJJJJJJJJJJJ.KJJJJJJJXXJJJJJJJJJJJJJJJJJJJJJJJJJJJJJJJJJJJJJJ",
"JJJJJJJJJJJJJJJJJJJJJJJJJJJJJXXXXXKXJJJJJJJJKXXXXJJJJJX.$$$.JJJJJJJJJXX$$+XXJJJJJJJJJJJJJJJJJJJJJJJJJJJJJJJJJJJJJJJJJJJJJJJJJJJJ",
"JJJJJJJJJJJJJJJJJJJJJJJJJJJJJX$.XXXXJJJJJJJJXXXXKJJJJJX@$$$KJJJJJJJJJXX.$%-%$.KJJJJJJJJJJJJJJJJJJJJJJJJJJJJJJJJJJJJJJJJJJJJJJJJJ",
"JJJJJJJJJJJJJJJJJJJJJJJJJJJK.$KJJJFJJJJJJJJJJJJJJJJJJJX@$KJJJJJJJJJJJJJJJ$$-,;oXJJJJJJJJJJJJJJJJJJJJJJJJJJJJJJJJJJJJJJJJJJJJJJJJ",
"JJJJJJJJJJJJJJJJJJJJJJJJJJKK@+KJJJJJJJJJJJJJJJJJJJJJJJX+.KJJJJJJJJJJJJJJJK+$;-+OJJJJJJJJJJJJJJJJJJJJJJJJJJJJJJJJJJJJJJJJJJJJJJJJ",
"JJJJJJJJJJJJJJJJJJJJJJJJJSXo%XKJJJJJJJJJJJJJJJJJJJJJJJXXJJJJAXXXXXXKJJJJJJJO$$%XKJJJJJJJJJJJJJJJJJJJJJJJJJJJJJJJJJJJJJJJJJJJJJJJ",
"JJJJJJJJJJJJJJJJJJJJJJJJJXXO@JJJJJJJJJJJJJJJJJJJJJJJJJXKJJJKKOOOO+OoKJJJJJJJJK.XKJJJJJJJJJJJJJJJJJJJJJJJJJJJJJJJJJJJJJJJJJJJJJJJ",
"JJJJJJJJJJJJJJJJJJJJJJJJJX+@XJJJJJJJJJJJJJJJJJJJJJJJJJJJJJJ.X$$@,-@+XJJJJJJJJJJXKJJJJJJJJJJJJJJJJJJJJJJJJJJJJJJJJJJJJJJJJJJJJJJJ",
"JJJJJJJJJJJJJJJJJJJJJJJJJ.+<JJJJJJJJXXXJXXJJK$,,,JJJJJJJJKK$%9<ze7,%$$KJJJJJJJJJJJJJKKJJJJJJJJJJJJJJJJJJJJJJJJJJJJJJJJJJJJJJJJJJ",
"JJJJJJJJJJJJJJJJJJJJJJJJJ$$%JJJJJJJJX.XJJKJJJKKKJJJJJJJJJXo$2mzxxnBs,.$KJJJJJJJJJJJKXXKJJJJJJJJJJJJJJJJJJJJJJJJJJJJJJJJJJJJJJJJJ",
"JJJJJJJJJJJJJJJJJJJJJJJJJ$$$JJJJJXXX$%.JJJJJK$JJ$o..$%XKJXX$7xxxxz,,,-X.JJJJJJJJJJJKXXXJJJJJJJJJJJJJJJJJJJJJJJJJJJJJJJJJJJJJJJJJ",
"JJJJJJJJJJJJJJJJJJJJJJJJJooJJJJJJX+@$$XJJJJJJH..O;-@@oXKJXXo%9xMxd,;%%oXXXJJJJJJJJJJJKKJJJJJJJJJJJJJJJJJJJJJJJJJJJJJJJJJJJJJJJJJ",
"JJJJJJJJJJJJJJJJJJJJJJJJJJXJJJJJXX+$$@XJJJKX.@%-%,;@+XXKJXXX@-lhzt;-@@XXXKKXXXXKJJJJJJJKXoOXJJJJJJJJJJJJJJJJJJJJJJJJJJJJJJJJJJJJ",
"JJJJJJJJJJJJJJJJJJJJJJJJJJJJJJJJXX%$oXXJKXO@;;,,,%$XXJXXXJJFXooo%@oXXXXJJK.$$@@.XXKJJJJXXX+@$.JJJJJJJJJJJJJJJJJJJJJJJJJJJJJJJJJJ",
"JJJJJJJJJJJJJJJJJJJJJJJJJJJJJJJJXX$@XXKKXo#*cx;,+.XKKKXXXJJJJXXXXXXXXJKKKKX$%%%oooXKJJJJXX+$@oXJJJJJJJJJJJJJJJJJJJJJJJJJJJJJJJJJ",
"JJJJJJJJJJJJJJJJJJJJJJJJJJJJJJJJXX+XJJJXO$rxz<$XXJKXXXXKJJJJJJJJJJJJJJXXXX+-,,,@$$$.KJJJJJXX.$.JJJJJJJJJJJJJJJJJJJJJJJJJJJJJJJJJ",
"JJJJJJJJJJJJJJJJJJJJJJKJJJJJJJJJXXKXJKX$>zxz;$.XXXXXJJJJJXXJJJKKKJJJJJJXXO$<,be9,,$@XJJJJJJJ$%%XXJJJJJJJJJJJJJJJJJJJJJJJJJJJJJJJ",
"JJJJJJJJJJJJJJJJJJJJJDXXJJJJJJJJXXJKKX@;f,,,$XXKKKKKJJJJJKKJJJXXXKJJJJJKXO$<,cxc7,%@.JJJJJJS+<<.KJJJJJJJJJJJJJJJJJJJJJJJJJJJJJJJ",
"JJJJJJJJJJJJJJJJJJJKXXKJJJJKXJJJJXKJX$@ch,;$$oXJXKJJJJXXXXXJSXJJJXXXJJJJJX@%,cxccl%$%XKJJJJJ$$,,+XJJJJJJJJJJJJJJJJJJJJJJJJJJJJJJ",
"JJJJJJJJJJJJJJJJJJJKXKSJJJJJKJJJJKKJ.$wxz,-oKKJJK.X.%%XXXKKJJKJJJKKKJJJJXXX@%seccz8$$.KJJJJJOO-,-XKJJJ$JJJJJJJJJJJJJJJJJJJJJJJJJ",
"JJJJJJJJJJJJJJJJJJJXXJJJXXKJJJJXXJXX+$fzx1+XJJJXO$X@%$.XXJJJXXXXXXXXJJJJXXXX@,,9xx9$oXKJJJJJXXO,-$.JJJ$JJJJJJJJJJJJJJJJJJJJJJJJJ",
"JJJJJJJJJJJJJJJJJKXXKJJXXXXJJJXXXKXX%g9--O.JKXX+@-;;%XXJJKXXX+@@+OXXXJJJJKXX.+-%%%;-@.XJJJJJKX.$;$.JJJJ$KJJJJJJJJJJJJJJJJJJJJJJJ",
"JJJJJJJJJJJJJJJJJKXXJJJXKJJJJKXXKJXX;x,$+XJJKXX$$12<@XJJJXXoo%$%$+oXXJJJJJXXXX@$$$;;$XXJJJJJJJ.$-$.JJJJ$$JJJJJJJJJJJJJJJJJJJJJJJ",
"JJJJJJJJJJJJJJJKXXXJJJJXKJJXO$$JJJXocc,%+XJJK.$,<ss-$%XKXXo$$,,,,<<@XXJJJJJJJXX.$$Xo%.XJJJJJJJX$$XXJJJJK$$JJJJJJJJJJJJJJJJJJJJJJ",
"JJJJJJJJJJJJJJJXXoJJJJJJJJXo$,OJJJXXb,$XXJJJK$$;;$$$@.JJXXo$7xxxxd,-$XJJJJJJJXJXXXXX.$XJJJJJJJX$+XXJJJJ$$JJJJJJJJJJJJJJJJJJJJJJJ",
"JJJJJJJJJJJJJJJ.$%JJJKXKJJ.X$$OJJX+$<$$KKJJJo$.@@.o%.XJJX@%,2cxxxd<-$$JJJJJJJKJFKKKXX.XJJJJJJJX.XXKJJJJKJJJJJJJJJJJJJJJJJJJJJJJJ",
"JJJJJJJJJJJJJJJ$XXJJJJJJJX@$<.KJJX$x,$$JJJJJJJXXXXXXJJJXX+%,7xxzxd,-$KXX$+XJJJJJJJJJJXXJJJJJJJXXKJJJJJJJ$$JJJJJJJJJJJJJJJJJJJJJJ",
"JJJJJJJJJJJJJJ.+oXJJJJJJJX+;<XKJJX@f;++JJJJJJJKKKXXXJJJXX@%,2fffdw;%$JK.-;;$JJJJ.X.XX.XXKJJJJJXKKJJJJJJJ$$JJJJJJJJJJJJJJJJJJJJJJ",
"JJJJJJJJJJJJJJ$.XXJJJJJJXo$<-.KJJX+,;XXJJJJJX$$oXXXJJJJXXX$$$$$$$$$$$JJK$$$;$X.$$$$@.$$XKJJJJJJJJJJJJJJ$$$JJJJJJJJJJJJJJJJJJJJJJ",
"JJJJJJJJJJJJJJ$XFJJJJJJJXX;,$X@JJX+-%XKJJKKKO%i&O+JJJJJJXKX.++++++++KXJJK@$--..%%4iuy-$+oKJJJJJJJJJJJJK$$$JJJJJJJJJJJJJJJJJJJJJJ",
"JJJJJJJJJJJJJJ$.KJJJJJJJXo;,$J$JJJ$$$JJJJX.$%,c7;$JJJJJJJJXXXXXXXXXXXXJJJK$-,.X$,exxc,%$OXJJJJJJJJJJJJ$$$JJJJJJJJJJJJJJJJJJJJJJJ",
"JJJJJJJJJJJJJJ%XKJJJJJJJXX+;.JJJJJX.XJJK.-<,bcxb;oXJJJJKKXXXX$$$$+.+$$XXKK$%;$o$@869xccs+XXJJJJJJKKJJK$$$JJJJJJJJJJJJJJJJJJJJJJJ",
"JJJJJJJJJJJJJJXXKJJJJJJJXX@,.JJJJJXXJJJXO,h,ccc9;oXJJJJXX.X$$@,<$$$+XX.$XXXXX%oX$$,ec6xx0@XJJJJJJXKJK$$KJJJJJJJJJJJJJJJJJJJJJJJJ",
"JJJJJJJJJJJJJJJXKJJJJJJJJX@@.JJJXXJJJJJ.$,tcz<%$@XXJJJJXX@$$$<,,,,,@$%$.XXJKXXXX.o$5ccxcq$XXJJJJJXXXJJJJJJJJJJJJJJJJJJJJJJJJJJJJ",
"JJJJJJJJJJJJJJJXXXJJJJJJJX@$$JJJJXXJJJ.$lxxc,%$oXXJJJJXXX-,,,,,,,,,,,$$.@@XXJXXXXX@,,bV,%$OXJJJJJXXXJJJXXJJJJJJJJJJJJJJJJJJJJJJJ",
"JJJJJJJJJJJJJJJXXXJJJJJJJJ.+$JJJJXKJJJ hNcz,-+@oXJJJJ%.XO-,,sesssasss%$@+OXXJXXXKX@;-cnz4-OXJJJJJXoOJJJXXJJJJJJJJJJJJJJJJJJJJJJJ",
"JJJJJJJJJJJJJJJJXXJJJJJJJJXX$JJJJJJJJX@Bnc;%XXXKJJJJK$.+$;7xcBBzxBBnc,$$$+XXXKXXJX@%,xNNe,OXJJJJJX+$XJJXXJJJJJJJJJJJJJJJJJJJJJJJ",
"JJJJJJJJJJJJJJJJXXKJJJJJJJKo@JJJJJJJXX1mn,%@XJJKKJJKK$.@$;1hcNVnVBBNba--+=@.XKXXJX@%,mBVk,OXJJJJKO+$XJJXXOJJJJJJJJJJJJJJJJJJJJJJ",
"JJJJJJJJJJJJJJJJJKXJJJJJJJJKX$JJJJJJXXfzx2+XJXXXXJJ$$%.@$;,,czVBBVBBVx,,@u7.XJJJJX@%,CBBg,oXJJJJX$$$XJJ.$$.JJJJJJJJJJJJJJJJJJJJJ",
"JJJJJJJJJJJJJJJJJJJFKJJJJJJJJ$+JJJJJXXdBN:XXKXXFJJJ$@XX.$$$,,nNNBmbNNx2,xx1.XJJJKX@-,cBNg;oXJJJKX$@@.JK$%XXJJJJJJJJJJJJJJJJJJJJJ",
"JJJJJJJJJJJJJJJJJJJKXJJJJJJJJKXJJJJJXXdBm2+XKXXKJJJJKX..$$$$7cxzVVVxcc1,xh%.XJJJX.@,,cVx0@XXJJJX+$+XJJ.$-$.JJJJJJJJJJJJJJJJJJJJJ",
"JJJJJJJJJJJJJJJJJJJJJJJJJJJJJJJJJJJJXX-BN2+XXJJJJJJJJJX@$OX$,;ccxzzd,,,-@++@XJJXX0d9cVCxq$XJJJJX.$+XJJ$$;%.JJJJJJJJJJJJJJJJJJJJJ",
"JJJJJJJJJJJJJJJJJJJJJJJJJJXXXJJJJJJJXX-Bm,+XXXJJJX.XJJo;,+X$<<999997<%%$oo.@XKX.kglMzBb7:$.JJJXKXoKKJJX;,%.JJJJJJJJJJJJJJJJJJJJJ",
"JJJJJJJJJJJJJJJJJJJJJJJJXXXXXJJJXXJJXX$hnc>OXXXKKX$OXJXO,@XO$$$,,-$$$$$OXO$@XXXO;9ccVzc,+XKJJJXJKJJJJJX,;XXJJJJJJJJJJJJJJJJJJJJJ",
"JJJJJJJJJJJJJJJJJJJJJJJX+@OXJJJJXXJJKKo$dBv$.JX@@;l8@KXXo@@.$$$%%%$$$$$%@@%oXX+,gcNNVzd%OXJJJJJJJJJJJJ.,;oXJJJJJJJJJJJJJJJJJJJJJ",
"JJJJJJJJJJJJJJJJJJJJJJJo@$OXJJJKooKJJJX$tzv%.KX@@,z9@KXXX@$X$@@@$$$$$@%<%$XXoO$9cbBNBh,$OXJJJJJKKKJJKKX,-XXJJJJJJJJJJJJJJJJJJJJJ",
"JJJJJJJJJJJJJJJJJJJJJJ$$$$JJJJJX$$.JJJX$-eh<+XXXo%,$.XJXX$-$+o..O%%$$X<%$@.o$%,cBNxcs,$$OXJJJJXXXKJJKX$,+XJJJJJJJJJJJJJJJJJJJJJJ",
"JJJJJJJJJJJJJKKKJJJJJK$$KJKKKJJ$$$$JJJJXo,tzh-XJX@@.JJJJJXX@,%$+Xoo%$$@.Xo$%,,zlnN6;,@$.KJJJJJXXKJJJKX$,+XJJJJJJJJJJJJJJJJJJJJJJ",
"JJJJJJJJJJJJJXXXJJJJJX@XKJXXXJJ$$$$JJJJJKO+%x7$GJKKJJJJJJJKXO,$$,<<;$XXXXXXO$,,<,,$$$$XKJJJJJJXXXJJJK.,$@XJJJJJJJJJJJJJJJJJJJJJJ",
"JJJJJJJJJJJKX%oXJJJJJo,<JXXXJJJX+$.JJJJJJJJJAFXXXJKXJJJXXKKJJJXX....XJJJJKXX.$$$@$$@..KJJJJJJJJJJJJJ+$<$+XJJJJJJJJJJJJJJJJJJJJJJ",
"JJJJJJJJJJJKX%XXJJJJJ+;<.X@KJJJX+$JJJJJJJJJJJJKKKJKXXKJKXXXXJJKKKKKKKJJJJJXXXOOoOO$@.KJJJJJJJJJJJJJJ@$KO.JJJJJJJJJJJJJJJJJJJJJJJ",
"JJJJJJJJJJJKX.XJJJJJJ$,@@%$JJJJX+$$JJJJJKXJJJJJJJJKX@XXKFXXXJJJJJJJJJJJXXXJXXXXXXXXo%.KJJJJJJJJJJJ$$$$XXXJJJJJJJJJJJJJJJJJJJJJJJ",
"JJJJJJJJJJJKXXJJJJJJJ+,@;%OJJJJJOO$JJJJJXXJJJJJJJJJX+@XXXKJKJXXXXXXJJXXXKKJJJJJJJXXO;pOJJJJJJJJJJ$$K+XXKKJJJJJJJJJJJJJJJJJJJJJJJ",
"JJJJJJJJJJJKXXKJJJJJJo;1,@XJJJJJXX+XJJXJKXJJJJJJJJJXo$.XXXXKJXXXXXXXXXXXJJJJJJJJXXX-,z+XJJJJJJJJJ$KJXXXJJJJJJJJJJJJJJJJJJJJJJJJJ",
"JJJJJJJJJJJJJXJJJJKKJK%bl-XJJJJJJKXXXJXXKJJJJJJJJJJKXO+-O++oXXXXXXX@@++XJJJJJJXJXo,7fs%XKJJJJJJJJJKXXXJJJJJJJJJJJJJJJJJJJJJJJJJJ",
"JJJJJJJJJJJJJXKJJJXXKK$9x;XJJJJJJJJJXJoXXJJJJJJJJJJJK.,,,-$%XooXoXX$$$XXJJJJJKXXXo;,,$$XKJJJJJJJJJKXXJJJJJJJJJJJJJJJJJJJJJJJJJJJ",
"JJJJJJJJJJJJJJJJJJXXKK.%hl$JJJJJJJJJXX$$+.X.JJJJJJJJKX.+-<,,,<$@$$$<<$XXJJJJJXKJJX.X$$XXKJJJJJJJXXXJJJXJJJJJJJJJJJJJJJJJJJJJJJJJ",
"JJJJJJJJJJJJJJJJJJJKXK.$lz-.JJJJJJJJ.$f2;$$$$oJJJJJJJJXX$;7cxxxc,,,$$.JJJKXO$.KJJJXo$$XJJJJJJJXJJJJJJJXJJJJJJJJJJJJJJJJJJJJJJJJJ",
"JJJJJJJJJJJJJJJJJJJKXJKX%28OXJJJJJJJ.$dcd,---XXKJJJJJJXKX@--;aff-;$OKXJJ.o++XKFJXXO@%OXJJJJJJJXJJJJJJJXJJJJJJJJJJJJJJJJJJJJJJJJJ",
"JJJJJJJJJJJJJJJJJJJKX$KJ.%,;.XKJJJJJX$,xxxh,;$.XXKJJJJJJJJ$XXXXXXKJJJJJX$$$$KJJXXX@@XXKJJJJJJJXJJJJJXJXJJJJJJJJJJJJJJJJJJJJJJJJJ",
"JJJJJJJJJJJJJJJJJJJK.+$KK+--OXKJJJJJX+-flnxdf>O+OXKJJJJJJJJXXXXXXKJJJ$KO+@$KJKKXXX%%.XKJJJJJKKXJJJJJXKXJJJJJJJJJJJJJJJJJJJJJJJJJ",
"JJJJJJJJJJJJJJJJJJJJJX@$KKX$$XXXKJJJXX$,sxNxh,$$$oXJJJJJJJJJJJJJJJJJJ$$%XXJXXXXXX$;;XXKJJJJF$.XJJJJJXXJJJJJJJJJJJJJJJJJJJJJJJJJJ",
"JJJJJJJJJJJJJJJJJJJJJJ.+@KX..@@OOKKJXX$-dxnBa%-,,%OKJJJJJJJJJJJJJJJKKKKKKKXXX+O%rr6;XJJJJJKK%+XJJJJJO$JJJJJJJJJJJJJJJJJJJJJJJJJJ",
"JJJJJJJJJJJJJJJJJJJJJJJX@$XJJX$,@XXJXX%$sxnV,,,,,%@XJJJJJJJJJJJJJJJKX.....XX.$$,NN9;.JJJJJXX%XKJJJJJO$JJJJJJJJJJJJJJJJJJJJJJJJJJ",
"JJJJJJJJJJJJJJJJJJJJJJJJJ.XX.%$,@XJJKX.$-gxxaVxxc9@.KJJJJXXKKJKKKKX+-,xZf;$o$$,,zs%@XJJJJXXXXJJJJJKK$XJJJJJJJJJJJJJJJJJJJJJJJJJJ",
"JJJJJJJJJJJJJJJJJJJJJJJJJJFFFFFGFFJJJJ.$$,dc,zBBN7;$.KJJJXXXXJXXX.@dzzzCcf,$$<<$1<%XXJJJJFFFSJJJJJK$$KJJJJJJJJJJJJJJJJJJJJJJJJJJ",
"JJJJJJJJJJJJJJJJJJJJJJJJJJJJJJJJJJJJJJKX@,,,bxxxxcl$$XJJJKXXX.%%--<ccCVjVNnas,@+O+XXXJJJJJJJJJJJJX$-.JJJJJJJJJJJJJJJJJJJJJJJJJJJ",
"JJJJJJJJJJJJJJJJJJJJJJJJJJJJJFXJJJJJJJJFX%$$7*7673*$XKJJJJJXXXoo%%%47cBNBBBn7$oXXXSDJJJJJJJJJJJJX$-<.JJJJJJJJJJJJJJJJJJJJJJJJJJJ",
"JJJJJJJJJJJJJJJJJJJJJJJJJJJJFFXXKJJJJJJJK.@+;$;,,@@+XKJJJJJKXXXX@+@@;hNNVBNs;OXXXXJJJJJJJJJJJJKK.$@+.JJJJJJJJJJJJJJJJJJJJJJJJJJJ",
"JJJJJJJJJJJJJJJJJJJJJJJJJJJJAG$XKJJJJJJJJXXXooO%$XXXJJJJJJJJJJXXXXXXo;7cch7$oXXXKJJJJJJJJJJJJXXXXooXJJJJJJJJJJJJJJJJJJJJJJJJJJJJ",
"JJJJJJJJJJJJJJJJJJJJJJJJJJJJJG$XKJJJJJJJJJJJXXXXXXJJJKKKKJJJJJJJJKXXX+-kki;OXJJJJJJJJJJJJJKKXoXKoOKJJJJJJJJJJJJJJJJJJJJJJJJJJJJJ",
"JJJJJJJJJJJJJJJJJJJJJJJJJJJJJK%XKJJJJJJJJJJJJJJJJJJJKXXXXJJJJJJJJJJXXXXXXXXXJJJJJJJJJJJJJJXXXXK$$%JJJJJJJJJJJJJJJJJJJJJJJJJJJJJJ",
"JJJJJJJJJJJJJJJJJJJJJJJJJJJJJJAJKKJJJJJJJJJJJJJJJJJJJJXXXXXXJJJJJJJJJJJJJJJJJJJJJJJJJKXXXXXXXXXX..JJJJJJJJJJJJJJJJJJJJJJJJJJJJJJ",
"JJJJJJJJJJJJJJJJJJJJJJJJJJJJJFXJXXJJJJJJJJJJJJJJJJJJJJKKXKKKJJJJJJJJJJJJJJJJJJJJJJJJJJKKKKKK.@XKKJJJJJJJJJJJJJJJJJJJJJJJJJJJJJJJ",
"JJJJJJJJJJJJJJJJJJJJJJJJJJJJJJJ$KJJJJJJJJJJJJJJJJJJJJJJJJJJJJJJJJJJJJJJJJJJJJJJXKJJJJJJJJXXXXJJJJJJJJJJJJJJJJJJJJJJJJJJJJJJJJJJJ",
"JJJJJJJJJJJJJJJJJJJJJJJJJJJJJJJooXJJJJJJJJJJJJJJJXXJJJJJJJJJJJJJJJJJJJJJJJJJJKXXJJJKXXXXXXKKKJJJJJJJJJJJJJJJJJJJJJJJJJJJJJJJJJJJ",
"JJJJJJJJJJJJJJJJJJJJJJJJJJJJJJJXXXXJJJJJJJJJJJJJKXXJJJJJJJJJJJJJJJJJJJJJJJJKXXXJJJJKXXXXXXJJJJJJJJJJJJJJJJJJJJJJJJJJJJJJJJJJJJJJ",
"JJJJJJJJJJJJJJJJJJJJJJJJJJJJJJJJJXO$JJJJJJJJKXXXooXJJJXXXJJKXXJJJJJJJJJJJKX@XXJJJJJJJJJJJJJJJJJJJJJJJJJJJJJJJJJJJJJJJJJJJJJJJJJJ",
"JJJJJJJJJJJJJJJJJJJJJJJJJJJJJJJJJX+@KJKKFJJJKXXXO$JJJJXXXKKXXXKKKKKKJKKKKKX+XJJJJJJJJJJJJJJJJJJJJJJJJJJJJJJJJJJJJJJJJJJJJJJJJJJJ",
"JJJJJJJJJJJJJJJJJJJJJJJJJJJJJJJJJJXXXJXXX$KJJJJJJJJJJJJXXXXXJXX.$$%o$.X@$@XXJJJJJJJJJJJJJJJJJJJJJJJJJJJJJJJJJJJJJJJJJJJJJJJJJJJJ",
"JJJJJJJJJJJJJJJJJJJJJJJJJJJJJJJJJJJJJJJJX@$KKJJJJJJJJJJJJJJXJJJJXXX$$%XXKJXXJJJJJJJJJJJJJJJJJJJJJJJJJJJJJJJJJJJJJJJJJJJJJJJJJJJJ",
"JJJJJJJJJJJJJJJJJJJJJJJJJJJJJJJJJJJJJJJJSXXXXKJJJJJJJJJJJJJXXXX@$+.KKKKKXXXKJJJJJJJJJJJJJJJJJJJJJJJJJJJJJJJJJJJJJJJJJJJJJJJJJJJJ",
"JJJJJJJJJJJJJJJJJJJJJJJJJJJJJJJJJJJJJJJJJJJJJJJJJJJJJJJJJJJJJJX.$$%-,<$$oXJJJJJJJJJJJJJJJJJJJJJJJJJJJJJJJJJJJJJJJJJJJJJJJJJJJJJJ",
"JJJJJJJJJJJJJJJJJJJJJJJJJJJJJJJJJJJJJJJJJJJJJJJJJJJJJJJJJJJJJJKKK+OO@-$$KKJJJJJJJJJJJJJJJJJJJJJJJJJJJJJJJJJJJJJJJJJJJJJJJJJJJJJJ",
"JJJJJJJJJJJJJJJJJJJJJJJJJJJJJJJJJJJJJJJJJJJJJJJJJJJJJJJJJJJJJJJJJXXXX$$JJJJJJJJJJJJJJJJJJJJJJJJJJJJJJJJJJJJJJJJJJJJJJJJJJJJJJJJJ",
"JJJJJJJJJJJJJJJJJJJJJJJJJJJJJJJJJJJJJJJJJJJJJJJJJJJJJJJJJJJJJJJJJJJJJJJJJJJJJJJJJJJJJJJJJJJJJJJJJJJJJJJJJJJJJJJJJJJJJJJJJJJJJJJJ",
"JJJJJJJJJJJJJJJJJJJJJJJJJJJJJJJJJJJJJJKKKKKKKKKKJJJJJJJJJJJJJJJJJJJJJJJJJJJJJJJJJJJJJJJJJJJJJJJJJJJJJJJJJJJJJJJJJJJJJJJJJJJJJJJJ",
"JJJJJJJJJJJJJJJJJJJJJJJJJJJJJJJJJJJJJJJJJJJJJJJJJJJJJJJJJJJJJJJJJJJJJJJJJJJJJJJJJJJJJJJJJJJJJJJJJJJJJJJJJJJJJJJJJJJJJJJJJJJJJJJJ",
"JJJJJJJJJJJJJJJJJJJJJJJJJJJJJJJJJJJJJJJJJJJJJJJJJJJJJJJJJJJJJJJJJJJJJJJJJJJJJJJJJJJJJJJJJJJJJJJJJJJJJJJJJJJJJJJJJJJJJJJJJJJJJJJJ",
"JJJJJJJJJJJJJJJJJJJJJJJJJJJJJJJJJJJJJJJJJJJJJJJJJJJJJJJJJJJJJJJJJJJJJJJJJJJJJJJJJJJJJJJJJJJJJJJJJJJJJJJJJJJJJJJJJJJJJJJJJJJJJJJJ",
"JJJJJJJJJJJJJJJJJJJJJJJJJJJJJJJJJJJJJJJJJJJJJJJJJJJJJJJJJJJJJJJJJJJJJJJJJJJJJJJJJJJJJJJJJJJJJJJJJJJJJJJJJJJJJJJJJJJJJJJJJJJJJJJJ",
"JJJJJJJJJJJJJJJJJJJJJJJJJJJJJJJJJJJJJJJJJJJJJJJJJJJJJJJJJJJJJJJJJJJJJJJJJJJJJJJJJJJJJJJJJJJJJJJJJJJJJJJJJJJJJJJJJJJJJJJJJJJJJJJJ",
"JJJJJJJJJJJJJJJJJJJJJJJJJJJJJJJJJJJJJJJJJJJJJJJJJJJJJJJJJJJJJJJJJJJJJJJJJJJJJJJJJJJJJJJJJJJJJJJJJJJJJJJJJJJJJJJJJJJJJJJJJJJJJJJJ",
"JJJJJJJJJJJJJJJJJJJJJJJJJJJJJJJJJJJJJJJJJJJJJJJJJJJJJJJJJJJJJJJJJJJJJJJJJJJJJJJJJJJJJJJJJJJJJJJJJJJJJJJJJJJJJJJJJJJJJJJJJJJJJJJJ",
"JJJJJJJJJJJJJJJJJJJJJJJJJJJJJJJJJJJJJJJJJJJJJJJJJJJJJJJJJJJJJJJJJJJJJJJJJJJJJJJJJJJJJJJJJJJJJJJJJJJJJJJJJJJJJJJJJJJJJJJJJJJJJJJJ",
"JJJJJJJJJJJJJJJJJJJJJJJJJJJJJJJJJJJJJJJJJJJJJJJJJJJJJJJJJJJJJJJJJJJJJJJJJJJJJJJJJJJJJJJJJJJJJJJJJJJJJJJJJJJJJJJJJJJJJJJJJJJJJJJJ",
"JJJJJJJJJJJJJJJJJJJJJJJJJJJJJJJJJJJJJJJJJJJJJJJJJJJJJJJJJJJJJJJJJJJJJJJJJJJJJJJJJJJJJJJJJJJJJJJJJJJJJJJJJJJJJJJJJJJJJJJJJJJJJJJJ",
"JJJJJJJJJJJJJJJJJJJJJJJJJJJJJJJJJJJJJJJJJJJJJJJJJJJJJJJJJJJJJJJJJJJJJJJJJJJJJJJJJJJJJJJJJJJJJJJJJJJJJJJJJJJJJJJJJJJJJJJJJJJJJJJJ",
"JJJJJJJJJJJJJJJJJJJJJJJJJJJJJJJJJJJJJJJJJJJJJJJJJJJJJJJJJJJJJJJJJJJJJJJJJJJJJJJJJJJJJJJJJJJJJJJJJJJJJJJJJJJJJJJJJJJJJJJJJJJJJJJJ",
"JJJJJJJJJJJJJJJJJJJJJJJJJJJJJJJJJJJJJJJJJJJJJJJJJJJJJJJJJJJJJJJJJJJJJJJJJJJJJJJJJJJJJJJJJJJJJJJJJJJJJJJJJJJJJJJJJJJJJJJJJJJJJJJJ",
"JJJJJJJJJJJJJJJJJJJJJJJJJJJJJJJJJJJJJJJJJJJJJJJJJJJJJJJJJJJJJJJJJJJJJJJJJJJJJJJJJJJJJJJJJJJJJJJJJJJJJJJJJJJJJJJJJJJJJJJJJJJJJJJJ",
"JJJJJJJJJJJJJJJJJJJJJJJJJJJJJJJJJJJJJJJJJJJJJJJJJJJJJJJJJJJJJJJJJJJJJJJJJJJJJJJJJJJJJJJJJJJJJJJJJJJJJJJJJJJJJJJJJJJJJJJJJJJJJJJJ",
"JJJJJJJJJJJJJJJJJJJJJJJJJJJJJJJJJJJJJJJJJJJJJJJJJJJJJJJJJJJJJJJJJJJJJJJJJJJJJJJJJJJJJJJJJJJJJJJJJJJJJJJJJJJJJJJJJJJJJJJJJJJJJJJJ",
"JJJJJJJJJJJJJJJJJJJJJJJJJJJJJJJJJJJJJJJJJJJJJJJJJJJJJJJJJJJJJJJJJJJJJJJJJJJJJJJJJJJJJJJJJJJJJJJJJJJJJJJJJJJJJJJJJJJJJJJJJJJJJJJJ"
};
