/* XPM */
static char *_1883_966d5a81496a8ec4998d2bf9dd39c514b89b6059ccc801182b949d3fa25a15b1[] = {
/* columns rows colors chars-per-pixel */
"64 64 253 2 ",
"   c #0C0504",
".  c #170A09",
"X  c #1C1110",
"o  c #1C1716",
"O  c #220D0B",
"+  c #3D0602",
"@  c #2A150B",
"#  c #341707",
"$  c #251915",
"%  c #301510",
"&  c #34240E",
"*  c #3C2208",
"=  c #2A2419",
"-  c #352511",
";  c #342A17",
":  c #3C2B14",
">  c #2F3017",
",  c #35381A",
"<  c #1C1528",
"1  c #23182B",
"2  c #211D36",
"3  c #282523",
"4  c #352C25",
"5  c #322E32",
"6  c #393637",
"7  c #420702",
"8  c #450903",
"9  c #4B0805",
"0  c #4B0905",
"q  c #520906",
"w  c #540C09",
"e  c #5B0E0B",
"r  c #481A07",
"t  c #5B120E",
"y  c #4B1911",
"u  c #581A12",
"i  c #650E0B",
"p  c #67120E",
"a  c #671814",
"s  c #761715",
"d  c #7C1615",
"f  c #452708",
"g  c #452A0A",
"h  c #562606",
"j  c #4C320B",
"k  c #53380E",
"l  c #472B15",
"z  c #422E15",
"x  c #552812",
"c  c #453116",
"v  c #4B3414",
"b  c #483A16",
"n  c #443119",
"m  c #4C361A",
"M  c #4E381B",
"N  c #513613",
"B  c #553B14",
"V  c #593D16",
"C  c #553318",
"Z  c #543B1C",
"A  c #593E1C",
"S  c #642B03",
"D  c #682E06",
"F  c #6B3305",
"G  c #753A06",
"H  c #6F2819",
"J  c #673A1D",
"K  c #443B27",
"L  c #543D21",
"P  c #7D2622",
"I  c #36441C",
"U  c #384B23",
"Y  c #3D6926",
"T  c #38762B",
"R  c #4D4D17",
"E  c #5A4017",
"W  c #5C421B",
"Q  c #62461C",
"!  c #6F401E",
"~  c #64491E",
"^  c #764319",
"/  c #56661B",
"(  c #666D1A",
")  c #454724",
"_  c #5C4221",
"`  c #5C452B",
"'  c #465627",
"]  c #50522B",
"[  c #634622",
"{  c #664922",
"}  c #6B4C23",
"|  c #684D2A",
" . c #754320",
".. c #714F26",
"X. c #735126",
"o. c #755429",
"O. c #73552E",
"+. c #7A5629",
"@. c #75582C",
"#. c #7D592A",
"$. c #4A6529",
"%. c #53722F",
"&. c #696D31",
"*. c #1D274A",
"=. c #232747",
"-. c #2D3348",
";. c #333749",
":. c #2D3754",
">. c #2D3869",
",. c #443B44",
"<. c #384453",
"1. c #3B516F",
"2. c #504D4B",
"3. c #655C4D",
"4. c #706951",
"5. c #4A506E",
"6. c #445977",
"7. c #4F6676",
"8. c #74786B",
"9. c #851917",
"0. c #8B1B1A",
"q. c #961D1C",
"w. c #9D201E",
"e. c #8C301D",
"r. c #A1211E",
"t. c #892B25",
"y. c #942B26",
"u. c #963427",
"i. c #A22220",
"p. c #AB2423",
"a. c #B82826",
"s. c #A93B36",
"d. c #B53D3A",
"f. c #834A18",
"g. c #835D2B",
"h. c #8A5D29",
"j. c #805E36",
"k. c #B74938",
"l. c #86602D",
"z. c #8A622D",
"x. c #95682F",
"c. c #856332",
"v. c #8C6431",
"b. c #88673B",
"n. c #946A32",
"m. c #936A36",
"M. c #9A6D33",
"N. c #9E7134",
"B. c #93713F",
"V. c #9C723A",
"C. c #A47435",
"Z. c #AB7937",
"A. c #A67639",
"S. c #AB7B3C",
"D. c #B37E3B",
"F. c #CC6737",
"G. c #8F744F",
"H. c #987747",
"J. c #A47B43",
"K. c #AC7E40",
"L. c #A67F53",
"P. c #90736B",
"I. c #CE5151",
"U. c #E16B50",
"Y. c #388430",
"T. c #76861A",
"R. c #51882F",
"E. c #669335",
"W. c #75A73B",
"Q. c #65884A",
"!. c #798B6C",
"~. c #899219",
"^. c #98A71A",
"/. c #B5823E",
"(. c #A3A720",
"). c #E1A63C",
"_. c #D1C614",
"`. c #919052",
"'. c #AD8343",
"]. c #B38443",
"[. c #BA8642",
"{. c #B38947",
"}. c #BB8A45",
"|. c #B68C48",
" X c #BA8C49",
".X c #BE914B",
"XX c #AE8A5B",
"oX c #858575",
"OX c #8C9678",
"+X c #B39665",
"@X c #B2966A",
"#X c #B69A6A",
"$X c #BA9D6C",
"%X c #95A465",
"&X c #BDA16F",
"*X c #BDA272",
"=X c #C18E4A",
"-X c #C3924C",
";X c #CA954C",
":X c #D29A4F",
">X c #C89651",
",X c #C59B53",
"<X c #CD9A53",
"1X c #D29C54",
"2X c #DD9E59",
"3X c #F08D43",
"4X c #DCA94F",
"5X c #CBA359",
"6X c #D8A75C",
"7X c #D8AD64",
"8X c #DCB363",
"9X c #DAB46D",
"0X c #DCB869",
"qX c #C3A675",
"wX c #D4B270",
"eX c #E1B666",
"rX c #E1BA69",
"tX c #384886",
"yX c #3D4F94",
"uX c #4A568D",
"iX c #4F718E",
"pX c #586BB4",
"aX c #4D68C1",
"sX c #578BB0",
"dX c #6598AF",
"fX c #5F9CCA",
"gX c #66A5D0",
"hX c #999785",
"jX c #96918C",
"kX c #A99990",
"lX c #99A784",
"zX c #ADAC92",
"xX c #ABA899",
"cX c #B8B5A7",
"vX c #CC9A9D",
"bX c #CCAE8E",
"nX c #D4B886",
"mX c #E6BC87",
"MX c #D89FA4",
"NX c #DBA9AB",
"BX c #D0B3AE",
"VX c #E4ADB3",
"CX c #E5B9BB",
"ZX c #ECC18B",
"AX c #CDC8B7",
"SX c #E3C7BD",
"DX c #E2BEC0",
"FX c #D7CFCA",
"GX c #EBCECA",
"HX c #E9D8D8",
"JX c #F6E0C8",
"KX c #F8DFE0",
"LX c #F4EBEA",
/* pixels */
",X5X5X5X8XwX0X9X9X9XwX0XwX0X9X0X9X9X9X9X9X9X9X9X9X9X9X9X9X9X9X9XwX9X9X9X9X9X9X9X9X7X9X7X9X7X7X7X5X7X7XwX9X9XwX7X7XwX9X7XwX9X,XG.",
"5X5X.X,X|.|.|.|.|..X|.|.|.|.|.|.|.|.{.{.{.{.|.|.|.{.|.|.|.|..X|.|..X|.|.|.|.|. X{.{.{.{.|.{.{. X|.|.{.'.{.{. X X{.{. X[.K.K.7XG.",
"5X|.,X5X5X,X.X].{.{.{.|.'.'.'.'.K.K.K.K.K.'.K.K.K.S.K.'.].].}. X X X].].].S.K.J.S.S.S.S.K.K.A.S.J.V.V.A.K.K.K.K. X=X XK.K.K.1XG.",
"7X.X5X9X7X6X5X5X5X5X5X5X,X,X,X,X,X,X,X>X-X X X|.|. X X|.{. X X X X X|.|.|.|. X|.].[.].[.].K.K.K.K.[.=X-X=X=XK. X[.K.K.K.D.J.7XH.",
"7X7X8X8X8X0X8X8XeXrXeXeXrXeXeXeXrXrXrXeXeXeXeX7X8X8X8X8XrXrXrXrXeXrXrXrX8X8X8X7X7X6X7X8X<X<X<X>X=X-X=X[.K.K.].[.K.].]. X].{.rXH.",
"7X0XrXrXrX0XeX8X7X2X6X1X1X1X1X1X1X6X2X7X6X6X7X7X8X9X0XrXeXrXrXrXrXrXrXrXrXeXrX8X6X7X7X6X7X7X6X1X1X1X<X1X1X1X2X1X6X8X0XrXrXrX0X'.",
"{ } X.X.@.+.+.+.g.+.o.o.X.X.o.o.O...X.X.X.X.o.g.g.l.z.z.z.z.z.z.z.z.z.z.z.z.g.g.g.+.+.+.g.+.X.+.o.X.X.X.#.o.#.+.+.+.+.X.X.X.| ` ",
"W _ W X.g.g.#.l.g.h.h.l.g.g.g.z.h.h.v.h.v.h.l.l.z.h.g.g.l.g.g.g.g.g.g.g.g.g.g.g.g.g.h.g.g.g.g.g.g.g.g.g.g.c.g.l.g.X.[ A A A W ` ",
"W Q { } X.+.+.+.g.X.#.#.#.g.#.g.g.g.#.g.g.#.g.#.#.g.#.g.#.g.g.g.g.g.g.+.g.#.#.#.#.#.O.g.+.+.#.+.g.g.g.g.g.#.X.X.{ _ _ _ A A _ | ",
"Z +.l.x.K.K.K.K.A.K.-X>X<X<X<X<X<X<X<X<X<X>X>X>X>X>X>X<X<X<X<X1X1X<X<X<X.X-X-X-X>X>X<X>X>X>X-X>X=X>X<X<X<X-XS.V.V.V.V.M.g.+.X.` ",
"& $ $ & & = - - - - - l n n : ; z z n n l : n n l l : ; - - - : : : z : : n : : l : l L n z z : z z z ; ; - - - - : : : - - - : ",
"* & & & & % % - - - - l l l : l c n n n n n m n K m m m M M M Z L L M L L L L L L L C L L Z Z Z M L M M C m m M M z : & & % @ = ",
"M +.} : - z } +.+.o.....[ | [ [ { X.X.+.#.+.+.+.X.......+.g.#.#.g.g.g.g.g.+.+.+.@.+.+.+.+.+.X.X.} [ }  ...+.+.+.+...c : c X.X.` ",
"Z @.+.B : [ +...[ c : : : : z : z z z v c c M m C M M M M Z Z Z Z M Z M M v b m n z z c c : z v z z : : z : v A X.+.X.c } #.O._ ",
"C ..+.X.X.+.+._ : - : M Z _ A A Z A L L Z A L _ A W L W _ W W W A L L Z C C Z E Z M Z Z Z E Z L L _ Z Z L M n * A +.+.+.@.@.Z L ",
"C L ..+.X.+.} b & @ . .   . . X X o $ 3 3 $ $ $ o X X $ 3 $ o $ $ $ $ $ $ o X X X $ $ $ $ $ = 4 4 4 : 4 $ =   z z Q X.#.#._ m _ ",
"Q M L ......A m ;   :.<.1.=.-.:.-.5 -.-.-.-.-.<.:.q p H i 0 e i t 0 p a t 0 e a p   { N f $ P.KXKXLXBXvXvXkX< n l _ X.g.+.L M | ",
".._ M } X.[ L [ b o <.1.1.-.1.1.1.-.1.1.1.;.1.1.1.t t.k.P q e.w.a 0 e.F.s 0 s u.s   @.V g O GXCXLXKXHXGXHXGX| m.M Z } g.} M L | ",
">X;XZ Q ..L ..V.W = 1.sXiX:.1.sXiX:.iXfXiX-.uXfXiXu k.).e.t k.).t.i d.3Xf.p s.F.t.  @.Q g $ NXGXKXCXP.GXkXO.G..X} L { X.{ m ..` ",
"7X1Xc.g.+.#.{.[.] 3 6.sXiX:.6.fXiX=.uXgXiX-.iXgXiXe d.3Xu.i k.3Xu.t s.F.u.p k.F.P . @.Q f X VXVX3.P.LXP.P.vXB.,X<X Xh.#.#.o.O.| ",
"6X8X7X1X1X1X6X1X{ 3 6.dXiX6 7.dXiX;.sXgXiX:.sXfXiXt k.).t.t I.U.t.p k.3Xu.s I.3XH O o.~ f X FXBXGXKXLXLXBXKXb..X6X6X1X1X6X7X6XH.",
"N.Z.Z.C.N.x.h.g.` > 4.%X`.<.`.%X`.2.Q.%X`.U ,X_.%Xs s.I.t.t d.I.t.a I.I.y.a k.I.s # ..~ f O HXLXMXvXLXP.DXCXG.@.h.n.C.A.C.C.N.b.",
"M.Z.Z.Z.Z.Z.C.C.&.3 6.dX!.:.6.dXiX<.sXdX!.-.iXgXiXu t.I.P e d.I.9.e s.I.t.s d.I.s ~ { W * $ HXDXHXKXNXHXLXDXb.A.]./.].S.Z.Z.M.#.",
"M.Z.Z.Z.Z.Z.Z.Z.b.> 4.!.!.-.3.!.`.;.!.!.!.-.!.%X`.t u.d.d w u.s.a q t.s.s e u.k.a b.} E & o CXGXGXLXLXCXKXGXH.'./.S.Z.Z.Z.S.C.j.",
"C.Z.C.C.N.N./.|.N.5 6.7.7.;.2.iX7.<.iX7.6.,.7.iX5.a u.u.H a t.t.P u t.t.P u t.t.P *X@.E * @ vXNXKXSXvXGXvXNXB.{.|.C.N.C.C.Z.C.j.",
"C.Z.[ J E W c..XV.6 G.`.@X*X$X*X*X*XqXqX#X+X&X*X+X#XqXqX*X*X*X&X@X@XqXnXnXnXnXnXnXnX@.W * % NXGXCXSXSXSXVXNXb.{.'.W _ E { S.Z.c.",
"C.C...z.n.n.c..XV.5 : b V W W W E Q Q ~ ~ ~ } } } } } { { ~ W W [ Q Q Q W E V B B B ..~ Z % HXLXLXFXGXVXVXNXb.{.'.} c.z.Z.}.S.b.",
"C.x.} x.Z.C.v.,XV.3 c N B V V L W W E V E E E V E Z E V B B E R V A B V V V W V E E ..} V @ jXFXFXFXcXOXMXMXc.{.'...n.M.Z.[. Xj.",
"C.N.} l.N.M.n.,XV.= + 8 + 0 0 7 9 8 + 8 9 + 0 q 7 , 2.) 4 2.2.4 4.4.> <.3.> 3.3., 2...{ C $ jXxXBXBXkXjXCXvXb.{.K...m.M.Z.[.=Xc.",
"C.Z.} [ | #.M..XB.3 p p + d d 9 9.d 7 s s 7 d 9.7 , !.OXU OX!.> jXlXI lXhXU !.jXU !.O.} C < FXcX!.!.oXCXvXMXc.].'.X.v.g.M./.=Xb.",
"C.D.;X,X,X,X.X-XN.3 a s 8 9.0.w 0.9.9 0.0.8 0.q.8 , T T I T U I T T I T T U T T I Y.@.} Z % AXLXjXxXBXNXVXvXb.{.{.v.D.S.D.D.[.m.",
"Z.Z. .{ _ @.n.D.N.3 s s 7 p.i.t p.0.9 q.r.0 p.p.0 I Y.T U T Y.> Y.T > T Y.U T Y., T @.} V @ xXLXAXjXFXDXHXHXH.'.'.{ ..} X.v. XV.",
"Z.A...#.x.c.M./.V.5 d s 7 a.r.e a.q.w q.a.p a.p.h I R.Y.I T R., R.Y., / Y.I Y R., Y @.} E # hXFXHXxX!.!.cXFXH.'.].} z.g.g.+.-XV.",
"Z.Z.X.l.x.x.n./.C.5 9.s q a.r.w a.q.q q.a.i a.i.i ( (.T.R T.^.R (.(.R T.^.R ( ^.R T.@.~ E @ 8.BXHXAXiX!.hXFXb.'.{.{ v.v.g.@.-XV.",
"D.Z...l.x.v.z..XA.3 d s 7 a.q.e a.q.8 r.a.e a.q.e / T./ > R.T.I %.R.I R.R.I Y Y., / @.} E @ 8.OXxXxXbXjXoXhXb.'.{.{ v.h.+.g.-XA.",
"/.S.X.l.N.n.c.=XA.3 p i + 0.d q q.9.7 0.r.9 q.q.q / ^.( > T.~., T.T.I T.^.R ( ~., ( @.} B @ 3.8.zXxXAXBXcXoX&.'.{.[ v.v.g.+.=XH.",
"D.Z.+.g.N.n.c..XA.= y y # u u u t a y u x y a a u ) ( %.b ] ] , ] / ) ' R I $.( ) ] +.} V O P.8.OXxXcXzXkX8.G.'.|.{ v.z.#.#.=XC.",
"/.Z.X.h.N.M.z..XC.3 G.`.+X#X+X$X$X$X$X#X+X+X$X+X&XqXqXqX*X$X#X+X+XqXqX$X,X$XnXnXnXqX@.~ V @ lXkXkXxXxXxXhX4.#.'.].[ v.z.g.+.-XV.",
"D.S.X.g.N.M.z. XC.3 - v b V B E V Q V B N N E E N E E E W V W W W Q W V A W V E W Q +.E V % 8.hXcX8.hXoXP.3.#.'.{.} v.z.#.#.-XV.",
"D.S.X.z.N.M.c.=XC.3 z m E W E E V V k k N k v N N N N B C B V V V C C V V V V V E E @.B N # H.L.XXL.XXXXL.L.b.'.{.{ z.z.#.#.-XA.",
"D.Z.X.h.C.M.c. XM.3 *.<.<.U   + 8 + 8 8 + 0 0 + 7 9 7 w 0 7 q 9 7 9 8 + 8 9 7 q q 8 +.N j # F h r r h k x j #.'.{.{ v.h.g.#.=XV.",
"D.D.X.g.N.n.z.-X'.3 <.1.1.5   i s 7 d s 8 d d 7 i d 7 d d 7 d 9.0 9.d 7 s s 7 d d 9 X.j j # D r r f h g r j #.'.{.{ v.z.#.#.=XM.",
"D.S.X.g.N.N.c..X'.o 1.sXiX=.  d d 7 0.9.8 d 0.7 0.0.0 9.9.8 9.0.e 0.0.8 0.q.9 0.w.8 ..j j @ S cXcXhXlXzXzXzX#.{.{.{ v.z.g.+.[.J.",
"/.Z.+.x.N.A.z.-X/.o 1.sXiX*.  w.9.7 r.d 8 p.w.7 q.0.e r.0.8 p.i.e p.0.0 q.q.q p.i.w ..j h O | AXAXzXlX*XzXzXb.{.{.{ z.v.+.g.].H.",
"/./.@.N.Z.A.x.-X/.3 1.sXiXK O i.0.q p.9.0 p.0.0 q.0.i r.0.9 a.i.w a.q.e q.a.p a.p.t ~ j j #  .OXBXcXzXhXcXcXB.|.|.{ c.M.g.#.}.A.",
"/.=X+.S./.S.n..X/.o %.`.`.) # i.0.w a.0.8 p.q.w r.q.i p.0.e a.i.q a.q.0 r.a.i a.i.t ~ j f # G #XzXwXbXnXnXnXb.|.{.+.n.N.g.h. XV.",
"/.;Xl.Z././.n.-XN.= 1.iX7.,.[ w.9.q i.9.7 q.q.9 r.0.i r.0.9 a.q.q a.q.7 r.a.w a.r.e X.j f # ^ f.h.f.^ ^ f.^ #.|.{.+.M.A.z.n.=Xv.",
"[.;Xn.N.Z.A.N.-X'.3 3.!.!.6 b.i e 7 0.s + i s 7 9.i 9 9.p + 0.d q q.9.7 0.q.9 q.0.e +.j g # F F D F F F F G @.|.{.@.N.Z.n.C.;XV.",
"/.:X/.N.C.x./.;XC.= 1.7.7.2.$Xu y y a x y a a x u u u u u y u x u u a u a x u H H x @.j f # h S S S S S F S O.{.,Xb.x.N./..X;XN.",
"Z.:X8X.X/.}.}./.b.= &.G.XX$X*X*X*X*X&X*X#X+X*X*X#X#XqXqX*X*X&X$X#X+X*XnXnXnXnXnXbXwXg.g r @ h O.G.XXL.XX+XXX) J.6X-X/.}.,X<X-Xl.",
"~ {.6XrX8X6X:XZ...3 : b N E Z V E W W ~ W W ~ { } W { ~ ~ Q Q Q E W E E E B N k V V X.f & # S @XSXJXJXJXJXSX6 ..|.eX8X4X5X5X'._ ",
"B z.}.4X6X6XD.@.: o : j b V Z W E E E E E E E E E M _ E N M C l E E V Z Z B L L Z Z ..f * # S nXSXJXJXJXJXSX= : +..X8X8X6X,Xc.m ",
"N Z +.N.M.h.V c = o = > = - & = 3 ; = @ = ; 3 4 = -.*.*.< *.*.X *.*.< *.=.< *.*.<   Q f f # h BXJXJXJXJXJXGX5 & c Z m.'./.@.Z m ",
"m L A Z W M : & & o > U ' I = ' $.$.' = $.%.%.Y > :.1.>.2 >.:.< >.:.< >.>.2 >.:.<   Q g f # S $XZXZXZXZXmXwX6 - - : b _ Z W W m ",
"m A _ M Z m - & - o , $.$.' = %.%.%.' > %.Q.%.U = ;.tXtX*.>.>.1 tX>.2 tX>.2 tX>.<   } g * # G ^ ^ f.f.^ G J 4 - & - m E m _ _ M ",
"v W W n Z c & & > o , R.%.$.= %.W.E.$.> Q.E.W.U = :.aXyX*.aXtX1 aXtX2 aXuX1 aXtX2 . X.g * # F G S F F S F h = & & & c Z : _ _ M ",
"c _ W c Z c & : - o I R.R.%.; %.Q.E.U > Q.E.W.U = <.aXyX=.aXtX=.aXyX*.aXyX2 aXtX=.. N f # # G G G G G G F h $ ; - & c Z c W _ m ",
"n _ W c Z n & - - o I ( E.&.; $.W.^.' 3 Q.W.^.) ; 2.pXuX=.pXuX-.pXuX;.pXuX>.pXuX-.# N f f # F F G F h S S F o ; - & v Z z W _ M ",
"c } W n X.Q : - ; o I ^.(.~.; &.(._.( ; ~._._.R ; 3.,XXX,.P.L.` 4X-X#.+X+X,.>X X-.[ V f * # F S F S h r r h $ : - z ~ X.c _ } L ",
"n X.X.M M.} z : : o I %.( %.& ( E.E.%.; Q.R.E.) = <.uX5.1 5.5.1 7.5.1 1.tX2 5.2.1 b.k f # # r h h h h h r f o z : c { M.M o...M ",
"v X.#.L M.{ z z n o I ' $.&.K $.%.&.] K %.&.%.] I 2.uX1.5 5.5.5 5.5.5 6.5.,.5.>.,.qXg f * @ y x l x x x l y 3 m z z } M.E #.o.M ",
"z { g.Z x.{ n M n 3 G.G.XX$X#X$X$X$X@X@X#X+X$X#X&XqXqXqX*X#X@X@X+X&XqX$X#X$XbXmXnXqXf # * @ J C J J J J J J 3 n M n [ m.L #.| M ",
"$ , ..Z } [ M M , 1 @ # * g f l f v v v z c v j c j k j C v N N C C v v N N x x C g # * f @ x x x x x x x x 3 z M M { { L .., 3 ",
"4 4 4 L L L L m 4 3 X . X O O O O X O X @ O @ O O O @ @ O @ @ O @ O @ @ X O O @ % * g x N # ^  . .J ^ J ! J 4 4 L L L [ L 4 5 n "
};
