/* XPM */
static char *_1955_55ef87be8b3c689b7747deaa991ef3a72328b11d65e0632ceff1f9ebbd14758f[] = {
/* columns rows colors chars-per-pixel */
"64 64 256 2 ",
"   c #1A0604",
".  c #120F11",
"X  c #2B1508",
"o  c #391705",
"O  c #2C1914",
"+  c #371A14",
"@  c #320A01",
"#  c #38230B",
"$  c #2D241B",
"%  c #352512",
"&  c #3C2A14",
"*  c #392918",
"=  c #2E2E14",
"-  c #1C1831",
";  c #221B34",
":  c #211629",
">  c #2F2C29",
",  c #1D2031",
"<  c #4A0604",
"1  c #550A08",
"2  c #4B1D03",
"3  c #451A03",
"4  c #551C02",
"5  c #421C15",
"6  c #5F0F10",
"7  c #660D0D",
"8  c #771715",
"9  c #681310",
"0  c #4C2205",
"q  c #442A0B",
"w  c #442608",
"e  c #532304",
"r  c #5B2502",
"t  c #582A08",
"y  c #4D320A",
"u  c #52360C",
"i  c #4C2413",
"p  c #422E15",
"a  c #422F19",
"s  c #462415",
"d  c #532713",
"f  c #453116",
"g  c #453219",
"h  c #4B351A",
"j  c #4E381C",
"k  c #4B3416",
"l  c #553B14",
"z  c #593D15",
"x  c #533B1C",
"c  c #593E1D",
"v  c #563417",
"b  c #642C02",
"n  c #672E05",
"m  c #6B3103",
"M  c #6A3408",
"N  c #743808",
"B  c #67391C",
"V  c #703416",
"C  c #4B3723",
"Z  c #563B23",
"A  c #532E21",
"S  c #743829",
"D  c #6C3827",
"F  c #36461C",
"G  c #3A521E",
"H  c #326D27",
"J  c #374C27",
"K  c #5B411E",
"L  c #5A4017",
"P  c #4C5217",
"I  c #63461E",
"U  c #784318",
"Y  c #605E16",
"T  c #5C4222",
"R  c #5B4729",
"E  c #514F32",
"W  c #634622",
"Q  c #664923",
"!  c #6B4C23",
"~  c #67492A",
"^  c #724D24",
"/  c #745226",
"(  c #755429",
")  c #7A5629",
"_  c #7D5A2B",
"`  c #75582C",
"'  c #775A34",
"]  c #6C5032",
"[  c #4C6A27",
"{  c #6B6736",
"}  c #5B6B19",
"|  c #1D2952",
" . c #2B2E4E",
".. c #2B3768",
"X. c #463C45",
"o. c #374271",
"O. c #585447",
"+. c #4E4948",
"@. c #665949",
"#. c #6C594E",
"$. c #696556",
"%. c #736A59",
"&. c #746A4D",
"*. c #515371",
"=. c #797666",
"-. c #7D7874",
";. c #776B65",
":. c #5D674D",
">. c #8C1A19",
",. c #91231D",
"<. c #A1211E",
"1. c #933129",
"2. c #A92322",
"3. c #A43533",
"4. c #AD2F29",
"5. c #9C1F20",
"6. c #C22B29",
"7. c #844916",
"8. c #864E15",
"9. c #835D2B",
"0. c #895B29",
"q. c #8D4E35",
"w. c #AC4931",
"e. c #8A622E",
"r. c #85602E",
"t. c #94682F",
"y. c #8C6431",
"u. c #876434",
"i. c #956B33",
"p. c #9A6D32",
"a. c #926833",
"s. c #9E7135",
"d. c #9C723A",
"f. c #97713D",
"g. c #A47435",
"h. c #AB7937",
"j. c #A4763A",
"k. c #AB7B3C",
"l. c #A87738",
"z. c #B27E3B",
"x. c #D47238",
"c. c #9B7749",
"v. c #8F734F",
"b. c #AC7E40",
"n. c #A47948",
"m. c #A77E54",
"M. c #867868",
"N. c #847C77",
"B. c #97726D",
"V. c #8B6262",
"C. c #D45850",
"Z. c #378B33",
"A. c #56942B",
"S. c #6D9622",
"D. c #728461",
"F. c #B5813E",
"G. c #BB843E",
"H. c #8D9C19",
"J. c #AD8343",
"K. c #A58149",
"L. c #B38443",
"P. c #B48A47",
"I. c #BB8A45",
"U. c #B68C48",
"Y. c #BA8C49",
"T. c #BB8642",
"R. c #BE914A",
"E. c #BE9047",
"W. c #AB895A",
"Q. c #B3905D",
"!. c #878676",
"~. c #93927B",
"^. c #8C8A75",
"/. c #B69767",
"(. c #AD906D",
"). c #B8A178",
"_. c #8FA07A",
"`. c #C18E4A",
"'. c #C2924C",
"]. c #CA954C",
"[. c #CD9A53",
"{. c #C79852",
"}. c #D29C54",
"|. c #D29A4F",
" X c #ED8346",
".X c #CBA359",
"XX c #DDAA5E",
"oX c #D7A65B",
"OX c #C3996D",
"+X c #D7AD64",
"@X c #DCB364",
"#X c #DAB36D",
"$X c #DAB666",
"%X c #C7AC79",
"&X c #DBB771",
"*X c #CDAC74",
"=X c #E1BA69",
"-X c #E2B566",
";X c #E0AD63",
":X c #EF933C",
">X c #374887",
",X c #696C92",
"<X c #4358A7",
"1X c #4F5D9D",
"2X c #928D84",
"3X c #999886",
"4X c #93938D",
"5X c #A29A8B",
"6X c #B79695",
"7X c #AE8E8B",
"8X c #9CA686",
"9X c #A5A68A",
"0X c #ABA898",
"qX c #B1AB9B",
"wX c #B6B795",
"eX c #B8ABA7",
"rX c #B9B5A8",
"tX c #AFAEA8",
"yX c #C79497",
"uX c #CAAF8D",
"iX c #E6BB86",
"pX c #D9A8AA",
"aX c #C5B5AB",
"sX c #D4B7AD",
"dX c #C6BBB5",
"fX c #D0B0AF",
"gX c #E7B8B9",
"hX c #E4ABB1",
"jX c #CD9FA1",
"kX c #C4C39C",
"lX c #C9CAA6",
"zX c #D7D5AC",
"xX c #C9C4B9",
"cX c #D5C6BC",
"vX c #D7D4AF",
"bX c #E5D1B7",
"nX c #E9D09D",
"mX c #E9BEC1",
"MX c #CBC9C4",
"NX c #D7CBC7",
"BX c #D5D3CB",
"VX c #DBD9D6",
"CX c #E9C9C8",
"ZX c #E6D8CA",
"AX c #EAD9D7",
"SX c #F2DAD8",
"DX c #F1CFCD",
"FX c #F6E0C9",
"GX c #F4E3DB",
"HX c #E8E2D0",
"JX c #EBE9E8",
"KX c #F5E8E7",
"LX c #F6F4F3",
"PX c #FAF8F8",
"IX c #F3F0ED",
"UX c #F8DFE0",
/* pixels */
"{..X.X.X+X&X&X&X&X$X#X#X#X&X&X#X#X#X+X#X#X#X&X#X#X+X#X&X&X#X&X#X#X&X#X#X&X#X&X#X+X+X#X#X#X+X+X.X+X+X*X+X#X#X#X+X+X*X+X#X#X#X{.v.",
".X.X{.R.R.U.U.U.U.U.U.R.U.U.U.U.U.P.U.U.U.U.U.U.P.U.U.U.U.U.U.U.U.U.U.U.U.U.U.Y.U.U.P.P.P.P.U.U.P.P.U.U.P.T.P.U.U.Y.Y.Y.b.b..Xv.",
".XU./.oX.X{.R.P.J.J.U.U.P.J.F.K.J.b.b.b.b.J.b.b.b.b.b.J.J.L.Y.I.Y.I.L.J.b.b.k.k.b.k.k.k.b.k.n.l.j.d.d.j.n.b.b.b.T.`.Y.b.b.b.+Xv.",
"+XR..X$X@X.X.X.X.X.X.X.X.XR..XR.{.{.{.'.R.U.U.U.U.U.Y.U.Y.U.Y.Y.Y.Y.Y.Y.Y.U.U.U.L.L.L.L.L.L.z.k.b.T.`.`.`.Y.T.Y.I.b.b.b.b.k.oXc.",
"+X$X$X@X@X@X-X@X;X-X-X-X@X-X-X-X-X-X-X@X@X@X@X+X+X+X@X@X$X=X=X=X=X=X=X$X@X+X@X+XXXoX+XoX}.[.[.{.'.'.`.L.L.b.b.T.L.b.L.Y.L.I.=Xc.",
".X=X=X=X=X=X@XXXXXXXoXoX.X}.}.}.oXoX;X;X;X;X;X+X@X=X=X=X=X=X=X=X=X=X=X=X=X=X-X@X+X+X@XXX+XXXoX}.}.}.[.}.}.}.}.XXXX-X$X=X=X=X&XK.",
"! ! / / ` ` ) ) ) ) ) ) ( / / / ( ( / ( / / ) 9.9.0.y.y.y.r.y.y.e.e.e.y.e.y.9.9._ _ 9.) ) ) ( ( ) / ^ ( ' ) ) ) ) ( ` ( / ! ! ~ ",
"L Q K / 9.9.9.9.9.0.0.r.9.9.0.0.r.y.0.0.e.0.r.0.r.e.9.9.9.0.0.9.9.0.9.9.9.0.r.9.9.9.q.9.9.0.9.9.9.9.9.9.0.9.r.9.9./ W L K K K T ",
"K I I ! ( ( / ( _ ) _ _ _ _ 9._ 9._ _ 9._ 9._ _ _ _ _ _ _ 9.9.9.9._ 9._ _ _ _ 9._ _ ) ) _ ) _ 9._ 9.9.9.9._ ^ / W T T K c c T ~ ",
"x ` e.t.b.J.b.k.k.k.'.[.[.[.[.[.[.[.[.[.[.{.[.{.].].[.[.[.[.}.}.}.}.[.{.'.{.'.'.'.[.[.[.{.'.'.'.'.[.[.[.[.].k.d.d.d.d.p.9.) ! ~ ",
"% % O % % % % % % % * a g g s * & g g g a s g a a a a * % & % * * a a & & * & f a a g A g a a & a a a & & % % & & & & & & & & * ",
"# % % % X O % + % % % & a g & & f g g g a a h h k C C g h h j j Z j j Z j Z T x x Z x x x x x l v j j j h g f j f f & % % O X $ ",
"f / ^ & % p ! ) ) / ^ ^ W I I W I / / ) ) _ ) ) ) / ^ ^ ) 9._ 9.9.9.9.9.9./ ( ( ) ) ) ) ) ) ) / ! W ! ^ / ) ) ) ) ^ k # & / / R ",
"k _ ) x % W ) / W a & & p p p p p f i k f k k j j k j j v x x x x x x k j j j j f a a f p f a g a p & p p a k L / ) / p I _ / T ",
"j ^ / / / ) ( T a # a h c Z c c c c c Z c K c Z T B z x v x v k v k x v v k k j k d v h k K j c l k l x f g f & K / ) ) ) ` K C ",
"v c / ) / ( ^ j % X @ O X O X O O O + * O   x a % #.7X7XdX7X6X7XxXdXaXMX7XaXMX6X~.V.7XdXMXjXB.5XyXNXB.B.5X2X  a f K ( _ ) K j R ",
"W j K ^ / ^ T g & @ 6 9 7 < 6 V 9 1 6 8 8   ! L i #.hXmXLXgXjXSXpXcXgX6X6XjXB.@.B.2XfXNXDXCXB.PXLXLXgXpXfXB.. g f T / _ ) x j ~ ",
"^ Z j ! / W x T k + ,.w.,.1 1.x.1.1 8 3.,.  ` L 3 ;.DXDXhXAXAXgXUXGXLXNXAXfXCXAXV.D yX%.PXKXDXgXKXGXSXCXUXeXR u.j x ! e.! j x ~ ",
"{.`.x W ! Z ! d.T 5 w. Xw.1 1.x.w.9 1.x.3.  { I w M.CX7XAXUXJXfXIXaXgXVXCXAXAXCXB.gXyXCXPXSXgXCXUXgXB.mXyX] ' '.W c W ( Q h ( R ",
"oXoX9.) ) ) L.Y.W & 3. Xw.6 1.x.w.9 w.x.1.  ) I w V.pXCXgXDXSXJXCXSXgXSXLXKX7X7XPXSXCXgXZXpXCXpX#.B.PXB.M.7X' {.{.U.9.) _ ( ` R ",
"oX-XXXoX}.}.XXoX~ 5 3.C.3.6 3. Xw.8 3.x.w.  ) I q %.sXhXgXmXgXPXCXDXPXIXaXdXjXJXUXUXLXpXGXfXSXgXCXKXLXPXjXdX' '.XXXX}.[.oXXXoXK.",
"l.g.h.g.g.t.e.) R 5 3.C.3.6 3.C.3.8 3.C.>.# ! I q #.sXgXsXKXIXAX6XpXKXUXUXB.PXSXPXLXUXmXgXjXJXKXpXyXPXB.mX6X_ ' 9.i.j.h.l.l.d.' ",
"p.h.h.g.h.g.g.g.u.5 1.C.1.6 3.C.1.9 3.C.,.I I L w ;.gXCXZXDXKXZXDXgXSXmXDXAXPXPXpXGXmXZXSXLXLXmXAXDXfXAXUXeXr.n.L.z.L.k.h.h.s.' ",
"p.h.h.h.h.h.h.h.v.5 8 3.8 < 8 3.8 1 >.3.8 u.` L # M.FXFXDXJXCXGXSXPXPXKX6XPXJXAXbXHXZXSXCXNXCXCXDXPXKXmXKXeXr.J.L.h.h.h.h.h.p.u.",
"g.h.g.g.s.s.F.U.d.Z q.3.^ D 1.q.q.S q.w.q.OX' z # M.ZXFXHXZXHXZXCXAXKXLXLXDXAXAXvXxXcXcXcXCXpXpXSXCXjXDXyX7X9.P.Y.g.s.g.g.h.g.u.",
"g.h.I I K L y.R.d.&./././.W./.).uX%X%XuX%X%X! I u M.HXVXAXrXlXBXPXPXfXdXIXKXPXPXPXPXPXLXIXCXgXCXgXcXbXsXgX6X( U.J.K K K ! l.j.u.",
"g.g.^ 0.t.i.r.U.f.K L L L u L L u u y y y y / I z ;.MXcXNX4XeXVXPXMXJXeXMXBXBXBXBXBXVXVXcXgXKXKXJXAXCXhXhXyX) L.J.! u.e.g.I.F.u.",
"g.p.! t.l.l.y.{.f.> K j K R l K T j T T x P / ! z 2XPXLXVXrXrXcXdX6XeXdXrXrXrXrXdXrXxXqX0X!.0XBXBXNXaX2XjX7X) P.F.! i.p.h.I.Y.' ",
"g.s.! e.g.p.i..Xf.E $.> $.N.> +.;.> :.-.J +.` ! z ;.AXPXPXBXMXtXeX!.!.2X5X4X~.~.2X3X5XtXrXMXtXqXfXfX5X5XgX7X^ L.b./ i.p.l.G.'.u.",
"h.g.Q T Q _ i.E.f.:.D.F =.8XJ =.8XE D.D.J D.` ! z N.BXxXVXVXMXrX0X5XD.-.2X2X4X2X4X4X;.rXtXrXVXtXD.!.!.gXyX7X/ T.J./ y._ g.F.Y.u.",
"g.G.].{.R..XU.R.f.J H = H Z.F H Z.F H H F H ] ! z N.PXLXPXJXxX0XtXrX!.!.4X4X2X2X2XD.=.#.-.3XBXJX4X6XaXpXgX7X` J.J.y.z.z.F.F.T.a.",
"g.h.^ ! ~ _ i.F.s.J Z.F H Z.F H Z.F H Z.F H { K z %.xXIXJXVXxXrXrXrXtX-.-.N.N.N.-.=.%.#.:.=.tXJXMX4XBXmXAXdX_ U.J.Q / ! / y.I.c.",
"h.g.! 9.e.e.i.F.d.G A.P A.S.G } A.G P A.P [ ` ! c M.qXJXPXPXIXJXVXxXrXxXqX-.-.-.=.=.@.$.$.-.0XMXJX0X-.D.rXtX_ P.P.Q r.0.9.) '.d.",
"h.h.) r.i.a.a.I.k.Y H.Y H.H.P } H.P } S.Y } ` ! c E rXVXJXJXLXPXBXrX0X9XBX-.-.-.%.%.#.%.=.!.D.xXVXMX-.!.3XtX_ P.P.Q t.e.9.) '.d.",
"z.h.! r.i.y.e.E.j.[ S.F P A.P [ S.} P A.F G ` I c A @.3XVXJXLXJXrX8X3X~.9X2X-.;.%.&.$.@.:.M.!.^.qXqXtX2X!.=.` P.P.W y.e._ _ '.d.",
"F.h./ r.s.p.e.R.j.P S.y Y S.F } H.P Y S.P P ` ! x C ] O.rXrX!.0X0X0XrX0XqXrXxXxXqXeX@.O.&.@.$.%.9X0XxXdX0X;.` L.P.R y.r._ _ `.n.",
"F.h./ 0.s.i.e.E.j.R { E E { E { [ R { { ] { ' Q l C @.#.=.~.^.M.rXBXBXcX0X~.0XrXcXxX3X:.@.] !.-.~.qXqXqX5X$.` L.U.W t.e.9.9.`.j.",
"F.h./ r.s.p.u.R.j.#.W.W.Q./.OX/.Q./.).%X%X*X] I l C %.#.=.qXBXrX;.^.3X0X0X2X=.!.rX0X^.~.$.=.qX9X5X0X0X0X3XO.` L.L.! e.r.) ) `.d.",
"z.z./ 0.s.i.u.R.l.g l l l z l l l l L L l l ( l Z Z @.E =.M.%.5X%.%.%.rXNXdXrX2X5X3X!.!.^.=.-.2XtXD.5X!.N.+.) J.P.Q t.r._ _ '.d.",
"F.k./ r.s.i.e.R.l.g v u v u v k v l v u z v ( l v ^ m.m.c.W.n.m.c.c.n.W.Q./.OX/.m.Q./.OXOX/.m.c.W.m.W.Q.n.v.) L.P.Q e.r.9._ '.l.",
"z.h./ 9.g.i.y.Y.l.+ < 1 < < < < < < < < 1 < / u y o 0 2 0 2 e e t t 0 0 e t t 2 w 3 @ 3 n m N t 2 4 u t d w ' J.P.W y.r.9.) `.s.",
"F.k.( 0.p.p.e.'.g.5 8 >.< 8 >.< 9 >.< 8 >.< / y y o 3 o o 2 2 0 3 0 2 3 3 o @ o o o X w m b n 4 2 0 2 0 2 w _ J.P.Q t.r.9._ `.p.",
"z.z./ 9.s.i.r.R.g.+ 8 5.7 >.,.1 8 5.< 8 2.1 ! y y !.HXlXlX!.=.=.!.%.=.9X9X9XvXvX& X @ 0 b 4 n tXtX3X9X9XwX^.` J.P.Q y.e.9._ T.n.",
"F.h./ t.g.l.u.'.z.+ 5.6.1 <.5.< >.2.1 5.4.7 ! y y v.zXlX3X~.=.=.=.wX9XvXlXvXvXvXkX    3 D V ] dXxXrX9X_.wX~.` P.P.~ r.e._ _ L.d.",
"G.h.` s.l.l.e.{.z.+ <.2.7 <.2.1 >.6.8 <.4.8 B y q v.lXlXwX~.!.$.3X9XzXzXbXzXlXzX&.X X n a.N 7.~.rXrX9X5XwX).{ U.P.! e.i._ _ I.j.",
"G.`.) k.F.k.i.'.z.5 2.2.1 2.2.1 >.6.7 <.2.7 ! y 0 v.uX).6XwX(.(.).).6XiX&XkXiX).X X + 3 n V U /.uX%XuXuXuX).` U.P.` a.s.9.0.R.d.",
"G.]._ h.F.F.a.E.h.+ <.2.1 <.<.< >.2.7 <.2.7 / y q 0 N 7.N N N N N 7.N U 8.7.8.n N N N M U 7.8.8.0.7.U U 7.B ' R.U.( i.l.e.a.R.a.",
"G.].t.s.F.l.s.'.g.o 7 8 < 8 >.< 7 5.1 8 >.1 _ y q 3 r 4 b r r 4 r r n n r r b b b m r n N N m m m m N m m t ' U.L.) s.h.i.d.].s.",
"G.].F.p.s.e.F.].g.g Z D V B S D D ^ S S S S _ y q 2 2 b b b r 2 3 3 3 3 2 r r 0 r b b b N M m b b b b b n e ] P.R.u.e.g.F.I.{.s.",
"h..XXXI.G.F.G.G.p.&././.(.W.(.%X*X%X%XuX%X%X_ q # w v ' #.{ ~ ~ B A A a C C A ] o 3 o 4 r r 0 ] v.W.W.W.W.v.C K.+XR.F.F.'.|.{.r.",
"^ I.@X@X@XoX|.F./ g z L L L z u l u y y u u / q # 0 B O.;.O.O.$.-.O.:.:.+.%.D.!.      X b b b (.vXFXFXFXFXuX$ ` R.@X@XoX|..XJ.K ",
"l t.`.oX@XoXF._ f = C k j A j j C j j C x k ! q w 4 ^ 9X8X9X0XuX9XwXlXlXwXwXlXzXX o X 3 N N b sXFXFXFXFXFXrX. & _ {.@X=X@X.Xu.L ",
"k L _ l.s.t.L g O ; | . ; | - | | - | | -   W q w 0 0.vXvXlXlXzXzXbXbXzXbXbXzXzX@ X X w m M b sXDXFXFXFXFXaX. $ f K d.R.F._ K g ",
"h K K x T j & % #  ...:  ...: ..o.; ....-   W q # 0 ) iXiXiXiXiXiXiX=XnXiX&X*XK.o X X # M n n OXiXiXiXiXiX/.$ % = & j T L T K j ",
"k K T j L k & % %  .o.; >Xo., ..>X; o.>X|   ! y w 0 M U 7.U U 7.U U U U M t e r e r r r n M N 7.U 7.7.U N B $ = # & h K h K T j ",
"f K K f j g % # % o.<X: <X<X .<X<X- <X>X|   ! q w 2 m m b b m m b m m m r m m m m m b b m m m m b m m b M e : % # # & K & K K C ",
"g K K & l f # % % o.<X; <X<X| <X<X .<X<X .  u w # 0 b m b b b b m m b m m b b m m m b m N m N U N N N N m e : = % = f j f K K h ",
"k K K f x g % % # o.,X .,X,XX.,X,X .1X,X .% l w # 0 b b b b b b m m b b b m m m N M m m U ,.N N N b b b m u . * % # f L f K T h ",
"f Q K f ! K & % & O.(.E L./.' m.(.+.K.[.X.Z B q 3 e N b b b n b m b r 4 2 4 4 b n t n M L N m n N b t w 2 e . * % & K ! & K Q j ",
"k / / j p.! p & p > *.; *.*.- ..>X; o.*.; &.u w # 3 t n r 4 e 4 r r 3 3 3 4 3 3 2 2 e e r e 2 r t 2 e e e # $ & % f ! p.L / / Z ",
"g ! 9.K s.W f & j  .*.X.*.*.+.*.*.+.*.*.+.).q w # o d i 5 5 i 5 5 i i i d i i i 5 5 d i i d d d i d v d d s > h & f Q s.K _ / K ",
"f ! _ x i.W g j h { /.Q.W.Q.OXQ.Q./.%X*X*X%Xw # # e I B v v v B B B A B B B B v h B v B B B B A B B B B B Z : g j g W i.C _ R j ",
"O C ( x ! W j j g * p q q k q q p q & s i w o # w o 5 s i s d s d i d d i i d d i d i 5 d d d i d t d d d v , g j j W ! K ` g $ ",
"$ > * C T Z C g > O O + O O + O O O O + * + d j v v B B B B S B B B U B D B B B B B B I U S U ^ U D ^ V ! Q $ $ h K K T C * > > "
};
