/* XPM */
static char *_9106_761cef3f1eef5f5a42dbb0d946c85422cbf46babff737f175fcda9d25b72f39a[] = {
/* columns rows colors chars-per-pixel */
"64 64 254 2 ",
"   c #190A06",
".  c #150D0B",
"X  c #1A1917",
"o  c #230C07",
"O  c #3A0902",
"+  c #2B1608",
"@  c #381806",
"#  c #241C16",
"$  c #1E201F",
"%  c #33240E",
"&  c #3D2308",
"*  c #2E2912",
"=  c #2C2419",
"-  c #352511",
";  c #3C2A13",
":  c #372A18",
">  c #36391A",
",  c #1E1727",
"<  c #1F1D36",
"1  c #251A2B",
"2  c #221D36",
"3  c #252423",
"4  c #2A2522",
"5  c #2D2729",
"6  c #342F2C",
"7  c #450904",
"8  c #450905",
"9  c #4B0A05",
"0  c #520907",
"q  c #530D0A",
"w  c #5B0E0C",
"e  c #481A05",
"r  c #541608",
"t  c #5C120D",
"y  c #4F1712",
"u  c #5B1311",
"i  c #600F0B",
"p  c #63130E",
"a  c #6A1714",
"s  c #771716",
"d  c #462508",
"f  c #452A09",
"g  c #572605",
"h  c #4D320A",
"j  c #54340D",
"k  c #4D2512",
"l  c #422E15",
"z  c #422D17",
"x  c #532713",
"c  c #453116",
"v  c #4A3415",
"b  c #453219",
"n  c #4B351A",
"m  c #4E381C",
"M  c #553417",
"N  c #543B14",
"B  c #593E16",
"V  c #543C1D",
"C  c #593F1C",
"Z  c #642C02",
"A  c #662D05",
"S  c #6B3203",
"D  c #6A3408",
"F  c #733807",
"G  c #732D16",
"H  c #66391D",
"J  c #4F3A2A",
"K  c #772D26",
"L  c #37441C",
"P  c #394C24",
"I  c #39762B",
"U  c #3C732C",
"Y  c #5A4117",
"T  c #5C421C",
"R  c #4E511A",
"E  c #62461E",
"W  c #6F401E",
"Q  c #64491E",
"!  c #764319",
"~  c #58671D",
"^  c #484D2D",
"/  c #5C4221",
"(  c #5C4629",
")  c #634621",
"_  c #664923",
"`  c #6B4C23",
"'  c #654B2B",
"]  c #714E25",
"[  c #6C5025",
"{  c #6F532B",
"}  c #735226",
"|  c #745429",
" . c #7A5629",
".. c #76592B",
"X. c #7D592A",
"o. c #735633",
"O. c #4E702D",
"+. c #6E6D23",
"@. c #1F2643",
"#. c #242947",
"$. c #2D344E",
"%. c #2E3868",
"&. c #443C46",
"*. c #38484D",
"=. c #384770",
"-. c #554C46",
";. c #66594A",
":. c #6D5450",
">. c #6C6455",
",. c #756A53",
"<. c #4E5571",
"1. c #526276",
"2. c #787767",
"3. c #75736F",
"4. c #851918",
"5. c #8C1B1A",
"6. c #961D1C",
"7. c #98231E",
"8. c #A1211F",
"9. c #892824",
"0. c #962926",
"q. c #963427",
"w. c #A62321",
"e. c #B82826",
"r. c #AA3B36",
"t. c #B53E3B",
"y. c #844917",
"u. c #864E15",
"i. c #835D2B",
"p. c #8B5D29",
"a. c #875D35",
"s. c #B44D31",
"d. c #B7463A",
"f. c #85602E",
"g. c #8A622E",
"h. c #95692F",
"j. c #876334",
"k. c #8C6431",
"l. c #946B32",
"z. c #936A34",
"x. c #9A6D33",
"c. c #9E7135",
"v. c #97703B",
"b. c #9C723A",
"n. c #A47435",
"m. c #AB7937",
"M. c #A67639",
"N. c #AB7B3C",
"B. c #B27E3B",
"V. c #CB6637",
"C. c #92764E",
"Z. c #A37A44",
"A. c #AC7E40",
"S. c #A67F54",
"D. c #92706A",
"F. c #857B78",
"G. c #CF5251",
"H. c #E16C4F",
"J. c #39842F",
"K. c #75861B",
"L. c #4C8A2D",
"P. c #669231",
"I. c #72A73C",
"U. c #708059",
"Y. c #7C896A",
"T. c #859219",
"R. c #97A61A",
"E. c #B4813E",
"W. c #BA843E",
"Q. c #A7A522",
"!. c #DCCE12",
"~. c #998F56",
"^. c #A48247",
"/. c #AD8343",
"(. c #B38443",
"). c #BA8642",
"_. c #B48A47",
"`. c #BB8A45",
"'. c #B68C48",
"]. c #BA8C49",
"[. c #BE9047",
"{. c #BE914A",
"}. c #AF8B5B",
"|. c #878677",
" X c #8D9279",
".X c #AE926C",
"XX c #B8996B",
"oX c #8FA779",
"OX c #BDA273",
"+X c #C18E4A",
"@X c #C2924C",
"#X c #CA954C",
"$X c #D29A4F",
"%X c #C99651",
"&X c #C59B53",
"*X c #CD9A53",
"=X c #D29C54",
"-X c #F08E42",
";X c #CBA359",
":X c #D9A85C",
">X c #F7A440",
",X c #C3996D",
"<X c #D8AD64",
"1X c #DCB364",
"2X c #D9B467",
"3X c #D6B26F",
"4X c #DAB46D",
"5X c #C3A777",
"6X c #E0AD63",
"7X c #E2B566",
"8X c #E1BA69",
"9X c #3A4985",
"0X c #3E5093",
"qX c #445395",
"wX c #4E718F",
"eX c #4A5DAB",
"rX c #506AB7",
"tX c #4F69C1",
"yX c #5C8CA4",
"uX c #64A4D0",
"iX c #989785",
"pX c #939088",
"aX c #A9978E",
"sX c #9EA38A",
"dX c #ADAD94",
"fX c #ABA898",
"gX c #B5AEA6",
"hX c #B9B7A9",
"jX c #CB979A",
"kX c #CBAF89",
"lX c #D4B887",
"zX c #E6BC87",
"xX c #CD9FA1",
"cX c #DAA9AB",
"vX c #CEB4AF",
"bX c #E6ABB3",
"nX c #E7B8BA",
"mX c #E9C491",
"MX c #CDCEA3",
"NX c #CAC5B8",
"BX c #D6D1B2",
"VX c #E4CEB8",
"CX c #EABEC0",
"ZX c #D5D0CA",
"AX c #E8C9C8",
"SX c #EED4D1",
"DX c #EBD8D8",
"FX c #F6E0C8",
"GX c #F5E6D6",
"HX c #F8DFE0",
"JX c #EAE7E6",
"KX c #F5E8E7",
"LX c #F3F0EE",
"PX c #FBF7F8",
/* pixels */
"&X;X;X;X<X3X4X4X4X4X3X3X4X4X4X4X4X3X4X4X4X4X4X4X4X3X4X4X3X4X4X3X3X3X4X4X4X4X4X4X<X<X3X<X3X<X<X;X<X<X<X5X<X3X3X3X<X<X3X<X3X3XXXC.",
";X;X{.&X{.'.'.'.'.{.'.'.'.'.'.'.'._._._.'._._._.'.'.'.'.'.].{.'.'.{.'.'.].'.'.'.'.`._.'.]._.'.`._.]._._.].`.].]._._.].).A.A.<Xz.",
";X'.&X;X;X&X{.(._._._.'._.^./.E.A.A.A.A.N.A.A./.A.A.E././.(.`.`.].].(./.A.A.A.A.A.Z.A.N.A.A.M.N.M.M.n.M.Z.N.(.A.'.+X`.(.A.(.;XC.",
"<X{.;X4X1X;X;X;X;X;X;X;X;X&X&X&X&X&X&X@X{.{.'.].'.'.'._._.].].`.{.'.].'.`.'.'.'.(.).A.(.(.A.A.A.A.`.+X].+X+XA.`.`.A.A.A.A.N.:XC.",
"<X2X1X:X1X8X7X1X6X7X7X7X1X7X7X7X7X7X7X1X1X1X1X1X<X2X1X1X2X8X8X8X8X8X8X8X1X1X1X<X<X:X<X:X=X%X*X%X@X@X@X(.(.A.A.).A.A.(.`.(.`.8XC.",
"<X4X8X8X8X8X7X1X:X:X:X:X=X=X=X:X:X:X6X6X:X6X6X:X7X1X8X8X8X8X8X8X7X8X8X8X4X8X8X1X:X<X6X:X<X:X<X=X=X*X*X=X=X=X=X:X<X1X8X8X8X8X4X^.",
"_ [ [ } ..|  . .X. . . .} ] ] } | ] | | } }  .i.i.f.k.g.k.k.k.g.g.k.g.g.g.g.i.i.i. .i. .i. .| | | ] ] | X. . .X.X.|  .| | } [ ' ",
"Y Q ) [ i.i.i.X.i.p.f.p.i.i.i.p.g.f.p.p.k.p.a.a.g.p.i.i.i.p.i.i.i.i.i.i.i.i.g.i.i.i.i.i.i.i.i.i.a.i.i.i.i.i.a.i.i.] _ C B C Y / ",
"C ) ) ] | | | X.X.| X. .X.X.i.i.i.X.X.i. .i.i. . .i. .i.i.i.i.i.i.X.i.X.X.X.X. .X. . . .|  .X.X.i.i.i.i.i.i.] } ` H E T C C / ' ",
"V  .k.z.A.A.A.A.N.N.@X*X*X*X*X%X*X*X*X*X%X%X%X*X%X%X%X*X*X*X*X=X=X=X*X%X@X+X@X%X%X%X%X*X%X%X@X%X@X%X*X*X*X@XN.b.v.v.v.v.i. .] ' ",
"- + + - : - - - - - : z b n ; ; z b b b z z b z b z z : - : : ; z z z ; z z z z z b n J b z z z z z z : : - - ; ; ; ; ; - : - ; ",
"- - % % = + + % - - - z z z ; z z c b b z b n n n n n n b n m m J m m V V C J V V V m M V N V V m m m M n n n v n c ; % % + # - ",
"n } ` ; - l `  .X.| ] ` ) _ E ) _ }  .X.X. . . .| ] ] } | i.i.X.i.i.i.i.i. . . . . . . . . .| } ` Q ` ] ]  . .X. .] c - z } } ( ",
"M X.X.m ; )  .] ) c ; ; ; z l l z z z c c b M n m m m m V V V V V N V m n n n b n z z b c z z b l z ; l z z v C }  . .l ` X.| J ",
"M ] |  .| |  ./ l - ; n C ) C C C C C V C V C C C C H / ) C / / C C J C C V V J V M V J C V V H C C C C m m c ; C  .X.|  .| B V ",
"V C ]  .} | ` N - o     . . . .   X # : 1 # # # # X . # # # # # # # # # 6 ^ -.J z 5 J -.-.-.: -.-.-.J J 5 ^   ; c H } X. .) m ( ",
"H m / ] ] ] C b * . @.6 #.$.*.$.y u s t 9 t p q 9 p p r 9 t a p   ) v d :.xX.X:.D.aXvXAXSXAXaXPXPXPXnXbXvXxX  b c /  .X. .V m ' ",
"] V m ` | ) V ( m X *.=.6 =.=.=.y 9.s.G 9 9.0.a q 9.V.a 9 s q.a . X.B z F.cXZXDXD.K aXD.PXHXCXnXHXHXHXAXHXAX/ j.n V ` i.` m V ' ",
"%X+XV ) ] C ] b./ 4 yX0X$.wXuXwXy r.>Xq.t s.-X9.u d.-Xq.w s.V.9.  { ) f D.DXSXCXD.nXaXSXPXHXnXAXHXCXD.CXxX:.X.{._ C _ | ) n | ( ",
"<X=Xf. . . .(._.^ $ wXwX#.wXuXwXq r.-Xq.t s.-Xq.u r.V.q.p d.V.K   { H ; F.KXaXaXPXSXAXnXAXcXAXcX:.D.PXD.D.vX..&X&X_.i. .X.{ | ' ",
":X7X6X=X*X=X:X=X' 5 yXqXP yXuXwX9 r.>X9.w d.H.q.p t.-Xr.p V.-XG   | Q f :.vXxXJXHXHXLXcXGXvXDXnXAXKXPXPXxXKX| &X:X:X:X=X:X:X<XC.",
"n.n.m.n.c.x.g.i.R 3 Y.T.$.Q.;XQ.a r.H.9.w d.G.0.p t.G.q.s t.G.a @ ` Q f D.D.PXKXPXPXHXCXnXjXKXKXxXjXPXD.CXAX .o.g.l.x.M.n.m.n.j.",
"x.M.m.m.m.m.c.n.j.3 yXU.$.yXuXyXu 0.G.K q t.G.9.w t.G.9.a t.G.s Q ` T d D.ZXPXPXxXKXCXSXHXLXLXCXHXSXvXDXHXAX .Z.E.E.E.N.M.m.x.X.",
"x.M.m.m.m.m.m.m.j.3 U.>.6 2.oX~.y q.t.s u q.t.a 0 0.r.s 0 r.t.s j.` N & ;.PXJXDXVXZXFXDXAXZXAXAXAXPXKXnXKXHXX.(.(.m.m.m.m.m.b.a.",
"n.m.n.n.n.c.E.`.x.6 <.*.$.<.1.<.u 9.0.s a 9.9.a u 9.9.G u K 9.K OX..B & |.SXDXDXZXNXNXBXVXCXcXcXDXAXjXAXjXnXX._.].n.c.n.n.m.n.j.",
"n.m.W E T T j.{.v.6 |.~..XOXOXXXXXkX5X5XOXOXOXXX.X5XlXlXlXlXlXlXlXo.Y d D.KXPXPXPXPXPXLXLXZXnXAXnXAXVXVXnXnX} _./.T T T ` m.M.a.",
"n.n.] g.k.l.f.[.v.6 Y T _ [ [ [ [ [ ] ` _ T _ / Q E E E Y Y Y T B [ Q B 3.ZXZXZXZXDXDXJXNXbXKXKXJXDXAXcXbXnX] _./.` g.g.n.`.N.j.",
"n.h.` h.m.m.j.&Xv.4 ; Y B Y Y Y V Y V N N Y Y T B B B B Y Y m T Y [ _ B >.hXhXhXhXhXhXfXfXpXfXZXZXZXvX XcXcX} _.^.} h.x.M.`.`.j.",
"n.x.` f.n.x.l.&Xv.4 O O O q 0 7 > J -.4 -.-.> >.>.: *.-.> >.-.L ^ ..` B :.iX X X XpXaXfXhXNXfXgXvXvXaXsXnXcX} _./.} z.x.M.).+Xj.",
"n.m.` / ' X.l.@Xv.4 u p 7 s s 7 P Y.Y.6 Y.Y.6 Y.sXP pXsXP  XiXP Y...Q V -.pXpXpXpXpX2.hXfXhXJXgX2.Y.|.nXjXbX[ _./.} a.X.n.E.+Xj.",
"n.W.+X*X&X&X{.@Xc.4 a s 7 5.6.9 > I I P J.U = I O.L I I L I I 3 L.o.` T -.pXpXpXpX|.2.>.wXaXZXJXaXfXhXcXnXcX} _.(.g.B.B.W.B._.z.",
"m.m.} Q ) X.l.N.c.5 a 5.7 w.w.9 > J.I P I J.> J.J.> I J.L I J.> I o.` H J F.F.F.3.2.,.;.;.2.gXJXNXpXZXCXSXLX} /._._ } ` | k.].v.",
"n.m.` i.k.g.z.W.b.6 s 7.p e.w.t L L.I L I J.; J.J.L I J.> I J.L U { ` B ;.F.F.F.2.2.;.>.>.Y.fXZXJXfXY.|.gXJX.._./._ g.f.i. .+Xb.",
"m.m.} f.h.l.k._.n.5 s w.w e.8.t ~ R.T.L T.R.R R.R.R K.R.R +.R.R K...` B 2.3.F.3.,.,.;.,.2.|.2.NXZXNX3.Y.pXJX| /._._ g.g.i. .@Xb.",
"B.B.} f.h.k.g.[.M.4 4.8.0 e.6.t R K.~ L ~ P.> O.K.L L.K.> U L.> O.{ Q B >.|.3.2.>.>.,.;.>.2.|.|.fXfXgXpX|.sX ./._._ k.g.X.X.@Xb.",
"B.m.} f.c.l.g.+XM.3 a 5.7 8.6.t ~ R.+.L K.T.> K.T.L K.R.Y ~ K.R ~  .` Y >.hXNXNXgXgX;.-.>.;.>.2.fXfXNXvXfXpX..(._.) k.g.X.X.{.M.",
"B.m.} p.c.x.f.{.M.= @ q 8 u p y L L.~ L R R > R ~ > R P > ^ ~ b R .._ B :. XfXhXNXZXiX;.;.;.|.2. XfXdXgXaXF.../.'.) g.g.i.X.@Xb.",
"W.m.| i.c.l.f.{.n.4 C.~.}.XXXXOX2XOX5X,XXXXX.XXX;XOXOXXXOX3XlXlXkXX.Q Y :.iXD.|.hXfX X X;.2.fXfXsXfXfXfXiX2.../.(.` k.g.X.X.@XM.",
"B.N.} p.c.x.f.{.M.3 : z N Y Y V Y Y Q Y E E E E Q E R Q E E Q E E ..Y N D.vXhX XaX X XF. X2.3.iXhX2.iX|.2.>.../._.' k.g.X.X.].M.",
"B.N.| i.c.x.j.{.n.= d z v N N j N N N Y N B B B B B B Y B B H B T | N N { .X,X.XA.XX}.,X,XXXS.Z.}.S.}.}.Z.}.../._.) k.p.X.i.].Z.",
"B.B.} a.c.x.i.+XM.3 o O 7 7 O 7 7 O 0 9 7 0 7 7 7 7 O 7 9 7 0 0 8 ..N j d g g e d @ O e A S F g e r g g g g .._._.) k.g.X. .+Xc.",
"B.m.} i.c.x.g.+XM.= q O s s 7 i s 7 s s 7 s s 9 4.s 7 s a 7 s 4.7 | j h & @ O @ @ @ + d S S D d d d d d d d ../.(.` k.g.i.X.@Xx.",
"B.N.| i.c.x.g.{.M.3 u O s 4.7 4.5.9 4.4.9 5.5.0 6.4.9 5.5.9 4.6.8 [ h h ,.dXBXBX; + + e Z r D dXgXoXdXdXdXdX{ _._.) j.g. .X.).Z.",
"W.M. .h.c.n.j.@Xm.1 u O 6.6.7 6.5.w 6.5.7 w.8.w w.4.9 6.6.0 w.w.r [ h h ,.BXBXBXMX    e K A o.vXvXgXoXsXdXMX[ _.]._ k.g.i.X._.b.",
"W.m...c.m.m.j.@X/.= q 8 8.5.0 6.6.i 8.5.7 e.8.w e.6.0 6.e.a e.w.t E h h D.BXMXMX,.o + D a.9. . XMXgXsXiXhXMX{ '._.' g.x. .i.].M.",
"W.+X .M.E.N.l.@XN.= u O 6.6.0 8.5.i w.5.0 e.8.q e.6.0 6.e.i e.8.t E h h ,.lXmXXX+ O + e Z ! ! .XkXkXkXlXlXmX..'._. .l.c.i.p.].b.",
"W.#XX.m.E.E.l.{.M.= w O 6.6.9 8.6.i 8.5.9 e.8.w e.6.7 8.e.w e.8.t ` h f Z y.u.S D F D D ! u.u.u.p.y.! F y.! o.{._.| l.M.g.l.{.k.",
"W.#Xl.c.E.m.c.@Xn.1 0 O i s 0 4.i 0 4.s 7 5.4.0 6.4.7 5.8.0 6.6.t  .j f & g Z Z S S Z A F F S S S D F D S F o.'.(. .c.m.l.c.#Xb.",
"W.#XE.x.n.g.E.#Xn.= + O q p 9 q t 8 r u @ q u y q u y t u y u a r ..h f @ r r d g g Z g S F A A Z A A A S Z o._.@Xf.g.n.N.`.#Xc.",
"m.;X1X`.E.E.W.W.z.= C.C.~.OXOXXXXX5X5XOXOXOXXXXX}.5XlXlX3XlXlXlXlXX.f f f J V ' e e e e Z g d o.C.S.}.}.}.,X> ^.<X{.N.E.#X;X#Xg.",
"} ).:X7X:X:X$XE.{ = v T / ` { { [ [ ` ` Q _ Q Q Q E Q Y E B C C Y ..f & J >.U.Y.    o @ Z Z A .XBXFXSXFXFXGXX | [.1X1X:X;X*X_./ ",
"N h.[.:X1X:XE.i.> X ; v V Y T V V Y V c N N N Y Y N Y Y N C C m B [ f & ,.hXMXMX+ + o e F F A lXVXFXFXFXFXGX. c i.&X1X7X6X;Xk.n ",
"n V i.M.c.h.E c + X . # * * = - $.#.#.< < @.o 2 @., #.#., #.#.,   T f & C.VXVXFXo + O d D F Z vXFXFXFXFXFXKX. * b T c.].E.f.T b ",
"n T / V T m ; % - # X P O.O.^ = $.%.%.< %.%., %.%., %.%.< %.#., . Y f d C.3X,X^.@ + + & A A A ,XzXmXzXzXzXmX$ - % ; V ) Y / T n ",
"v T / n T n - % - X # O.O.O.P = $.9X9X@.%.%.1 9X%.< =.%.< 9X%., . ` f & g g g g g g g g A D F ! ! y.y.! F 9.* * % ; b V n / / n ",
"c Y / c m c % - - X X O.P.I.R = $.tX0X#.eX9X1 rX9X2 eX0X1 tX9X,   | f & d S S Z S S Z S F S S S S S S Z F Z $ * % % c N > / / m ",
"z T T c N l * - ; X X O.O.I.P = *.tX0X#.tX9X#.tX0X#.tXqX2 rX9X#.  h f & d S Z S S S S S S S F y.F F F F S g X - - % c V c T T m ",
"b T T z V c % ; - X X O.P.I.R = *.rXqX#.rX0X2 rXqX$.tXqX$.eXqX#.@ h & & d S S S F F S S F F F S F S g Z S S X ; - % c V ; T / m ",
"b _ T c ` ) ; ; ; X # +.Q.!.R = -.XX}.$.|.D.' 6X}.a.}.}.&.XX}.#.( Y f @ e r e Z A g Z A ! F F Z S A g e e S $ ; - ; E } c / _ m ",
"c } } m x._ ; ; : X # O.K.P.^ : -.1.<.5 <.>.6 1.<.1 <.qX2 >.:.1 X.T f & @ e e e e e g x g g e g g g g g d e , : ; c ` h.m [ | V ",
"n } X.V c.) c ; v $ = ^ O.O.^ : -.0X=.1 =.=.1 =.%.1 <.%.2 =.=.6 XXf & @ @ k d k k y k k k k k k k x M x k k 5 b ; z _ x.V X.| m ",
"c ` i.V x.) c n > 3 ,.C.~.XXXXOX5X5XOXOXXXXX.XOX5X5XOXOXOXkXlXlXlXf & & x H H M m M M H H H ` H C H H H H H 3 b n n ) x.V i.` m ",
"# b | V ` ) m m v 3 ; f c T V Y T / T / C T ( / ) H V H / T ) ) h & & d @ k x x k k k k y x x y x A x x k D 3 b N m ( _ C | b 4 ",
"= 4 6 m J / V n 3 =       o       o     o o o o o o o . o   o + + & k c x H H H H H H ! K ] y.H ] H ] G W W 5 4 m V ( H m > 4 6 "
};
