/* XPM */
static char *_766_5a37afe767398da86df9ecc39dd11015527bbd188659d09cb0975d50343fc725[] = {
/* columns rows colors chars-per-pixel */
"64 64 245 2 ",
"   c #0B0403",
".  c #140402",
"X  c #170906",
"o  c #1B1012",
"O  c #1C1816",
"+  c #240A04",
"@  c #3D0803",
"#  c #2A1A0A",
"$  c #341C08",
"%  c #271C14",
"&  c #221D1B",
"*  c #33240E",
"=  c #3C2409",
"-  c #2D2912",
";  c #23211D",
":  c #2C2718",
">  c #342512",
",  c #342B17",
"<  c #3C2A14",
"1  c #36381A",
"2  c #1F172A",
"3  c #251A2B",
"4  c #231D36",
"5  c #1F2720",
"6  c #282723",
"7  c #2B3527",
"8  c #363927",
"9  c #292839",
"0  c #343231",
"q  c #430702",
"w  c #450A04",
"e  c #4B0A05",
"r  c #470D09",
"t  c #520A06",
"y  c #540C09",
"u  c #5B0E0B",
"i  c #4C110B",
"p  c #55120C",
"a  c #5C120D",
"s  c #5C1612",
"d  c #600E0B",
"f  c #65120E",
"g  c #6A1613",
"h  c #731413",
"j  c #7C1615",
"k  c #7A1B18",
"l  c #472D0B",
"z  c #4C320E",
"x  c #422E16",
"c  c #412F18",
"v  c #453116",
"b  c #4A3614",
"n  c #453219",
"m  c #4B351A",
"M  c #4F381B",
"N  c #513613",
"B  c #553B15",
"V  c #593E16",
"C  c #543C1D",
"Z  c #593F1C",
"A  c #79211B",
"S  c #4D3D2C",
"D  c #7C2420",
"F  c #37441C",
"G  c #384828",
"H  c #2A4738",
"J  c #39762B",
"K  c #3C732C",
"L  c #5A4117",
"P  c #5C421B",
"I  c #4F511B",
"U  c #61461E",
"Y  c #63491E",
"T  c #58671D",
"R  c #676E1B",
"E  c #414C23",
"W  c #5D4321",
"Q  c #584529",
"!  c #485727",
"~  c #4B4639",
"^  c #634621",
"/  c #654A22",
"(  c #6B4C24",
")  c #644F2D",
"_  c #704F25",
"`  c #6B5125",
"'  c #735126",
"]  c #7A5527",
"[  c #755329",
"{  c #7A5629",
"}  c #7E5A2A",
"|  c #7A5D33",
" . c #4A6528",
".. c #526F2F",
"X. c #726733",
"o. c #1F2643",
"O. c #242947",
"+. c #2E3146",
"@. c #2E344A",
"#. c #343545",
"$. c #353849",
"%. c #273057",
"&. c #343E53",
"*. c #2E3868",
"=. c #443C46",
"-. c #334F4C",
";. c #285648",
":. c #384456",
">. c #2F6755",
",. c #384965",
"<. c #3D526E",
"1. c #374478",
"2. c #3E5674",
"3. c #327A67",
"4. c #524E48",
"5. c #696057",
"6. c #48596B",
"7. c #435C79",
"8. c #515474",
"9. c #4D6579",
"0. c #67736C",
"q. c #831816",
"w. c #851918",
"e. c #8C1B1A",
"r. c #941D1C",
"t. c #9B1F1E",
"y. c #8A2B1E",
"u. c #9D211E",
"i. c #A2211F",
"p. c #892824",
"a. c #952A26",
"s. c #963427",
"d. c #A32120",
"f. c #AA2422",
"g. c #B72826",
"h. c #AA3B36",
"j. c #B53E3B",
"k. c #835D2B",
"l. c #895F2D",
"z. c #805E31",
"x. c #B44D31",
"c. c #B7463A",
"v. c #84612E",
"b. c #8A622E",
"n. c #92672F",
"m. c #846331",
"M. c #8C6531",
"N. c #8B6836",
"B. c #956B32",
"V. c #926A34",
"C. c #9A6D33",
"Z. c #9E7135",
"A. c #9B7139",
"S. c #A37435",
"D. c #AB7937",
"F. c #A67739",
"G. c #AC7B3B",
"H. c #B07E3C",
"J. c #CB6637",
"K. c #92784D",
"L. c #A67E41",
"P. c #AC7E40",
"I. c #A3615C",
"U. c #CF5251",
"Y. c #E16C4F",
"T. c #3A842F",
"R. c #75861B",
"E. c #4D8B2C",
"W. c #689234",
"Q. c #6A9838",
"!. c #71A43B",
"~. c #338672",
"^. c #648647",
"/. c #78896A",
"(. c #738972",
"). c #86911A",
"_. c #97A61A",
"`. c #B5823E",
"'. c #A7A828",
"]. c #C4BF3E",
"[. c #D5C613",
"{. c #929451",
"}. c #A68546",
"|. c #AD8343",
" X c #B38443",
".X c #BA8641",
"XX c #B38947",
"oX c #BB8A45",
"OX c #B68C48",
"+X c #BA8D49",
"@X c #BE9047",
"#X c #BE914A",
"$X c #AA8C5C",
"%X c #A4A951",
"&X c #8A9774",
"*X c #A78D61",
"=X c #AD9164",
"-X c #B39566",
";X c #B69A6B",
":X c #BA9C6D",
">X c #BA9E70",
",X c #8FA677",
"<X c #AFAE66",
"1X c #BDA273",
"2X c #BFA678",
"3X c #C28E49",
"4X c #C2924C",
"5X c #CA954C",
"6X c #D29A4F",
"7X c #C79852",
"8X c #CD9A53",
"9X c #D29C54",
"0X c #F08E42",
"qX c #CCA358",
"wX c #D9A75C",
"eX c #F7A440",
"rX c #DAAD61",
"tX c #D9B263",
"yX c #DBB666",
"uX c #C3A777",
"iX c #E0AD63",
"pX c #E2B566",
"aX c #E2BB6A",
"sX c #E7C46F",
"dX c #3A4985",
"fX c #3E5093",
"gX c #445395",
"hX c #486887",
"jX c #506E87",
"kX c #5D7D8A",
"lX c #4B6F94",
"zX c #4D7499",
"xX c #547995",
"cX c #4A5DAB",
"vX c #506DB3",
"bX c #4F69C1",
"nX c #648E9D",
"mX c #5587AC",
"MX c #73A8B7",
"NX c #5E9AC7",
"BX c #619ECB",
"VX c #65A5D1",
"CX c #99AC85",
"ZX c #CDB382",
"AX c #D5B886",
/* pixels */
"aXyXtXyXyXyXtXtXtXtXyXtXtXtXtXtXtXtXtXtXtXtXtXtXtXtXtXtXtXtXtXtXtXtXtXtXtXtXtXtXrXrXtXtXtXtXrXrXtXtXtXtXrXrXtXtXtXtXrXrXrXtX+X| ",
"pXqX7X7X#XOXOXOXOXOXOXOXOXOXOXXXOXOXOXOXOXXXOXOXXXOXOXXXOX+XOXOXOXXXOXOXOXOXOXXXXXXX+XOXOXXX+XoXXXXXXXXXXXXXOXOXOXOX3XH.XXP.rXz.",
"yXOX#XqXqX7X#X X}.|.XXOX}.`.G.}.|.L.P.P.|.P.P.|.P.G.P.|.P. X+XoX+X+X X|.|.P.L.G.P.P.L.P.P.P.L.F.P.A.L.A.P.P.P.P.+X+X+XP.P. XqXN.",
"sX#XqXyXtXqXqXqXqXqXqXqXqX7X7X7X7X7X7X4X#XOXOX+XOXOXOXXXOXOX+XoX+X+XOXoXOXoXOX X+XP.P.P. XP.P.P.H.oX+X3X3X3XP.+X+XP.P.P.P.P.qXK.",
"sXtXtXtXtXpXyXpXpXpXpXiXtXpXpXpXaXpXpXiXyXrXrXrXtXtXtXyXaXaXaXaXaXaXaXpXyXtXtXrXrXwXrXwX8X8X8X8X3X4X3X.XP.P. XoX XP. X+X X+XpXK.",
"sXyXaXaXaXaXpXrXwXwXwXwX9X9X9XwX9XrXiXiXiXrXiXiXpXyXaXpXaXaXaXpXpXaXaXpXaXaXaXrXwXwXrXiXiXiX9X9X9X8X8X9X9X9X9X9XrXtXaXyXaXaXaX}.",
"[ ( ' ' { { { { ] ] ] ] ' _ _ [ [ [ _ [ _ [ ] k.z.l.M.l.b.b.M.b.M.M.b.M.M.l.l.z.k.k.] k.{ { [ [ [ [ [ _ z.{ } } ] { { { ' _ _ W ",
"W / ^ ( k.k.} k.k.l.l.l.k.k.k.l.l.l.l.l.l.l.l.k.b.l.k.k.k.k.k.l.k.k.k.k.k.l.k.k.k.k.k.k.k.z.k.z.z.z.k.k.l.k.k.k.] [ / Z C Z P P ",
"^ ^ ^ ( [ [ [ } } ] } } } } } z.k.k.} } z.k.k.] } { z.{ } k.k.k.} } k.} | { z.z.{ z.[ ] z.[ k.z.k.z.k.k.k.] ' [ ( ^ W Z Z Z ^ ^ ",
"Z { b.V.P.P.P.P.L.G.3X8X8X8X8X8X8X8X8X8X8X5X8X8X8X8X8X8X8X8X8X9X9X9X8X7X4X7X3X4X4X8X8X8X5X5X3X3X4X5X8X8X8X4XG.A.A.A.A.C.z.] [ M ",
"> # % > > > > > > > < x c n < < x c n n c c c c c c c < > , , < c c c < < c c c c m m m m c x x c c c < < > > < > < < < < > > < ",
"> > * > $ % # > > > > x c c < c n n v n c c n m m m m m m m m C M M M C C C C C C M M M C M C M M M M M m M n m m n < * # % # # ",
"M ] ( < > < ( ] ] [ _ _ Z ( Z ( ^ _ ' ] ] k.] k.[ ' _ ' ] k.} } z.k.l.k.k.] { { k.[ k.[ k._ [ _ ( ^ ( _ ' ] { { ] _ m > x ' _ m ",
"C ] } M < U ] [ ^ v < < x v x x x x x m v c m M m m m M C C C C C C C m m n M m v c x v x x x m x x x x v < b P _ ] [ c ( k.[ M ",
"C _ ] [ [ ] { W x < c m Z Z Z Z Z Z Z Z C Z Z Z Z Z Z Z P Z P P Z Z Z C Z C C C C C Z M C C C Z Z Z C B C C x < Z ] ] ] { ] C M ",
"C Z _ [ [ [ ( M > + X   X X o X o o & , 3 & & & & o o % 6 ; O O & & & & o % o + o o % % % % % % % % > % o X . n x P [ { { ^ M C ",
"^ m Z [ [ [ C m ,   9 +.+.9 +.+.@.9 @.&.&.+.:.,.,.9 @.@.@.9 +.+.@.9 %.&.&.i f k a e a a p e f g a e u g g   o 1 b P { { { M M / ",
"[ Z M _ [ Z S Z m O @.,.2.+.<.2.2.@.,.2.,.O.2.2.2.@.:.<.2.@.<.dX7.+.,.2.:.i y.x.A y p.p.g y y.D.k t k s.g   ) N.M C ( k._ M C Q ",
"wX4XC ^ _ Z _ A.P 5 :.mXlX@.hXNXlX+.hXNXzX@.lXNXzX@.9.mXlX@.hXBXlX+.hXNXzXp h.eXs.a x.0Xa.u c.0Xs.p h.J.p.  N.#X/ P / [ / m ' C ",
"aX9Xz.{ { z.P.oXW 5 ,.mXhXO.hXVXlX+.lXVXzX@.zXBXzX+.hXNXhX@.hXVXlX+.zXVXzXp h.0Xs.u x.0Xa.a j.J.s.g c.J.D X | 7X7X Xk.{ } [ { Q ",
"aXiXiX9X8X9XiX6X/ 6 :.mXhX@.jXVXzX@.nXVXzX&.lXBXxX@.6.mXjX#.kXVXlX@.xXVXxXp j.eXy.u c.Y.a.g c.0Xh.g J.0Xh X | 4XwXwXqX6XwXwXtXK.",
"P.S.D.S.Z.C.l.k.Q ; X.{.{.4./.,X%X0 '.].%X4.{.<X{.:.{.%X{.:./.,X{.S '.].{.g h.Y.p.a j.Y.p.f j.U.a.g h.U.h $ m.| b.B.S.S.S.F.S.] ",
"D.D.D.D.D.D.C.S.M.6 :.mXlX:.kXMX(.9 xXMXnX+.mXMX(.:.6.MXxX&.kXMX/.#.xXVXkXp a.U.D u j.U.p.u h.U.p.h j.U.k Q N.L.`.`.`.`.D.D.C._ ",
"S.D.D.D.D.D.D.D.N.9 G (.{.+./.,X/.#.0.,X{.-././.&X0 4.nX{.#./.,X/.$./.,X&Xp a.j.k s s.h.g y a.h.A y h.j.g N.N.XX`.D.D.D.D.D.C.' ",
"D.D.S.S.S.Z.`.oXC.0 9 7.7.$.9.7.6.$.9.9.6.#.xXxX9.$.4.hX9.:.9.jX6.$.7.9.6.s a.s.k f p.p.g s p.p.k s p.p.D >XN. X+XS.Z.S.D.D.S.] ",
"H.D.( Z C P M.#XA.8 ) K.K.K.*X*X$X*X*X*X=X$X$X-X:X1X1X1X1X:X2X1X:X-X1XuX;X:XuXuXuX1X>X:X;X-XuXZXAXZXAXAXAXAXN.XX|.W P P / G.D.] ",
"D.S._ l.n.B.| #XA.7 * = z B Y Y Y ( Y P P P P P P P P P U Y Y ( Y Y ( _ ` ` ( ( ( Y / ^ Y Y Y Y / P L L L L k.XX}.( b.b.S..XG.] ",
"D.B._ n.D.D.N.7XA.; # $ l z B P V V V V V V P V L V V P P P P P U L U V V V V V B B V B L P B L V V L V L L z.XX`.` B.B.D.oXoX{ ",
"H.Z.( k.Z.Z.B.7XA.6 + @ q r w @ e e @ q w q y e q e e q w w @ w e @ e y r 1 4.0 : 4.4., 5.5.: 4.4., 5.4.1 ~ | XXP.' n.C.D..X3X{ ",
"D.D.( W ) } B.4XV.6 y d @ j h q j j q f h w j h w j j e j j q h h q j j q 1 &X&XG &X/.7 &XCXG &XCXG &XCXG /.l.|.|.[ b.k.Z.`.4Xk.",
"H..X4X7X7X7X+X4XA.6 f f @ w.q.q w.w.q w.e.e w.w.e q.e.y e.w.e e.e.e e.u.w 1 K K F J K 7 K ..7 T.J G K K 1 T.| |.XXb.H.H.`.`..Xb.",
"D.D.[ ( ^ } V.H.Z.6 k h q u.j w f.r.q r.e.a t.w.w f.i.u f.e.e r.u.e f.i.i 7 T.J F K J 7 T.T.F J J F J J 1 T.N.XX|./ ' / ] b.3XB.",
"D.D.( k.n.b.B.`.C.0 w.h e f.q.e f.e.e i.e.u i.e.e g.t.u f.r.t u.g.g g.i.d F E.J F T.J 1 T.E.- J E.F J T.1 J b.`.}.` b.v.v.] 3XC.",
"`.D.' v.n.n.N.oXS.0 k k t g.q.e f.r.t i.e.h i.e.t g.i.u g.u.t u.g.u g.i.d T _.).I R._.I _._.L )._.I T _.I R.b.`.XX/ M.b.k.] @XZ.",
"`.`._ k.n.M.b.+XS.6 h h e f.e.q i.r.e i.u.d i.e.e g.i.t g.t.w u.g.u g.i.p I R.T 1 ..R.1 T E.I E.E.F T T.<  .m.|.XX/ M.b.} } 3XS.",
"`.G.' b.Z.C.b.4XF.6 y t @ r.h @ f j q q.h e w.h q r.j t t.e.q e.i.t i.r.p T _.R.F R.).1 R.R.F R._.I R.R.E R |  XXXW M.b.} } 3XZ.",
".XH.' l.Z.C.b.@XF.& @ @ @ p p i a f r p a r p p w r a r y a i a s r s f p F R ..1 I I 1 I I 1 ! I - ! T n ! | |.XX/ n.v.} } 3XS.",
".XH.' k.Z.B.m.@XF.6 S K.$X=X=X=X-X-X-X:X:X-X:X:X:X:X;X:X:X:X;X;X-X;X;X;X1XuXuX2X1X:X;X-X:XuXuX>X-X<XZXaXAXuXN.|.XXY b.b.k.] 3XZ.",
"`.G.' l.Z.C.m.3XS.; # l L Y / P / ( Y U P P L L L L L P P Y P L L L L L L P Y Y P P Y P / / P P U Y U Y / Y z.|.XX/ n.v.} } 3XZ.",
"3XD.' k.Z.C.m.4XS.& # = b C B I V V L P P L P P P P L P L V B B B N z L L z z L B V V V V V V V V V V L U V v.|.XX/ n.b.} } 3XZ.",
"`.H.[ l.C.C.b.+XF.6 4 +.+.9 O.@.@.9 @.&.&.+.:.,.6.0 X q w @ q w @ w e @ q w @ y e @ y w q w w @ w e q e y r | |.XX^ M.b.k.] 4XS.",
"`.D._ l.S.B.m.3XS.6 +.:.<.+.<.2.2.@.,.2.,.+.<.7.7.0   f h q j h w k j @ f h q j j q j j e j j q h h q j j e z.|.XX( M.l.] k.3XZ.",
".XG.] k.Z.Z.b.#XZ.; ;.lXhX@.hXNXlX#.hXNXzX@.lXNXzX9 . j j @ w.w.q q.w.w q.e.e q.q.e q.e.t r.w.e e.e.e e.r.r | |.XX^ M.b.} k..XC.",
"3XD.[ n.Z.S.b.4XF.2 ,.mX2.@.hXVXlX@.lXVXzX@.zXBXzX9 . t.w.w i.j w f.r.q r.r.d t.e.w f.i.u f.e.e r.u.e f.d.y | XXOX^ M.b.k.]  XC.",
"3XG.{ S.S.S.N.4X`.; -.zX7.@.jXBXzX$.mXNXxX:.xXBXzXS X d.e.t f.q.e g.e.e i.e.d d.e.w g.d.u g.r.t u.g.g g.f.a | +XXX/ b.B.] } oXC.",
"3X@X[ D.`.`.B.4X`.; ) {.^.4./.,X%X0 '.].{.4.{.<X{.~ $ d.e.p g.e.e d.r.t t.r.f i.e.y g.i.t g.t.t u.g.u g.d.u z.+XXX{ B.Z.k.b.oXC.",
"3X5X} G.`.`.B.4XG.; -.xXjX4.nXMX0.0 nXMXnX@.xXMX(.#.U u.e.t i.w.q i.r.t d.r.d i.e.e g.i.t g.t.q i.g.u g.u.a | OXOX{ B.F.b.B.@Xn.",
"3X5XB.Z.D.D.Z.4XS.O ~ 0./.@./.,X/.$.0.,X{.+.(.,X&X0 | h u q r.h @ f h q q.h e e.h q r.j t t.e.q e.i.e i.r.a | OXXX{ Z.D.B.A.5XZ.",
".X5X`.C.S.b.`.5XS.% 9 6.2.@.9.jX6.$.8.9.6.$.lXxX9.$.:Xs w r a p r a a r p a r p p r i a i y f y a f i a g s X.XX4Xm.b.S.G.@X5XZ.",
"`.6XtX.X`.`.3X`.B.; Q X.K.K.K.*X*X$X=X=X=X*X*X;X:XuXuXuX1X1X1X1X;X-X:XuX;X;X2X2X1X1X:X:X:X=XuXAXZXZXAXAXAXuX~ F.wX#X`.`.5X8X5Xm.",
"_ oXwXpXtXwX6XD.] & # = l B Y Y Y ^ U V P P P L L U L U Y Y Y ( / Y ` ` ` ( ` ` / ` Y Y Y Y U U Y U Y L L L 7 [ #XtXrXwX9X8XXXP ",
"m B.@XwXtXwX`.k.v O # $ = z V V V P V V L V P L L L V L L P L L P P L L P C L B B B V B B V C M B B V L V V O v v.7XyXpXtXqXM.m ",
"n L k.S.S.n.P m O O H H 7 H ;.8 -.;.1 >.>.7 , 1 > * % , , > : % > - > : : @.%.o.2 o.o.o o.o.2 o.O.& %.o.2   3 # v U Z.+X`.| P v ",
"n P W C U M x * - 5 ;.;.7 3.3.7 3.3.7 3.~.7 E  . .F : E  .! ! :  .....! , %.*.*.4 %.*.O *.%.2 *.%.2 *.%.2   6 * * < C Q P P L n ",
"n W W m C m * * - O ;.;.: 3.3.7 ~.3.7 ~.~.7 E ....E , ......! , E.....E : @.dXdXO.*.*.2 dX*.4 *.*.2 dX*.2   6 > * > n L b Q P n ",
"m P P 1 C v * * - O ;.>.7 3.>.: 3.3.7 ~.~., E Q.W. .: ..!.W.! : ^.Q.!.! : %.vXfXO.cXdX2 bXfX4 bXgX4 vXdX4   & : * * v M v P W m ",
"n W P v C x * > > O ;.;.5 3.>.7 3.>.8 ~.~.: ! !.Q...6 ..Q.W.! : ^.^.Q.E : :.vXfX%.vXdXo.bXdXO.bXgX4 bXdXo.X & > > * v B v P C n ",
"n P W x C x * * - O ;.;.5 >.>.: >.>.8 3.>.: ! !.!..., ..!.!.! : ^.!.!.E > :.vXgX%.bXfXo.vXgX@.bXcX%.cXdXO.$ & > > * v C x P W m ",
"m / P x _ U < < < O 7 H - H ;.: H -., >.;.: T [.[.).- R '.[.X., !.[.[.I , 4.;X$X=.I.I.Q wX+Xz.#XP.=.-X3XO.Z & > > < U _ n W / m ",
"m ' _ M C./ x < < O 5 5 % 7 H : 7 H : H H : ! Q.Q.X.> R Q.Q.T , W.W.W.I , 4.8.8.9 8.0.6 0.8.3 gXgXO.0.5.4 z.& c x v Y C.M ` ' m ",
"M _ } C C./ x x m & 6 7 ; 8 G 7 0 G 7 0 G 8 !  ....., ! .. .! , ......E 1 -.gX&.3 1.8.4 1.*.3 1.*.9 1.*.9 ;X7 n < x / Z.C } ' m ",
"n ( k.C B.) n m n & E | K.=X=X=X-X-X;X;X1X-X1X:X:X:X;XuX1X:X>X;X:X:X:X:XuXuXuXuX>X:X-X=X>XuXuX>X:X:XAXAXAXZX6 n m v / B.C k.( n ",
"; m { C ( ^ M M n 6 + $ l z z N N B B N C N z z z N z N B V V C N B V C C V ^ P V P P U U ^ Z V V P U U P B 6 n C M ^ ( C [ n ; ",
"; ; 6 n C C M n & O + + + + . . . . . . . . . . . . . . . . . . . . . . . . . . . + . . . X + . . . . + + + O ; n M C S m , ; ; "
};
