/* XPM */
static char *_013_5873a09a300d138b54187eba532f319fe5b0aba0cb1faeb625380beca6d11d3e[] = {
/* columns rows colors chars-per-pixel */
"64 64 250 2 ",
"   c #1C0B01",
".  c #1A1A1A",
"X  c #0D0704",
"o  c #2C1305",
"O  c #291709",
"+  c #381704",
"@  c #331509",
"#  c #33240E",
"$  c #3E220D",
"%  c #2D241B",
"&  c #352511",
"*  c #3C2A13",
"=  c #3A2717",
"-  c #2D200E",
";  c #2D2924",
":  c #451B02",
">  c #4B1C02",
",  c #461701",
"<  c #541E00",
"1  c #591E02",
"2  c #421E13",
"3  c #4B2204",
"4  c #47250A",
"5  c #542304",
"6  c #5B2502",
"7  c #5C2A05",
"8  c #56290A",
"9  c #442113",
"0  c #4C2413",
"q  c #422E16",
"w  c #422F19",
"e  c #4A2A1C",
"r  c #532815",
"t  c #453116",
"y  c #4B3417",
"u  c #453219",
"i  c #4B351A",
"p  c #4E381C",
"a  c #5B321D",
"s  c #533B1C",
"d  c #56391A",
"f  c #642C02",
"g  c #692E03",
"h  c #642C08",
"j  c #6B3203",
"k  c #6C3309",
"l  c #673307",
"z  c #723506",
"x  c #733B0B",
"c  c #753908",
"v  c #65391E",
"b  c #6B3C1D",
"n  c #64361A",
"m  c #753E14",
"M  c #662D11",
"N  c #563B23",
"B  c #47382A",
"V  c #6C3A26",
"C  c #5B411E",
"Z  c #65441F",
"A  c #7C4313",
"S  c #76431B",
"D  c #77430B",
"F  c #5C4221",
"G  c #5D4729",
"H  c #5B4B3C",
"J  c #4A453D",
"K  c #634622",
"L  c #664923",
"P  c #6B4C24",
"I  c #66492A",
"U  c #704F25",
"Y  c #784722",
"T  c #745226",
"R  c #755329",
"E  c #7A5629",
"W  c #7D5A2A",
"Q  c #77592C",
"!  c #765A35",
"~  c #694B35",
"^  c #7F6336",
"/  c #5A5447",
"(  c #534E44",
")  c #665848",
"_  c #6E574B",
"`  c #696557",
"'  c #746A5A",
"]  c #756D59",
"[  c #746E61",
"{  c #797666",
"}  c #7D7874",
"|  c #844A17",
" . c #884F12",
".. c #835D2B",
"X. c #885827",
"o. c #885931",
"O. c #8A622E",
"+. c #85602E",
"@. c #94682F",
"#. c #866331",
"$. c #8C6431",
"%. c #896538",
"&. c #956B33",
"*. c #9A6D32",
"=. c #936935",
"-. c #9E7135",
";. c #9C723A",
":. c #97713D",
">. c #A47435",
",. c #A87635",
"<. c #AB7937",
"1. c #A4763A",
"2. c #AB7B3C",
"3. c #A7793D",
"4. c #B27E3B",
"5. c #9A7649",
"6. c #8D6D49",
"7. c #AC7E40",
"8. c #A37949",
"9. c #A77E54",
"0. c #807B6A",
"q. c #96746A",
"w. c #827D76",
"e. c #99726F",
"r. c #966B6A",
"t. c #7F806E",
"y. c #B5813E",
"u. c #BB843E",
"i. c #AD8343",
"p. c #A58149",
"a. c #B38443",
"s. c #B48A47",
"d. c #BB8A45",
"f. c #B68C48",
"g. c #BA8C49",
"h. c #BB8642",
"j. c #BE914A",
"k. c #BE9047",
"l. c #AC8557",
"z. c #B2895B",
"x. c #BD9659",
"c. c #86836F",
"v. c #848373",
"b. c #8A8878",
"n. c #958A7B",
"m. c #93927B",
"M. c #918D72",
"N. c #B99265",
"B. c #AC8F70",
"V. c #B5A17B",
"C. c #C18E4A",
"Z. c #C2924C",
"A. c #CA954C",
"S. c #CB9752",
"D. c #C59B53",
"F. c #CD9A53",
"G. c #C49550",
"H. c #D29C54",
"J. c #D29A4F",
"K. c #CBA359",
"L. c #DDAA5E",
"P. c #D7A65B",
"I. c #C3996D",
"U. c #D4AC63",
"Y. c #DAAE65",
"T. c #DCB364",
"R. c #DAB36D",
"E. c #DAB666",
"W. c #DBB772",
"Q. c #D3A873",
"!. c #E1BA69",
"~. c #E2B566",
"^. c #E0AD63",
"/. c #938E85",
"(. c #9A9886",
"). c #95948E",
"_. c #B68A8A",
"`. c #A49A8B",
"'. c #B79795",
"]. c #AB928D",
"[. c #A5A78A",
"{. c #AEAA9B",
"}. c #A9A696",
"|. c #B1AA9B",
" X c #B8B898",
".X c #AFB490",
"XX c #B7ACA6",
"oX c #B4B2A3",
"OX c #BCBAAB",
"+X c #BAB5A8",
"@X c #AFAEA8",
"#X c #9FA389",
"$X c #C79798",
"%X c #C98C95",
"&X c #C4AC85",
"*X c #CEB48F",
"=X c #E6BB86",
"-X c #C5A8A8",
";X c #D9A8AA",
":X c #C4B6AC",
">X c #D4B7AD",
",X c #C4BDB3",
"<X c #C9B9B5",
"1X c #DAB8B6",
"2X c #D9AEB1",
"3X c #E6B8B9",
"4X c #E5ABB1",
"5X c #CD9FA1",
"6X c #BDC29A",
"7X c #BFC1A1",
"8X c #C4C39C",
"9X c #E8C18D",
"0X c #C9C8A8",
"qX c #D2CEA6",
"wX c #D8D5AB",
"eX c #CAC4BB",
"rX c #C9C5B6",
"tX c #D5C7BA",
"yX c #DAD6B7",
"uX c #CDD2AB",
"iX c #E5DDAF",
"pX c #E5DDBA",
"aX c #E4C3BD",
"sX c #E8E4B6",
"dX c #E7BEC1",
"fX c #CCCAC3",
"gX c #D6CBC5",
"hX c #D8D4C9",
"jX c #DCD9D5",
"kX c #E8C8C8",
"lX c #E5D9C8",
"zX c #F3D9C8",
"xX c #E9D9D7",
"cX c #F2DBD7",
"vX c #F0CCCF",
"bX c #EBE1C9",
"nX c #F4E0CA",
"mX c #F5E0C7",
"MX c #EBE0D4",
"NX c #E7E2DB",
"BX c #F3E2D7",
"VX c #F8DFE0",
"CX c #EBE8E6",
"ZX c #F3E3E3",
"AX c #F3ECEA",
"SX c #F6EAE8",
"DX c #F4F4F3",
"FX c #FAFAFB",
"GX c #F9F6F6",
"HX c #F3F0EE",
/* pixels */
"D.U.D.K.U.W.W.W.W.E.E.W.W.W.E.W.R.Y.R.R.R.R.W.R.R.R.R.R.W.R.W.R.R.R.R.R.R.R.W.R.Y.Y.R.R.R.U.U.U.U.U.Q.U.Q.R.R.Y.U.R.Q.Y.R.R.x.5.",
"K.K.D.x.j.f.f.f.f.f.f.f.f.f.f.f.f.f.s.f.s.s.s.f.f.s.f.f.f.f.f.f.f.f.f.f.f.f.f.f.f.g.s.s.f.f.g.s.a.s.f.f.g.a.f.f.f.s.g.d.a.7.K.6.",
"K.g.D.K.K.D.j.a.s.i.s.f.i.y.y.y.7.7.7.i.i.7.7.7.7.2.7.i.a.a.g.d.g.g.a.a.a.i.7.7.3.3.7.2.7.2.3.3.3.;.;.1.7.7.a.7.g.g.d.a.i.i.U.6.",
"U.f.K.T.U.P.K.K.K.K.K.K.K.D.x.x.D.D.D.G.j.j.f.f.f.g.g.s.g.g.g.d.g.g.g.f.s.s.s.s.a.a.a.s.a.7.7.4.4.h.C.C.C.C.7.d.h.7.7.7.2.i.P.5.",
"U.E.T.T.T.T.T.T.~.^.~.~.T.~.~.~.~.~.~.^.T.T.T.T.E.U.T.T.!.!.!.!.!.!.!.~.T.T.U.T.U.P.Y.P.K.S.F.S.G.Z.G.a.7.7.a.a.y.a.a.f.s.s.!.5.",
"U.!.!.!.!.E.~.T.L.L.P.P.K.J.H.P.P.P.^.L.Y.^.Y.^.T.!.!.!.!.!.!.!.!.!.!.!.~.!.~.T.L.Y.L.L.L.L.P.H.H.S.F.F.H.H.H.P.P.T.E.!.!.!.W.p.",
"P P U T W E Q E E E E E T T U T R R U R U T W ....O.$...O.O.$.$.O.O.$.$...$.........E E W E E R E R U R W W E W E Q R R T U P L ",
"C Z C T ..W ......X...+.+...X.X.O.$.X.O.O.X.....O.............X.............O.............o.............o.......W T Z C C C C F ",
"N K L U R R R Q W E W W W W W ....W W ..W ..W W W W W W W ..W ......E ..W W W W W E E E E E W E ..........W P T P F C C C s K I ",
"d R O.$.7.7.7.i.3.y.A.F.S.S.F.S.F.F.F.F.S.S.S.S.S.F.F.F.F.F.H.H.H.H.S.S.Z.G.Z.G.G.S.S.S.G.Z.G.G.G.S.S.S.S.A.2.1.;.;.;.;...E T G ",
"& @ - & & & & & & & & w u i * * * u u u w w w w w w * = & = & * = w w * w * w w w w i N u u t * w * q * = = & * * * & & & & & * ",
"& & - & - - @ # & & & * w u = w t t u t w w i i i i p u i p p p N i s N s N s s s N d i s s s s s p p p p t t p t t t # - - - & ",
"y T P * & q P E E T U U K L Z Z Z T T E E E E E R U U U E ..W W W ......E E Q T E R E E W E T T P Z P T T E E W E U t & w R R G ",
"s W E s & Z E T Z t * * * q q * q t t y y t d d i s p p d C s C s s s p d p p p y t t t t * t y q q * * q q y s T W T q L W R N ",
"d R E T T E T Z q # * t y d d s d d d y y d d d d d d d d d d N d d p d d d y i y t p y d s p s d y d s y y y & d E E E E Q N N ",
"d d U R T T T y # _ '.'.'.>XeX'._._.'.-X:X-X|.].$X:X_.'.<X_.'.e.rX,X-XfXn.<XfX'.e.r.].<XfX-Xe.].$XgXe.q.`./.X * t Z T W E F i F ",
"Z i F T P U s i & [ xXjXtXSXtXlX3XhX2XdXvX4X2X4X2X4X4XaXHX3X;XcX;XaXgX_.'.5Xe._ r./.-XkXvXkXe.GXDXGX1X4X<Xe.X u i F T ..E s p I ",
"P N p P T L N F i [ eXDXDXNXhXpXSXAXZXBXZXcX1X%X4X4XvXvX2XxXxX1XVXVXHXfXxX>XhXxXr.V $X' FXZXvX3XBXZXcXkXcX-XG %.p s P ..P p s I ",
"S.g.s Z U s U ;.F [ oXrXfXfXgXgXZXSXvXZXAX3X;X3XkXkXkX%XxXcXSX<XSX:X1XxXdXcXxXkXe.3X$XvXGXcX3XkXBX3Xr.vX$XH ^ G.L s L T L i R G ",
"L.P.+.E E T s.s.L [ OX,XeXeXrX:X1XtXdX3XaXdXxXFXkXgX;XkX3XvXcXZXvXcXdXcXDXSX_.].GXcXkX1XkX2XkX4X_ q.GXr.r.n.^ D.S.s.+.E E R Q G ",
"P.~.L.P.H.H.L.H.K } uX0XtXtXrXrX1XfX1X:X2XOX0XlXkX1X>X4X3XdX3XGXvXvXDXSX-X<X-XZXVXZXDX;XBX>XcX1XvXSXHXGX5XeXQ j.P.L.P.F.P.Y.P.p.",
"1.,.,.,.>.*.O.E I c.yXpXpXpXrXrXDXFXFXHXfX<XZXkXtX+X>X3X>XAXSXxX'.;XAXVXZXe.GXBXGXGXcXkX3X$XCXSX-X$XFXe.dX'.Q ^ O.&.-.<.,.,.;.^ ",
"*.<.<.,.,.,.>.>.%.M.nXnXbXbX0XoXoXOXhXNXNXhXhXlXBXhX3XlXlXvXSXxXvX3XcXkXzXxXGXFX5XSXdXzXNXDXHXdXcXvX2XxXZX-XW 8.y.4.a.2.,.<.*.! ",
"*.<.<.<.<.<.<.<.&.n.MXMXmXbX0XOXOX0XOXrXlXzXpXzXMXnXzXcXzXZXaXBXcXGXFXVX'.DXCXxXkXlXzXMXkXkXkXkXvXGXSX3XZXXX#.a.a.<.<.<.<.<.*.%.",
">.<.,.>.-.-.y.f.-.m.mXnXnXmXmXmXbXbXbXlXbXMXMXBXBXbXbXzXbXbXbXjXkXxXAXDXGXvXxXxXtXrXtXtXtXkX;X;XcXkX$XvX$X_.+.s.f.>.-.>.>.<.-.%.",
",.,.K Z C C $.j.;./.MXMXMXMXMXMXMXMXMXMXNXNXlXyXlXlXMXlXjX+XrXgXGXGX<X<XAXZXFXFXFXFXFXHXHXkXdXkX3XaXpXtX3X_.T f.i.K C C P <.,.#.",
">.>.P O.$.&.#.j.:./.MXMXnXMXNXNXCXHXAXlXhXCXDXDXjXfXeXeXhX(.XXjXFXeXZXXXfXgXhXgXhXjXjXNXtX3XSXZXCXxXvX;X3X_.E s.i.L #.O.>.h.y.%.",
">.&.P @.<.,.$.D.:.b.bXMXMXHXAXAXAXgXrX+X).fXNXFXFXFXFXDXjX+X+XeXtX`.XX<X@XOXOXOXOXOXOX{.{.b.}.hXgXgXXX(.;X_.T s.y.U &.&.<.d.g.! ",
",.*.P +.>.*.&.D.:.0.hXnXbXCXDXCXCX}.`.{ v.oXDXDXCXeXjXFXFXhXhX@X{.b.t./.`./.m./././.(.@XOXfX}.{.:X:X`.`.3X_.U s.7.T &.*.,.a.Z.#.",
",.,.P C L W &.Z.;.w.hXlXMXBXgX`.NXCX+X|.b.+X+XDXDXCXhXrXjXjXeX@X{.).t.} /./.(./././.{ OX}.OXCX@Xw.v.b.3X$X_.T i.i.T O.W -.u.C.%.",
",.u.Z.D.D.D.j.Z.-.[ OXrXrXrX) H }.CXGXhXM.c.gXxXDXCXFXFXDXCXeX@XoXOXt./.)././././.b.[ ` } ).fXHX/.XX:X;X3X_.Q i.s.O.y.4.y.y.h.%.",
",.<.T L L Q &.2.;.0.eX:X+Xm./ ) { +XrX{.m.v.jXFXjXoXrXCXCXjXeX@XOXOX@X} } } /.} } [ ' ) ` [ @XHXeX/.gXdXxX,XW s.i.L T L E O.Z.:.",
",.<.P ..O.O.&.a.5.).FXDXrX(.] _ `.OX0X@X{.<X[ [.fXjX{.CXDXFXHXCXjX,XoX,X@Xt.} } { [ ) ` ` t.#XfXCX}.t.t.@X+XW s.i.P O.+...W g.;.",
"<.<.T +.@.@.=.h.,.b.fXjX( H n.{ rX,XhXfXoXoXm.b.[ m.|.NXCXHXGXGXhXoX}.}.hX} } } ] ] _ ] t.t.t.rXjXeXt.b.(.@X! s.i.L O.O...E j.1.",
"4.4.T ..@.@.#.k.1.[ } _ ~ H H ' oXDXDXNXxXCXDXeX}.H ) `.NXNXGXCXoX#X#Xm.}.v.} [ ] ` ` ) ` c.c.M.{.@X@X/.b.{ Q i.s.L $.O...W Z.8.",
"4.<.T +.-.&.+.Z.,.{ w.) H ( ) ) / {.rX}.{.b.OX{.b._ H / +X@Xv.|.}.{.oX}.{.OXfXeXoXoX/ / ) ) ` [ [.{.eXOX{.[ Q i.s.L $.O.W W C.;.",
"4.2.T X.*.*.$.g.1.' /.H / ) ) ) ) +XeXjXhX}.+XjX{ ) ~ ) 0.M.b.{ +XgXhXfX{.m.}.OXtXeX(.) ) / c.} m.{.{.{.(.` W a.s.L O.O.W E C.1.",
"y.<.R O.>.&.#.j.3.` 0./ H ) H H H AXFXFXgX`.b.) c.] { _ { |.lXoX{ b.(.}.}.(.{ v.@X{.m.m._ { {.}.(.{.}.}.)./ ! i.s.L $.O.W W Z.1.",
"4.2.T ..-.&.#.Z.,./ ' ( ~ ` ` ' _ b.OX}.c.c.] { { c.) H [ c.' (.' ' ' oXgX,XOXm.(.(.m.b.m.{ { /.oXt.#X/.v.( W i.s.L $.O...E g.1.",
"y.<.R ..-.&.$.g.,.~ 8.;.6.8.l.x.l.5.l.z.z.9.5.z.z.l.p.8.5.l.9.9.5.5.8.l.N.N.I.N.p.N.N.N.I.N.l.8.l.p.l.z.8.6.Q i.s.L O.O.W W Z.1.",
"4.4.R X.>.*.#.g.,.q > 5 5 5 8 8 > , : 8 3 > 5 4 > : 3 > 3 > 5 8 8 8 0 3 3 8 8 , > , + + g g c 8 > > 8 8 8 $ Q i.a.L $.O.....C.*.",
"4.<.R ..-.*.#.Z.>.t n l 6 5 + $ 3 > : : > > > > + + : + : > > 3 : > > , : + + + + + o 3 g g j < : 3 4 4 3 4 Q s.a.P $.....E Z.*.",
"4.4.T ..-.-.#.j.1.J ( / ` #X.XsX7XpXCXbXNXNXhXgXbXNXsX0X0Xt.{ { c.` { [.[.#XwXwXw o o > f 1 g oXoX#X#X.X.XM.R p.s.L $.O...W h.8.",
"y.<.R $.-.>.O.Z.i.; ( / ` [ ).6X XwXhXlXjXhXNXbXtXzXwXqX(.m.{ { {  X[.wXqXyXwXyX8XX   : V M ~ ,X0XoX[.[..Xm.R s.f.L #.O.E E s.;.",
"u.2.Q >.1.<.$.G.y.B ( J ` ` [  X.X8X0XwXyX8XsXwX0XiX:X0X X/.c.` [.[.qXyXpXyXqXuX] o O M =.c | m.+X+X[.(. XV.Q f.s.L O.&.....d.1.",
"u.C.T 1.y.2.&.G.4.H q.M.M.M.B.B.Q.'.*X*X8X&X&X&X*X&XW.[.V.&XB.B.V.V.Q.*X*X*X=XV.o o @ , M m S B.&X&X&X*X*XV.Q f.s.Q &.-.....g.;.",
"u.A.+.<.y.y.@.j.2.p A  .| S A D D S | m b 5 6 h k k m A m x m z c | m m  .|  .g g z z g A  . . .X.| | m | n ! j.s.E &.1.O.&.Z.$.",
"u.A.&.-.<.<.-.Z.,.q 5 h z z x k j h 6 , + : > > 6 1 6 6 6 6 1 6 1 f f f 6 6 6 f g z h h z z j j j k z j l 7 ! g.a.E -.<.&.;.A.-.",
"u.A.u.&.-.O.y.A.>.$ 7 l l l 8 8 7 > > , + + , , 1 6 > f j 7 6 > , , + : , < 5 3 6 f 7 f g z f f f h h h h 5 ~ y.j.^ O.>.y.u.D.-.",
"<.F.T.f.y.u.u.k.&.* C * * * N N B B w & o   + 1 f 6 r ! _ ! I I K d e * B N s ~ + : : > 6 6 5 ~ 6.l.l.z.z.6.J y.U.k.y.y.A.D.A.O.",
"U u.L.~.T.P.J.y.R J c./ ( ( / ( ; ` J =       z l k n ` ` ( ( ` w./ ` ` ( ' { t.      @ g f f V.wXmXmXmXmX:X% R u.T.T.P.K.J.y.G ",
"s &.C.P.E.P.y.W t ` 6X6X#X[./.[ v.b.m.H o o o  .k j S (.[.[..X8X[. X8X0X X X0XuXo o O : c z j *XzXnXmXmXmX|.. t ^ D.T.~.T.D.^ C ",
"y C W >.-.@.C y - { qXiXuXqXqX.X0XuXuX] o o o  .g j o.wXwXuXuXqXuXiXiXiXiXsXiXsXo @ o 3 j c f >XnXnXmXnXnX:X. O * C :.f.y.W C t ",
"y C C C C p * # - 6.Q.Q.W.*XQ.Q.I.5.6.d o   o f f 8 Y =X=X=X=X9X=X9XW.9X=XW.I.5.+   o 4 l h 7 I.=X=X=X9X=XN.; & & # C F C C C C ",
"y C C p C t * # & N  . .X.| A x m k k 5 , < , > 5 h k A | A A A m m m x l 7 5 7 7 5 5 6 h l z | A | | | x a ; & # * C C * C C u ",
"y C C * C * # # # 0 c D c j k h 6 7 f g g f f 6 f f g g 7 g j g f g j z 7 g j g g g f j z j j z h j j 6 j 5 . & # # * C * C C C ",
"t C C t s t # & & 4 c j h k z j f 5 1 j g 5 1 6 f f g j g f j f j j g g g g f g j j j j z j c c c c c c j 8 . & & # t C * C C C ",
"t C C t s t # & & q z c z c x k j h f 7 f f g j j j f f 6 6 f f j j g g f j j j j z j j c c c c c f 6 g f 8 . = & # * C * C C C ",
"t P C t U C * & q $ 5 5 5 h h k j g g f g D c x c c z f f g f f j f < > , 1 < 6 h 7 h h D c z h z h 8 : 3 8 . * & * L U * C C C ",
"u U U s &.P t * * # 3 : 7 8 h k 7 5 , , , 6 h k h h h 7 7 5 < 1 f 1 : > 3 < > : > 3 5 6 6 3 > 5 8 3 5 5 3 $ . w * * P *.C U U u ",
"t U W C -.L q * e = 2 2 $ 2 r 2 2 2 2 r 2 2 0 @ 2 0 0 0 2 2 2 2 2 0 0 0 0 r 9 0 r 2 0 0 0 r 0 0 0 d 8 r 0 0 ; u * * L -.C Q P C ",
"u P W s &.L t i w e v V N a a M a a b V v n N a a m b b a n n n n n a n b n a a e n a v v v m a n n b v b N ; = C y G &.C Q L u ",
"% u R C L F i N u % 2 2 2 2 $ = 2 2 2 2 2 2 2 r 0 0 2 2 2 2 r 2 r r r r 0 0 r 8 0 0 0 2 0 r r 0 r r r 8 r d ; * i p C P C Q B % ",
"% ; = B F N N e ; = e e e e a r a r N a V a a N v V v v V V m b v n K V m v v b v b v V Y m S Y S b Y b Z G ; % i C C C C ; ; ; "
};
