/* XPM */
static char *_0c3fb26d06e4db58f6802fd0bc7e0113d7rvFlzv6ZIs5CR_2[] = {
/* columns rows colors chars-per-pixel */
"75 72 32 1 ",
"  c gray66",
". c gray99",
"X c gainsboro",
"o c #C0C0C0",
"O c #7C7C7C",
"+ c gray33",
"@ c #646464",
"# c #484848",
"$ c gray22",
"% c #FCCCB0",
"& c #FCBC9C",
"* c #FCB080",
"= c #FC9C60",
"- c #E88C58",
"; c #989898",
": c gray55",
"> c #FCA470",
", c None",
"< c #D08050",
"1 c #C87C4C",
"2 c #D0D0D0",
"3 c #FCB890",
"4 c #BC7848",
"5 c #B47044",
"6 c #9C6038",
"7 c #885830",
"8 c #DC8854",
"9 c #A86840",
"0 c black",
"q c black",
"w c black",
"e c black",
/* pixels */
"   ,,,,,,,,,,,,,,,,,,,,,,,,,,,,,,,,,,,,,,,,,,,,,,,,,,,,,,,,,,,,,,,,,,,,,,,,",
"   ,,,,,,,,,,,,,,,,,,,,,,,,,,,,,,,,,,,,,,,,,,,,,,,,,,,,,,,,,,,,,,,,,,,,,,,,",
"   ,,,,,,,,,,,,,,,,,,,,,,,,,,,,,,,,,,,,,,,,,,,,,,,,,,,,,,,,,,,,,,,,,,,,,,,,",
"...@@@,,,,,,,,,,,,,,,,,,,,,,,,,,,,,,,,,,,,,,,,,,,,,,,,,,,,,,,,,,,,,,,,,,,,,",
"...@@@,,,,,,,,,,,,,,,,,,,,,,,,,,,,,,,,,,,,,,,,,,,,,,,,,,,,,,,,,,,,,,,,,,,,,",
"...@@@,,,,,,,,,,,,,,,,,,,,,,,,,,,,,,,,,,,,,,,,,,,,,,,,,,,,,,,,,,,,,,,,,,,,,",
"...222@@@,,,,,,,,,,,,,,,,,,,,,,,,,,,,,,,,,,,,,,,,,,,,,,,,,,,,,,,,,,,,,,,,,,",
"...222@@@,,,,,,,,,,,,,,,,,,,,,,,,,,,,,,,,,,,,,,,,,,,,,,,,,,,,,,,,,,,,,,,,,,",
"...222@@@,,,,,,,,,,,,,,,,,,,,,,,,,,,,,,,,,,,,,,,,,,,,,,,,,,,,,,,,,,,,,,,,,,",
"...222   @@@,,,,,,,,,,,,,,,,,,,,,,,,,,,,,,,,,,,,,,,,,,,,,,,,,,,,,,,,,,,,,,,",
"...222   @@@,,,,,,,,,,,,,,,,,,,,,,,,,,,,,,,,,,,,,,,,,,,,,,,,,,,,,,,,,,,,,,,",
"...222   @@@,,,,,,,,,,,,,,,,,,,,,,,,,,,,,,,,,,,,,,,,,,,,,,,,,,,,,,,,,,,,,,,",
"...222      +++,,,,,,,,,,,,,,,,,,,,,,,,,,,,,,,,,,,,,,,,,,,,,,,,,,,,,,,,,,,,",
"...222      +++,,,,,,,,,,,,,,,,,,,,,,,,,,,,,,,,,,,,,,,,,,,,,,,,,,,,,,,,,,,,",
"...222      +++,,,,,,,,,,,,,,,,,,,,,,,,,,,,,,,,,,,,,,,,,,,,,,,,,,,,,,,,,,,,",
"XXXXXXooo   OOO+++,,,,,,,,,,,,,,,,,,,,,,,,,,,,,,,,,,,,,,,,,,,,,,,,,,,,,,,,,",
"XXXXXXooo   OOO+++,,,,,,,,,,,,,,,,,,,,,,,,,,,,,,,,,,,,,,,,,,,,,,,,,,,,,,,,,",
"XXXXXXooo   OOO+++,,,,,,,,,,,,,,,,,,,,,,,,,,,,,,,,,,,,,,,,,,,,,,,,,,,,,,,,,",
"ooo...222      OOO+++,,,,,,,,,,,,,,,,,,,,,,,,,,,,,,,,,,,,,,,,,,,,,,,,,,,,,,",
"ooo...222      OOO+++,,,,,,,,,,,,,,,,,,,,,,,,,,,,,,,,,,,,,,,,,,,,,,,,,,,,,,",
"ooo...222      OOO+++,,,,,,,,,,,,,,,,,,,,,,,,,,,,,,,,,,,,,,,,,,,,,,,,,,,,,,",
",,,XXX222ooo      OOO+++,,,,,,,,,,,,,,,,,,,,,,,,,,,,,,,,,,,,,,,,,,,,,,,,,,,",
",,,XXX222ooo      OOO+++,,,,,,,,,,,,,,,,,,,,,,,,,,,,,,,,,,,,,,,,,,,,,,,,,,,",
",,,XXX222ooo      OOO+++,,,,,,,,,,,,,,,,,,,,,,,,,,,,,,,,,,,,,,,,,,,,,,,,,,,",
",,,,,,:::OOO+++$$$$$$$$$$$$$$$$$$###,,,,,,,,,,,,,,,,,,,,,,,,,,,,,,,,,,,,,,,",
",,,,,,:::OOO+++$$$$$$$$$$$$$$$$$$###,,,,,,,,,,,,,,,,,,,,,,,,,,,,,,,,,,,,,,,",
",,,,,,:::OOO+++$$$$$$$$$$$$$$$$$$###,,,,,,,,,,,,,,,,,,,,,,,,,,,,,,,,,,,,,,,",
"######$$$$$$===%%%%%%&&&***---$$$###,,,,,,,,,,,,,,,,,,,,,,,,,,,,,,,,,,,,,,,",
"######$$$$$$===%%%%%%&&&***---$$$###,,,,,,,,,,,,,,,,,,,,,,,,,,,,,,,,,,,,,,,",
"######$$$$$$===%%%%%%&&&***---$$$###,,,,,,,,,,,,,,,,,,,,,,,,,,,,,,,,,,,,,,,",
"###$$$999&&&%%%%%%%%%%%%&&&>>>---333,,,,,,,,,,,,,,,,,,,,,,,,,,,,,,,,,,,,,,,",
"###$$$999&&&%%%%%%%%%%%%&&&>>>---333,,,,,,,,,,,,,,,,,,,,,,,,,,,,,,,,,,,,,,,",
"###$$$999&&&%%%%%%%%%%%%&&&>>>---333,,,,,,,,,,,,,,,,,,,,,,,,,,,,,,,,,,,,,,,",
"$$$$$$***&&&%%%%%%%%%%%%&&&***===---,,,,,,,,,,,,,,,,,,,,,,,,,,,,,,,,,,,,,,,",
"$$$$$$***&&&%%%%%%%%%%%%&&&***===---,,,,,,,,,,,,,,,,,,,,,,,,,,,,,,,,,,,,,,,",
"$$$$$$***&&&%%%%%%%%%%%%&&&***===---,,,,,,,,,,,,,,,,,,,,,,,,,,,,,,,,,,,,,,,",
",,,,,,>>>>>>***&&&%%%%%%&&&***>>>---333,,,,,,,,,,,,,,,,,,,,,,,,,,,,,,,,,,,,",
",,,,,,>>>>>>***&&&%%%%%%&&&***>>>---333,,,,,,,,,,,,,,,,,,,,,,,,,,,,,,,,,,,,",
",,,,,,>>>>>>***&&&%%%%%%&&&***>>>---333,,,,,,,,,,,,,,,,,,,,,,,,,,,,,,,,,,,,",
",,,,,,,,,444444***&&&&&&&&&&&&***===---,,,,,,,,,,,,,,,,,,,,,,,,,,,,,,,,,,,,",
",,,,,,,,,444444***&&&&&&&&&&&&***===---,,,,,,,,,,,,,,,,,,,,,,,,,,,,,,,,,,,,",
",,,,,,,,,444444***&&&&&&&&&&&&***===---,,,,,,,,,,,,,,,,,,,,,,,,,,,,,,,,,,,,",
",,,,,,,,,888444>>>******>>>;;;            ;;;,,,,,,,,,,,,,,,,,,,,,,,,,,,,,,",
",,,,,,,,,888444>>>******>>>;;;            ;;;,,,,,,,,,,,,,,,,,,,,,,,,,,,,,,",
",,,,,,,,,888444>>>******>>>;;;            ;;;,,,,,,,,,,,,,,,,,,,,,,,,,,,,,,",
",,,,,,,,,,,,888888>>>>>>;;;                  ;;;,,,,,,,,,,,,,,,,,,,,,,,,,,,",
",,,,,,,,,,,,888888>>>>>>;;;                  ;;;,,,,,,,,,,,,,,,,,,,,,,,,,,,",
",,,,,,,,,,,,888888>>>>>>;;;                  ;;;,,,,,,,,,,,,,,,,,,,,,,,,,,,",
",,,,,,,,,,,,,,,,,,888OOO                        ;;;,,,,,,,,,,,,,,,,,,,,,,,,",
",,,,,,,,,,,,,,,,,,888OOO                        ;;;,,,,,,,,,,,,,,,,,,,,,,,,",
",,,,,,,,,,,,,,,,,,888OOO                        ;;;,,,,,,,,,,,,,,,,,,,,,,,,",
",,,,,,,,,,,,,,,,,,,,,OOO;;;                     ;;;;;;OOO,,,,,,,,,,,,,,,,,,",
",,,,,,,,,,,,,,,,,,,,,OOO;;;                     ;;;;;;OOO,,,,,,,,,,,,,,,,,,",
",,,,,,,,,,,,,,,,,,,,,OOO;;;                     ;;;;;;OOO,,,,,,,,,,,,,,,,,,",
",,,,,,,,,,,,,,,,,,,,,OOO;;;;;;;;;;;;;;;;;;         ;;;;;;OOO,,,,,,,,,,,,,,,",
",,,,,,,,,,,,,,,,,,,,,OOO;;;;;;;;;;;;;;;;;;         ;;;;;;OOO,,,,,,,,,,,,,,,",
",,,,,,,,,,,,,,,,,,,,,OOO;;;;;;;;;;;;;;;;;;         ;;;;;;OOO,,,,,,,,,,,,,,,",
",,,,,,,,,,,,,,,,,,,,,OOO;;;:::OOO;;;                  ;;;;;;OOO,,,,,,,,,,,,",
",,,,,,,,,,,,,,,,,,,,,OOO;;;:::OOO;;;                  ;;;;;;OOO,,,,,,,,,,,,",
",,,,,,,,,,,,,,,,,,,,,OOO;;;:::OOO;;;                  ;;;;;;OOO,,,,,,,,,,,,",
",,,,,,,,,,,,,,,,,,,,,,,,OOOOOO:::                        ;;;OOOOOO,,,,,,,,,",
",,,,,,,,,,,,,,,,,,,,,,,,OOOOOO:::                        ;;;OOOOOO,,,,,,,,,",
",,,,,,,,,,,,,,,,,,,,,,,,OOOOOO:::                        ;;;OOOOOO,,,,,,,,,",
",,,,,,,,,,,,,,,,,,,,,,,,OOOOOO:::                        ;;;;;;OOOOOO,,,,,,",
",,,,,,,,,,,,,,,,,,,,,,,,OOOOOO:::                        ;;;;;;OOOOOO,,,,,,",
",,,,,,,,,,,,,,,,,,,,,,,,OOOOOO:::                        ;;;;;;OOOOOO,,,,,,",
",,,,,,,,,,,,,,,,,,,,,,,,OOOOOO;;;;;;                     ;;;;;;;;;OOOOOO,,,",
",,,,,,,,,,,,,,,,,,,,,,,,OOOOOO;;;;;;                     ;;;;;;;;;OOOOOO,,,",
",,,,,,,,,,,,,,,,,,,,,,,,OOOOOO;;;;;;                     ;;;;;;;;;OOOOOO,,,",
",,,,,,,,,,,,,,,,,,,,,,,,,,,OOO;;;;;;;;;                        ;;;;;;OOOOOO",
",,,,,,,,,,,,,,,,,,,,,,,,,,,OOO;;;;;;;;;                        ;;;;;;OOOOOO",
",,,,,,,,,,,,,,,,,,,,,,,,,,,OOO;;;;;;;;;                        ;;;;;;OOOOOO"
};
