/* XPM */
static char *_0c3fb26d06e4db58f6802fd0bc7e0113d7rvFlzv6ZIs5CR_0[] = {
/* columns rows colors chars-per-pixel */
"51 45 32 1 ",
"  c gray66",
". c gray99",
"X c gainsboro",
"o c #C0C0C0",
"O c #7C7C7C",
"+ c gray33",
"@ c #646464",
"# c #484848",
"$ c gray22",
"% c #FCCCB0",
"& c #FCBC9C",
"* c #FCB080",
"= c #FC9C60",
"- c #E88C58",
"; c None",
": c gray55",
"> c #FCA470",
", c #F0945C",
"< c #D08050",
"1 c #C87C4C",
"2 c #D0D0D0",
"3 c #FCB890",
"4 c #BC7848",
"5 c #B47044",
"6 c #9C6038",
"7 c #885830",
"8 c #DC8854",
"9 c #A86840",
"0 c black",
"q c black",
"w c black",
"e c black",
/* pixels */
";;;   ;;;;;;;;;;;;;;;;;;;;;;;;;;;;;;;;;;;;;;;;;;;;;",
";;;   ;;;;;;;;;;;;;;;;;;;;;;;;;;;;;;;;;;;;;;;;;;;;;",
";;;   ;;;;;;;;;;;;;;;;;;;;;;;;;;;;;;;;;;;;;;;;;;;;;",
";;;...+++;;;;;;;;;;;;;;;;;;;;;;;;;;;;;;;;;;;;;;;;;;",
";;;...+++;;;;;;;;;;;;;;;;;;;;;;;;;;;;;;;;;;;;;;;;;;",
";;;...+++;;;;;;;;;;;;;;;;;;;;;;;;;;;;;;;;;;;;;;;;;;",
";;;...   +++;;;;;;;;;;;;;;;;;;;;;;;;;;;;;;;;;;;;;;;",
";;;...   +++;;;;;;;;;;;;;;;;;;;;;;;;;;;;;;;;;;;;;;;",
";;;...   +++;;;;;;;;;;;;;;;;;;;;;;;;;;;;;;;;;;;;;;;",
";;;...      +++;;;;;;;;;;;;;;;;;;;;;;;;;;;;;;;;;;;;",
";;;...      +++;;;;;;;;;;;;;;;;;;;;;;;;;;;;;;;;;;;;",
";;;...      +++;;;;;;;;;;;;;;;;;;;;;;;;;;;;;;;;;;;;",
";;;...ooo      +++;;;;;;;;;;;;;;;;;;;;;;;;;;;;;;;;;",
";;;...ooo      +++;;;;;;;;;;;;;;;;;;;;;;;;;;;;;;;;;",
";;;...ooo      +++;;;;;;;;;;;;;;;;;;;;;;;;;;;;;;;;;",
";;;...XXX         +++;;;;;;;;;;;;;;;;;;;;;;;;;;;;;;",
";;;...XXX         +++;;;;;;;;;;;;;;;;;;;;;;;;;;;;;;",
";;;...XXX         +++;;;;;;;;;;;;;;;;;;;;;;;;;;;;;;",
";;;222...ooo         +++;;;;;;;;;;;;;;;;;;;;;;;;;;;",
";;;222...ooo         +++;;;;;;;;;;;;;;;;;;;;;;;;;;;",
";;;222...ooo         +++;;;;;;;;;;;;;;;;;;;;;;;;;;;",
";;;;;;...XXX         OOO+++;;;;;;;;;;;;;;;;;;;;;;;;",
";;;;;;...XXX         OOO+++;;;;;;;;;;;;;;;;;;;;;;;;",
";;;;;;...XXX         OOO+++;;;;;;;;;;;;;;;;;;;;;;;;",
";;;;;;222...ooo         OOO+++;;;;;;;;;;;;;;;;;;;;;",
";;;;;;222...ooo         OOO+++;;;;;;;;;;;;;;;;;;;;;",
";;;;;;222...ooo         OOO+++;;;;;;;;;;;;;;;;;;;;;",
";;;;;;;;;...XXXooo         OOO+++;;;;;;;;;;;;;;;;;;",
";;;;;;;;;...XXXooo         OOO+++;;;;;;;;;;;;;;;;;;",
";;;;;;;;;...XXXooo         OOO+++;;;;;;;;;;;;;;;;;;",
";;;;;;;;;;;;...XXX            OOO+++;;;;;;;;;;;;;;;",
";;;;;;;;;;;;...XXX            OOO+++;;;;;;;;;;;;;;;",
";;;;;;;;;;;;...XXX            OOO+++;;;;;;;;;;;;;;;",
";;;;;;;;;;;;OOO@@@@@@##############################",
";;;;;;;;;;;;OOO@@@@@@##############################",
";;;;;;;;;;;;OOO@@@@@@##############################",
";;;+++###$$$$$$===333%%%%%%&&&***===444666$$$$$$###",
";;;+++###$$$$$$===333%%%%%%&&&***===444666$$$$$$###",
";;;+++###$$$$$$===333%%%%%%&&&***===444666$$$$$$###",
"+++$$$$$$777===%%%%%%%%%%%%%%%333***===---555$$$###",
"+++$$$$$$777===%%%%%%%%%%%%%%%333***===---555$$$###",
"+++$$$$$$777===%%%%%%%%%%%%%%%333***===---555$$$###",
"###$$$$$$---333%%%%%%%%%%%%%%%&&&******===---444;;;",
"###$$$$$$---333%%%%%%%%%%%%%%%&&&******===---444;;;",
"###$$$$$$---333%%%%%%%%%%%%%%%&&&******===---444;;;"
};
