/* XPM */
static char *_0c3fb26d06e4db58f6802fd0bc7e0113d7rvFlzv6ZIs5CR_4[] = {
/* columns rows colors chars-per-pixel */
"30 27 32 1 ",
"  c gray66",
". c gray99",
"X c gainsboro",
"o c #C0C0C0",
"O c #7C7C7C",
"+ c gray33",
"@ c None",
"# c #484848",
"$ c gray22",
"% c #FCCCB0",
"& c #FCBC9C",
"* c #FCB080",
"= c #FC9C60",
"- c #E88C58",
"; c #989898",
": c gray55",
"> c #FCA470",
", c #F0945C",
"< c #D08050",
"1 c #C87C4C",
"2 c #D0D0D0",
"3 c #FCB890",
"4 c #BC7848",
"5 c #B47044",
"6 c #9C6038",
"7 c #885830",
"8 c #DC8854",
"9 c #A86840",
"0 c black",
"q c black",
"w c black",
"e c black",
/* pixels */
"   +++@@@@@@@@@@@@@@@@@@@@@@@@",
"   +++@@@@@@@@@@@@@@@@@@@@@@@@",
"   +++@@@@@@@@@@@@@@@@@@@@@@@@",
"...OOO+++@@@@@@@@@@@@@@@@@@@@@",
"...OOO+++@@@@@@@@@@@@@@@@@@@@@",
"...OOO+++@@@@@@@@@@@@@@@@@@@@@",
"...   OOO+++@@@@@@@@@@@@@@@@@@",
"...   OOO+++@@@@@@@@@@@@@@@@@@",
"...   OOO+++@@@@@@@@@@@@@@@@@@",
"...      OOO+++@@@@@@@@@@@@@@@",
"...      OOO+++@@@@@@@@@@@@@@@",
"...      OOO+++@@@@@@@@@@@@@@@",
"...ooo      OOO+++@@@@@@@@@@@@",
"...ooo      OOO+++@@@@@@@@@@@@",
"...ooo      OOO+++@@@@@@@@@@@@",
"...222         OOO+++@@@@@@@@@",
"...222         OOO+++@@@@@@@@@",
"...222         OOO+++@@@@@@@@@",
"...XXX            OOO+++@@@@@@",
"...XXX            OOO+++@@@@@@",
"...XXX            OOO+++@@@@@@",
"@@@...ooo            OOO+++@@@",
"@@@...ooo            OOO+++@@@",
"@@@...ooo            OOO+++@@@",
"@@@...222               OOO+++",
"@@@...222               OOO+++",
"@@@...222               OOO+++"
};
