/* XPM */
static char *f6c9db1905a34e3d889d59485b066b2e[] = {
/* columns rows colors chars-per-pixel */
"64 64 108 2 ",
"   c None",
".  c #422500",
"X  c #4F2500",
"o  c #552501",
"O  c #5A2602",
"+  c #512900",
"@  c #5D2A04",
"#  c #5F220A",
"$  c #4C3306",
"%  c #553309",
"&  c #5A370B",
"*  c #5C390C",
"=  c #622307",
"-  c #612D05",
";  c #63240B",
":  c #6F260C",
">  c #642E08",
",  c #7B2B0F",
"<  c #613207",
"1  c #65320A",
"2  c #6B340B",
"3  c #6D390E",
"4  c #783616",
"5  c #763E13",
"6  c #733C2A",
"7  c #175013",
"8  c #1B5514",
"9  c #125811",
"0  c #25450E",
"q  c #2F4510",
"w  c #354613",
"e  c #374913",
"r  c #3E4C1B",
"t  c #255818",
"y  c #2D5D1A",
"u  c #325E1B",
"i  c #2F621A",
"p  c #35671C",
"a  c #31681D",
"s  c #3A6C1E",
"d  c #247219",
"f  c #28781C",
"g  c #367A1F",
"h  c #3D7421",
"j  c #3D7B22",
"k  c #44431B",
"l  c #4D441E",
"z  c #5D421E",
"x  c #43541E",
"c  c #45591F",
"v  c #514621",
"b  c #505621",
"n  c #78432B",
"m  c #437727",
"M  c #427A23",
"N  c #447728",
"B  c #457A29",
"V  c #448424",
"C  c #4B8524",
"Z  c #478A25",
"A  c #498826",
"S  c #4D8C29",
"D  c #4B9A26",
"F  c #4C9329",
"G  c #51962B",
"H  c #559D2E",
"J  c #55A22B",
"K  c #58A32F",
"L  c #5BA532",
"P  c #5AAC34",
"I  c #5BB832",
"U  c #60AC37",
"Y  c #62B335",
"T  c #64BE36",
"R  c #65B439",
"E  c #69B53F",
"W  c #65B93A",
"Q  c #6CC23C",
"!  c #6EB846",
"~  c #73B94D",
"^  c #77BA51",
"/  c #72C245",
"(  c #71C840",
")  c #74C449",
"_  c #76C849",
"`  c #79CD4A",
"'  c #78D346",
"]  c #7CD34B",
"[  c #7DD949",
"{  c #7BC751",
"}  c #7CCA52",
"|  c #FFAC00",
" . c #FFB400",
".. c #FFBB00",
"X. c #FFC400",
"o. c #FFCC00",
"O. c #FFD300",
"+. c #FFDB00",
"@. c #FFE100",
"#. c #85CF5B",
"$. c #88CF5F",
"%. c #83D654",
"&. c #85D25A",
"*. c #88D55E",
"=. c #8CD363",
"-. c #8ED964",
";. c #90D967",
":. c #92D56C",
/* pixels */
"                                                                                                                                ",
"                                                                                                                                ",
"                                                                                                                                ",
"                                                                                                                                ",
"                                                                                                                                ",
"                                      u u p u                                                                                   ",
"                                      s F H F M                                                                                 ",
"                                      s R Q Y G M                                                                               ",
"                                      M ! ` Q R S s                                                                             ",
"                                      B ! %.%./ L A s                     O @ @ -                                               ",
"                                      B ~ *.*.} W J A s                 o @ @ @ - O                                             ",
"                                      B ^ ;.:.*._ W L A p             @ @ @ 1 > @ @ @                                           ",
"                                      N ^ ;.:.:.&.` T K p           o o @ 1 1 1 - @ O                                           ",
"                                      m ! *.:.:.:.*.] R M         - o O 1 1 2 1 - O o                                           ",
"                                      M R [ *.=.:.:.&.! L V     % > O @ 1 2 2 2 @ O O                                           ",
"                                        D Y ) $.:.:.=.` R F a e * > - - 1 3 3 1 @ X                                             ",
"                                          g P ` =.:.=.{ P A i w & 2 > 1 2 2 3 1 X                                               ",
"                                          b C P } *.%.) L V i w 1 2 3 2 2 2 < > :                                               ",
"                                            x f W [ [ E H M y w * 2 3 3 3 < . =                                                 ",
"                          @.@.@.@.@.@.+.+.+.6 x G I T I G j y w & 2 3 3 < @ # O.o.O.O.o.O.o.o.o.o.o.o.                          ",
"                        @.@.@.@.@.@.+.+.@.+.+.+.c d F H A h y w % 2 5 3 . = O.O.O.O.o.O.o.o.o.o.o.o.o.o.                        ",
"                      @.@.@.@.@.@.+.@.+.+.+.+.+.6 r s j h a t q + 1 1 1 ; O.o.o.o.o.o.o.o.X.o.o.X.o.X.o.X.                      ",
"                    @.@.@.@.@.@.+.+.+.+.+.+.+.+.+.O.x 9 8 8 7 0 $ + . # O.O.O.o.O.o.o.o.o.o.o.X.o.X.o.X.o.X.                    ",
"                  @.@.@.@.@.+.@.+.+.+.+.+.+.+.+.+.+.n k l v v z 4 , ; O.o.O.o.o.o.o.o.o.o.o.o.o.X.o.X.X.X.X.X.                  ",
"                  @.@.@.+.+.+.@.+.+.+.+.+.O.+.+.O.O.O.+.O.O.O.O.O.O.o.O.o.O.o.o.o.o.o.o.o.X.o.X.X.X.X.X.X.X.X.                  ",
"                  @.@.+.+.+.+.+.+.+.+.+.+.+.O.O.+.O.O.O.O.O.o.O.O.o.O.o.o.o.o.o.o.o.o.X.X.o.o.X.X.X.X.X.X.X.X.                  ",
"                @.+.+.+.+.+.+.+.+.+.+.+.+.O.O.O.+.O.O.o.O.O.O.O.o.o.o.O.o.o.o.o.o.X.X.o.o.X.o.X.X.X.X.X...X...X.                ",
"              @.@.@.@.+.+.+.+.+.O.+.O.+.O.O.+.+.O.O.O.O.o.O.o.O.o.O.o.o.o.o.o.o.o.o.X.o.X.X.X.X.X.X.X.X.X...X.....              ",
"              +.+.+.+.+.+.+.+.O.+.O.+.O.O.O.+.o.o.O.O.O.o.O.o.o.o.o.o.o.o.o.X.o.o.X.o.X.X.X.X.X.X.X...X.X.....X...              ",
"              +.+.+.+.+.+.+.+.+.+.O.+.O.O.O.O.O.O.O.o.O.o.o.O.o.o.o.o.o.X.o.o.X.X.o.X.X.X.X.X.X.X.X.X...X.........              ",
"              +.+.+.+.+.O.+.O.O.O.+.O.O.O.O.o.O.o.O.o.o.O.o.o.o.o.o.o.o.o.o.X.X.X.X.X.X.X.X.X.X.X.X.....X.........              ",
"              +.+.+.+.+.+.O.O.+.O.O.O.O.O.O.O.o.O.o.o.O.o.o.o.o.o.o.X.o.X.X.o.X.X.X.X.X.X.....X.....X.............              ",
"              O.O.+.+.+.O.+.O.O.O.O.O.O.o.O.O.o.o.O.o.o.o.o.o.o.X.o.o.X.o.X.X.X.X.X.X.X...X.X.X............. ... .              ",
"              +.+.+.O.O.+.O.O.O.O.O.O.o.O.O.o.O.o.o.o.o.o.o.X.o.o.X.X.o.X.X.X.X.X.X...X.X.........................              ",
"              +.O.+.+.O.O.O.O.O.O.o.O.O.o.O.o.o.o.o.o.o.o.X.o.X.X.o.X.X.X.X.X.X.X.X.X.X...X...X............. ... .              ",
"              +.O.O.O.O.O.O.O.O.O.O.o.O.o.o.o.o.o.o.o.X.o.o.o.X.X.X.X.X.X.X.X.X...X....................... ... . .              ",
"              O.O.+.O.O.O.O.O.O.o.o.O.o.o.o.o.o.o.o.o.X.X.o.X.o.X.X.X.X.X...X...X.....X................. . . ... .              ",
"              O.O.O.O.O.O.O.o.o.O.o.O.o.o.o.o.o.o.o.o.X.o.X.X.X.X.X.X.X.X.X.X.X.X............... ... ... ... . . .              ",
"              O.O.O.O.O.O.o.O.o.o.o.o.o.o.o.o.o.o.X.X.o.o.X.X.X.X.X.X.X...X................... ..... . . ... . . .              ",
"              O.O.O.O.o.O.o.o.O.o.o.o.o.o.o.X.o.X.o.X.X.X.X.X.X.X.....X.X...X................... . ... . . . . . .              ",
"              O.O.o.O.O.o.O.o.o.o.o.o.o.X.o.X.o.o.X.X.X.X.X.X...X.X.....X................... . . . . . . . . . . .              ",
"              O.O.o.o.o.o.o.o.o.o.o.o.o.o.X.X.X.X.X.X.X.X.X.X.X...X...X............. ... ..... . . . . . . .|  . .              ",
"              O.o.O.O.o.o.o.o.o.o.o.o.X.X.o.o.X.X.X.X.X.X.X.X.X.X............. ... ... . . . . . . . . . .|  .| |               ",
"              o.O.o.o.o.o.o.o.o.o.X.X.o.X.X.X.X.X.X...X.X...........X............... ..... . . . . . .|  . .|  .|               ",
"              o.o.o.o.o.o.o.o.o.X.o.o.X.X.X.X.X.X.X...X.X.X............. ... ... ..... . . . . . . .|  . .| | | |               ",
"                o.o.o.o.o.o.X.X.o.X.X.X.X.X.X.X.X.X.X................... ....... . . . . . . . . . . .|  .| | |                 ",
"                  o.o.o.X.o.X.o.X.X.X.X.X.X.X.X.X...X..................... ... ... . . . . .|  . .| | | | | |                   ",
"                  X.o.X.o.X.X.o.X.X.X.X.X.X...X.X.......X........... ... ... . . . . . . . . .| |  .| | | | |                   ",
"                  o.o.X.X.X.X.X.X.X.X.X.X...X............... ....... ... . . . . . . . .| | | | |  .| | | | |                   ",
"                    o.X.o.X.X.X.X.X...X...X...X...X............. . ... . . . . . . .|  . .| | | | | | | | |                     ",
"                      X.X.X.X.X.X...X.X.X.X................. ... . ... . . . . . .|  .| | | | | | | | | |                       ",
"                        X.X.X.X.X.X....................... ... ... . . . . . . . . .|  .| | | | | | | |                         ",
"                          X.X.....X...X................. . . ... . . . . .|  .| |  .| | | | | | | | |                           ",
"                            ..X.X................. . ... ... . . . . . . . .|  .| | | | | | | | | |                             ",
"                              ...................... . . ... . . . . . . .| |  .| | | | | | | | |                               ",
"                                ............ ... . ... . . . . . .|  .| |  .| | | | | | | | | |                                 ",
"                                  ........ ... . . . . . . . . .|  .| |  .| | | | | | | | | |                                   ",
"                                    .. ....... . . . . . . .|  . .|  .| | | | | | | | | | |                                     ",
"                                      .. . ... . . . . . .|  .| | |  .| | | | | | | | | |                                       ",
"                                         . . . . . . . .|  .|  .| | | | | | | | | | | |                                         ",
"                                           . . . . . .|  .| | | | | | | | | | | | | |                                           ",
"                                                                                                                                ",
"                                                                                                                                ",
"                                                                                                                                "
};
