/* XPM */
static char *result[] = {
/* columns rows colors chars-per-pixel */
"32 32 194 2 ",
"   c black",
".  c #010101",
"X  c #020101",
"o  c #020202",
"O  c gray1",
"+  c #060303",
"@  c gray2",
"#  c #060606",
"$  c #070707",
"%  c #090707",
"&  c gray3",
"*  c #090808",
"=  c #090909",
"-  c gray4",
";  c #0B0B0B",
":  c #0C0C0C",
">  c #0D0C0C",
",  c gray5",
"<  c #0E0C0C",
"1  c #0C0E0D",
"2  c #0D0E0E",
"3  c #0E0E0E",
"4  c #0E0F0F",
"5  c gray6",
"6  c #1A0809",
"7  c #1B090A",
"8  c #1B0A0A",
"9  c #1C0A0B",
"0  c #1F0B0B",
"q  c #101010",
"w  c #111111",
"e  c gray7",
"r  c #131313",
"t  c gray8",
"y  c #161616",
"u  c gray9",
"i  c #171818",
"p  c #181818",
"a  c #191919",
"s  c gray10",
"d  c #1B1A1A",
"f  c #1B1B1B",
"g  c gray11",
"h  c #1D1D1D",
"j  c #1E1E1E",
"k  c #210F10",
"l  c #221111",
"z  c #231414",
"x  c #321213",
"c  c #331314",
"v  c #351314",
"b  c #361315",
"n  c #351415",
"m  c gray13",
"M  c #222222",
"N  c #232323",
"B  c #252525",
"V  c gray15",
"C  c #272727",
"Z  c #2A2A2A",
"A  c gray17",
"S  c #2C2C2C",
"D  c #2D2D2D",
"F  c gray18",
"G  c #2F2F2F",
"H  c #302D2D",
"J  c #323232",
"K  c gray20",
"L  c #343434",
"P  c #353535",
"I  c gray22",
"U  c #393939",
"Y  c #3A3A3A",
"T  c gray23",
"R  c #3C3C3C",
"E  c gray24",
"W  c #3E3E3E",
"Q  c #3F3F3F",
"!  c gray25",
"~  c #414141",
"^  c gray26",
"/  c #434343",
"(  c #444444",
")  c #464646",
"_  c gray28",
"`  c #484848",
"'  c #494949",
"]  c #4C4C4C",
"[  c gray30",
"{  c #505050",
"}  c gray32",
"|  c #535353",
" . c gray33",
".. c #555555",
"X. c #565656",
"o. c gray34",
"O. c #585858",
"+. c gray35",
"@. c #595A5A",
"#. c #5A5A5A",
"$. c #5B5B5B",
"%. c gray36",
"&. c #5C5D5D",
"*. c #5D5D5D",
"=. c gray37",
"-. c #5F5F5F",
";. c gray38",
":. c #626262",
">. c gray39",
",. c #646464",
"<. c #656565",
"1. c gray40",
"2. c #676767",
"3. c #686868",
"4. c DimGray",
"5. c #6A6A6A",
"6. c gray42",
"7. c #6C6C6C",
"8. c #6D6D6D",
"9. c gray43",
"0. c #6F6F6F",
"q. c gray44",
"w. c #717171",
"e. c #727272",
"r. c gray45",
"t. c #747474",
"y. c gray46",
"u. c #767676",
"i. c #777777",
"p. c gray47",
"a. c #7C7C7C",
"s. c gray49",
"d. c #B14246",
"f. c #C8484D",
"g. c #C94C51",
"h. c #CB4C51",
"j. c #CA4D51",
"k. c #CB4D52",
"l. c #E0565B",
"z. c #E45B60",
"x. c #FB7B7F",
"c. c #FF7C80",
"v. c #FF7D80",
"b. c #808080",
"n. c #818181",
"m. c gray51",
"M. c #838383",
"N. c #848484",
"B. c gray52",
"V. c #868686",
"C. c #888888",
"Z. c #8E8E8E",
"A. c gray56",
"S. c #929292",
"D. c #9F9F9F",
"F. c #A0A0A0",
"G. c #B1B1B1",
"H. c #C5C5C5",
"J. c #C6C6C6",
"K. c #C8C8C8",
"L. c gray79",
"P. c #CACACA",
"I. c #CBCBCB",
"U. c #CDCDCD",
"Y. c #CECECE",
"T. c #D0D0D0",
"R. c gray82",
"E. c LightGray",
"W. c gray83",
"Q. c #D5D5D5",
"!. c gray84",
"~. c #D7D7D7",
"^. c #DADADA",
"/. c gray87",
"(. c #DFDFDF",
"). c gray88",
"_. c #E1E1E1",
"`. c #E2E2E2",
"'. c gray89",
"]. c gray90",
"[. c #E6E6E6",
"{. c #ECECEC",
"}. c gray93",
"|. c #EEEEEE",
" X c #EFEFEF",
".X c gray94",
"XX c #F1F1F1",
"oX c #F9F9F9",
"OX c #FBFBFB",
"+X c gray99",
"@X c #FDFDFD",
"#X c #FEFEFE",
"$X c white",
"%X c None",
/* pixels */
"%X%X%X%X%X%X%X%X%X%X%X%X%X%X%X%X%X%X%X%X%X%X%X%X%X%X%X%X%X%X%X%X",
"%X%X%X%X%X%X%X%X%X%X%X%X%X%X%X%X%X%X%X%X%X%X%X%X%X= = %X%X%X%X%X",
"%X%X%X%X%X%X%X%X%X%X%X%X%X%X%X%X%X%X%X%X%X%X%X%X= L L = %X%X%X%X",
"%X%X%X%Xq q q %X%X%X%X%X%X%X%X%X%X%X%X%X%X%X%X  $ P T q %X%X%X%X",
"%X%X%Xq #.<.+.,   & - - = %X%X%X%X%X= = = = & . . , P L = %X%X%X",
"%X%X%Xs <.3.+.: # J K K L q = = & q L Y Y Y L 3 $ o , D & %X%X%X",
"%X%X, [ :.:.[ - & L 4 1 K L U Y W T ~ / ^ ^ ~ T L , . @ . %X%X%X",
"%X%Xa +.2.<.u   $ H l 7 % 5 R ' <.[ ^ ^ / ` ` ' ` T t : o %X%X%X",
"%Xq %.q.q.*.q %X  k f.h.x * K _ 0.6.] ^ _ <.0.0.0.9.5.$.3 %X%X%X",
"%Xq >.2.+.a %X%X  0 l.c.g.8 2 _ q.y.6.] / ] 6.y.u.t.5.#.3 %X%X%X",
"%X3 X.>. ., %X%X  7 g.c.z.v > o.r.y.u.7.[ ` } w.t.%.p ; o %X%X%X",
"%X,  .>.X.3 %X%X%XX b z.v.j.9 i 4.y.4.3.0.0.0.y.8.J $ - o %X%X%X",
"%X3 o.2.:.q %X%X%X  7 g.x.k.6 2 1.=.p p =.t.y.t.b.D.B ] 5 %X%X%X",
"%Xq ,.y.3.s %X%X%X%XX c d.n < a | M O . a 4.u.y.7.G g *.f .   %X",
"%Xq 2.t.q.{ , %X%X%X  + z d &.=.G  .V O 3 1.y.i.n.6.3.,.o.%X%X%X",
"%Xq $.<.>.[ - . : , - 3 @.4.t.t.3.s.F.u 5 u.N.N.W.}.!.! q o   %X",
"%X%Xu [ [ t - t ] X.] a 3.p.u.u.B.a.L w P ~.(.i.N. X#XK.j %X%X%X",
"%X%Xo - ; y ] O.:.2.<.B $.<.3.Z.'._.N.M.~.#X[.( ( [.#XI.M %X%X%X",
"%X%X%X. u %.<.1.w.r.t.*.V Z ) ^.$X@XXXXX@X$XOX].].oXY.W %X%X%X%X",
"%X%X%Xu $.t.r.r.y.y.w.:.#.G.J.{.@X$X$X$X$X$X+X[.`.P.W %X%X%X%X%X",
"%X%X, [ <.w.y.y.y.w.1.#.V A U C.`. X{.{.|..XQ.I m M %X%X%X%X%X%X",
"%X%X, ..:.<.r.y.r.<.<.0.3.<.2.t.N.B.p.u.m.B.u.g %X%X%X%X%X%X%X%X",
"%X%X3 X.:.>.w.y.e.<.q.t.u.u.t.y.e.4.9.>.+.>.0.-.h %X%X%X%X%X%X%X",
"%X%Xg ,.1.;.<.r.w.2.n.N.u.e.3.t.3.C 4.2.N O.3.e.*.f %X%X%X%X%X%X",
"%Xq *.t.w.<.>.y.n.B.`.].S.t.2.t.1.f #.#.s ,.y.M.B.6.e %X%X%X%X%X",
"%Xq 2.y.t.q.1.m.`.}._./.J.b.r.y.1.p , , q -.A.`.XXR.m %X%X%X%X%X",
"%Xq 2.N.V.N.r.i.W.Y.E m D ;.t.e.>.] r %X%XS Q.$X$X(.N %X%X%X%X%X",
"%Xw n.'..X).7.s g j %X%X%Xg 6.m.u.t.=.q %XN J.).).H.M %X%X%X%X%X",
"%Xm E.$X@XU.Z       %X%X%X3 7./.}.|.T.m %X%XM N N M %X%X%X%X%X%X",
"%XM J._.L.Q %X%X%X%X%X%X%X%XF ).$X@XP.M %X%X%X%X%X%X%X%X%X%X%X%X",
"%X%XM N M %X%X%X%X%X%X%X%X%XM H._.L.Q %X%X%X%X%X%X%X%X%X%X%X%X%X",
"%X%X%X%X%X%X%X%X%X%X%X%X%X%X%XM N M %X%X%X%X%X%X%X%X%X%X%X%X%X%X"
};
