/* XPM */
static char *_1522_6c64364364070b779db16d3e3439a665916b8b39ee561d16cf2134135c575092[] = {
/* columns rows colors chars-per-pixel */
"26 26 132 2 ",
"   c black",
".  c #010000",
"X  c #020000",
"o  c #080000",
"O  c #090000",
"+  c #0D0000",
"@  c #0E0000",
"#  c #0F0000",
"$  c #100000",
"%  c #110000",
"&  c #120000",
"*  c #130000",
"=  c #140000",
"-  c #150000",
";  c #160000",
":  c #180000",
">  c #1C0000",
",  c #1D0000",
"<  c #1E0000",
"1  c #1F0000",
"2  c #200000",
"3  c #210000",
"4  c #220000",
"5  c #230000",
"6  c #240000",
"7  c #260000",
"8  c #2D0000",
"9  c #300000",
"0  c #370000",
"q  c #3D0404",
"w  c #400000",
"e  c #420000",
"r  c #500000",
"t  c #520000",
"y  c #550000",
"u  c #5F0000",
"i  c #600000",
"p  c #690000",
"a  c #6C0000",
"s  c #6F0000",
"d  c #720000",
"f  c #730000",
"g  c #740000",
"h  c #760000",
"j  c #770000",
"k  c #780000",
"l  c #790000",
"z  c #7A0000",
"x  c #7B0000",
"c  c #850000",
"v  c #870000",
"b  c #900000",
"n  c #910000",
"m  c #920000",
"M  c #940000",
"N  c #960000",
"B  c #970000",
"V  c #980000",
"C  c #990000",
"Z  c #A00000",
"A  c #A50000",
"S  c #AE0000",
"D  c #AF0000",
"F  c #B10000",
"G  c #B30000",
"H  c #B40000",
"J  c #B50000",
"K  c #BA0000",
"L  c #B41212",
"P  c #C20000",
"I  c #C40000",
"U  c #C60000",
"Y  c #C80000",
"T  c #CA0000",
"R  c #CF0000",
"E  c #D50000",
"W  c #D70000",
"Q  c #DE0000",
"!  c #E00000",
"~  c #E10000",
"^  c #E20000",
"/  c #E70000",
"(  c #E90000",
")  c #EB0000",
"_  c #EE0000",
"`  c #EF0000",
"'  c #F00000",
"]  c #F10000",
"[  c #F20000",
"{  c #F30000",
"}  c #F40000",
"|  c #F50000",
" . c #F70000",
".. c #F80000",
"X. c #FA0000",
"o. c #FD0000",
"O. c #FE0000",
"+. c red",
"@. c #FF0404",
"#. c #FF0707",
"$. c #FE0808",
"%. c #FE0E0E",
"&. c #E41C1C",
"*. c #FE1111",
"=. c #FF1212",
"-. c #FF1414",
";. c #FF1C1C",
":. c #FF1D1D",
">. c #FE1F1F",
",. c #FF1F1F",
"<. c #FE2020",
"1. c #FF2121",
"2. c #FE3434",
"3. c #FE6464",
"4. c #F48484",
"5. c #FE8585",
"6. c #FF8585",
"7. c #FE8989",
"8. c #FE8B8B",
"9. c #FF9999",
"0. c #FE9A9A",
"q. c #FAC5C5",
"w. c #FFC6C6",
"e. c #FED7D7",
"r. c #FED8D8",
"t. c #FEDDDD",
"y. c #FEDEDE",
"u. c #FFDEDE",
"i. c #FFE2E2",
"p. c #FEECEC",
"a. c #FEFFFF",
"s. c None",
/* pixels */
"s.s.s.s.            s.s.s.s.s.s.            s.s.s.s.",
"s.s.s.s.@ # # # # @ s.s.s.s.s.s.@ # # @ O o s.s.s.s.",
"s.s.  2 G Y U U Y H 3   s.s.  3 H Y Y K g u %   s.s.",
"s.s.. 6 ~ +.+.+.+.^ 7 . s.s.. 7 ^ +.+._ B k * . s.s.",
"  1 V L 4.9.0.6.=.} J B > > B J | +.+...W P p t &   ",
"  5 ~ ,.t.a.a.u.>.+.+.! 1 1 ! +.+.+.+.+.+.' C z =   ",
"  4 ! ,.y.p.5.3.%.O.+.` m m ` +.+.+.+.+.+.` B j *   ",
"  4 ! 1.i.t.;.+.+.+.+.+.+.+.+.+.+.+.+.+.+.` B j *   ",
"  4 ! -.8.7.*.+.+.+.+.+.+.+.+.+.+.+.+.+.+.` B j =   ",
"  4 ! +.O.O.O.+.+.+.O.O.+.+.+.+.+.+.+.+.+.' B k =   ",
"  4 ! #.2.2.$.+.O.O.O.O.O.+.+.+.+.+.+.+.+.' B k =   ",
"  4 ~ ,.e.r.<.+.+.O.O.O.O.+.+.+.+.+.+.+.+.] V z ;   ",
"  3 U &.q.w.:.+.+.+.O.O.O.+.+.+.+.+.+.o.{ ~ v a -   ",
"s.s., q &.;.@.+.+.+.+.+.+.+.+.+.+.+.+.[ A c 4 $ s.s.",
"s.s.  2 E | o.+.+.+.+.+.+.+.+.+.+.O.X.( b s %   s.s.",
"s.s.s.s.0 y / +.+.+.+.+.+.+.+.+.+.{ S n 9 , s.s.s.s.",
"s.s.s.s.  3 Q +.O.+.+.+.+.+.+.O.O._ M f %   s.s.s.s.",
"s.s.s.s.s.: y d ) +.+.+.+.+.+.} K Z e 8 + s.s.s.s.s.",
"s.s.s.s.s.s.  3 ! +.+.+.+.+.+._ N h %   s.s.s.s.s.s.",
"s.s.s.s.s.s.s., l M ` +.+. .T F y w # s.s.s.s.s.s.s.",
"s.s.s.s.s.s.s.s.  3 ! +.+.' B h %   s.s.s.s.s.s.s.s.",
"s.s.s.s.s.s.s.s.  < V D R I p r $   s.s.s.s.s.s.s.s.",
"s.s.s.s.s.s.s.s.s.s.X - x x =   s.s.s.s.s.s.s.s.s.s.",
"s.s.s.s.s.s.s.s.s.s.  % i i %   s.s.s.s.s.s.s.s.s.s.",
"s.s.s.s.s.s.s.s.s.s.s.s.o o s.s.s.s.s.s.s.s.s.s.s.s.",
"s.s.s.s.s.s.s.s.s.s.s.s.    s.s.s.s.s.s.s.s.s.s.s.s."
};
