/* XPM */
static char *result[] = {
/* columns rows colors chars-per-pixel */
"32 32 6 1 ",
"  c black",
". c #E91E63",
"X c #607D8B",
"o c gray62",
"O c white",
"+ c None",
/* pixels */
"++++++++++++++++++++++++++++++++",
"++++++++++++++++++++++++++++++++",
"++++++++++++++++++++++++++++++++",
"++++++++++++++++++++++++++++++++",
"++++++++++++++++++++++++++++++++",
"++++++++++++++++++++++++++++++++",
"++++++++++++++++++++++++++++++++",
"++++++++++++++++++++++++++++++++",
"++++++++++++++++++++++++++++++++",
"++++++++++++++++++++++++++++++++",
"++++++++++++++++++++++++++++++++",
"++++++++++++++++++++++++++++++++",
"+++++++++++  ++++++++  +++++++++",
"++++++++++ XX O++++  XX ++++++++",
"++++++++++ XXX ++++ XXX ++++++++",
"++++++++++ XXXX    XXXX ++++++++",
"++++++++++ XXXXXXXXXXXX ++++++++",
"+++++++++ XXXXXXXXXXXXXX +++++++",
"+++++++++ XXX+ XXXXXO XX +++++++",
"+++++++++ XXX  XXX X  XX +++++++",
"+++++++++ X..XXXXXXXXX.. +++++++",
"+++++++++ X..X XX XX X.. +++++++",
"++++++++++ XXX       XX ++++++++",
"+++++++++++ XXXXXXXXXX +++++++++",
"++++++++++++          ++++++++++",
"+++++++++++o XX + XX +++++++++++",
"+++++++++++++   ++  ++++++++++++",
"++++++++++++++++++++++++++++++++",
"++++++++++++++++++++++++++++++++",
"++++++++++++++++++++++++++++++++",
"++++++++++++++++++++++++++++++++",
"++++++++++++++++++++++++++++++++"
};
