/* XPM */
static char *_8d6589237874728f5e9681f36f12703s04Li389Zza5Vkhh[] = {
/* columns rows colors chars-per-pixel */
"32 32 158 2 ",
"   c None",
".  c black",
"X  c #010000",
"o  c #020000",
"O  c #030000",
"+  c #070000",
"@  c #0F0000",
"#  c #120000",
"$  c #140000",
"%  c #170000",
"&  c #180000",
"*  c #1A0000",
"=  c #1C0000",
"-  c #1D0000",
";  c #1E0000",
":  c #220000",
">  c #250000",
",  c #260000",
"<  c #270000",
"1  c #280000",
"2  c #290000",
"3  c #2B0000",
"4  c #2D0000",
"5  c #300000",
"6  c #310000",
"7  c #320000",
"8  c #370000",
"9  c #3A0000",
"0  c #3C0000",
"q  c #420000",
"w  c #470000",
"e  c #450505",
"r  c #4B0000",
"t  c #4C0000",
"y  c #4D0000",
"u  c #4E0000",
"i  c #4F0000",
"p  c #500000",
"a  c #520000",
"s  c #530000",
"d  c #580000",
"f  c #590000",
"g  c #5A0000",
"h  c #5B0000",
"j  c #5C0000",
"k  c #5E0000",
"l  c #5F0000",
"z  c #600000",
"x  c #6A0000",
"c  c #6B0000",
"v  c #6E0000",
"b  c #730000",
"n  c #770000",
"m  c #790000",
"M  c #7B0000",
"N  c #7C0000",
"B  c #7D0000",
"V  c #7E0000",
"C  c #800000",
"Z  c #820000",
"A  c #840000",
"S  c #850000",
"D  c #860000",
"F  c #870000",
"G  c #880000",
"H  c #890000",
"J  c #8A0000",
"K  c #8B0000",
"L  c #8C0000",
"P  c #8D0000",
"I  c #950000",
"U  c #960000",
"Y  c #9A0000",
"T  c #9B0000",
"R  c #9C0000",
"E  c #9D0000",
"W  c #A00000",
"Q  c #A10000",
"!  c #A30000",
"~  c #A60000",
"^  c #A80000",
"/  c #A90000",
"(  c #AA0000",
")  c #AB0000",
"_  c #AC0000",
"`  c #B00000",
"'  c #B10000",
"]  c #B60000",
"[  c #B70000",
"{  c #BA0000",
"}  c #B81717",
"|  c #C40000",
" . c #C60000",
".. c #C70000",
"X. c #C80000",
"o. c #CB0000",
"O. c #D00000",
"+. c #D10000",
"@. c #D20000",
"#. c #D40000",
"$. c #D60000",
"%. c #D90000",
"&. c #DC0000",
"*. c #E30000",
"=. c #E40000",
"-. c #E70000",
";. c #EB0000",
":. c #F10000",
">. c #F30000",
",. c #F50000",
"<. c #F60000",
"1. c #F70000",
"2. c #F80000",
"3. c #F90000",
"4. c #FB0000",
"5. c #FC0000",
"6. c #FD0000",
"7. c #FE0000",
"8. c red",
"9. c #FF0101",
"0. c #FF0707",
"q. c #FF0A0A",
"w. c #FF0B0B",
"e. c #FF0C0C",
"r. c #ED1C1C",
"t. c #FF1212",
"y. c #FF1414",
"u. c #FF1A1A",
"i. c #FF1B1B",
"p. c #FF1F1F",
"a. c #E62525",
"s. c #FF2828",
"d. c #FF2A2A",
"f. c #FF2B2B",
"g. c #FF3A3A",
"h. c #FF4343",
"j. c #FF5B5B",
"k. c #FF5D5D",
"l. c #FF6868",
"z. c #FF6C6C",
"x. c #FF7575",
"c. c #F88888",
"v. c #FF9090",
"b. c #FF9797",
"n. c #FF9898",
"m. c #FF9999",
"M. c #FF9D9D",
"N. c #FFA7A7",
"B. c #FFC5C5",
"V. c #FDCECE",
"C. c #FFDADA",
"Z. c #FFE2E2",
"A. c #FFE6E6",
"S. c #FFE7E7",
"D. c #FFE8E8",
"F. c #FFE9E9",
"G. c #FFEAEA",
"H. c white",
/* pixels */
"          . . . . . . .                 . . . . . . .           ",
"          . . . . . . .                 . . . . . . .           ",
"          h k k k k k k 8             8 k k k k r 7 7           ",
"    . . 3 ;.8.8.8.8.8.8.h . .     . . h 8.8.8.8.o.D N % . .     ",
"    . . 4 ;.8.8.8.8.8.8.k . .     . . k 8.8.8.8.o.D N * . .     ",
". . c ( } c.b.b.m.x.0.8...( D + + D ( ..8.8.8.8.;.O.o.c h 0 . . ",
". . L 8.s.F.H.H.H.B.e.8.8.8.{ + + { 8.8.8.8.8.8.8.8.1.Y K u . . ",
". . L 8.s.A.H.A.C.N.q.8.8.8.| 3 3 | 8.8.8.8.8.8.8.8.>.Y K u . . ",
". . L 8.f.F.H.z.y.t.8.8.8.8.1.=.*.1.8.8.8.8.8.8.8.8.1.Y D r . . ",
". . L 8.s.F.H.k.8.8.8.8.8.8.8.8.8.8.8.8.8.8.8.8.8.8.>.Y K r . . ",
". . L 8.i.v.M.g.8.8.8.8.8.8.8.8.8.8.8.8.8.8.8.8.8.8.1.Y K u . . ",
". . L 8.8.8.8.8.8.8.8.8.8.8.8.8.8.8.8.8.8.8.8.8.8.8.1.Y D u . . ",
". . L 8.8.8.8.8.8.8.8.8.8.8.8.8.8.8.8.8.8.8.8.8.8.8.1.R D u . . ",
". . L 8.i.m.N.h.8.8.8.8.8.8.8.8.8.8.8.8.8.8.8.8.8.8.1.Y K u . . ",
". . L 8.s.G.H.l.8.8.8.8.8.8.8.8.8.8.8.8.8.8.8.8.8.8.1.R K a . . ",
". . Z =.a.V.Z.k.8.8.8.8.8.8.8.8.8.8.8.8.8.8.8.8.1.>.=.K n r . . ",
"    * = e r.p.e.8.8.8.8.8.8.8.8.8.8.8.8.8.8.8.8.$.I K , @ @     ",
"    . . 3 ;.8.8.8.8.8.8.8.8.8.8.8.8.8.8.8.8.8.8.O.K N % . .     ",
"      . , R ~ &.8.8.8.8.8.8.8.8.8.8.8.8.8.8.&.O.! h a % .       ",
"          . . R 8.8.8.8.8.8.8.8.8.8.8.8.8.3.! D a . .           ",
"          . . R 8.8.8.8.8.8.8.8.8.8.8.8.8.1.R K a . .           ",
"              w h Z 1.8.8.8.8.8.8.8.8.*._ ( u 7 ,               ",
"              . . 9 >.8.8.8.8.8.8.8.8.O.K N : . .               ",
"              . . 8 %.=.1.8.8.8.8.>.>...m b = . .               ",
"                    , , { 8.8.8.3.` I x % #                     ",
"                    . . ( 8.8.8.8.~ K k . .                     ",
"                    . . N _ [ O.o.N h q . .                     ",
"                        . . 3 D D 3 . .                         ",
"                        . . 3 Z Z , . .                         ",
"                            * 7 7 *                             ",
"                              . .                               ",
"                              . .                               "
};
