/* XPM */
static char *_c2e21235e994a1699c23e29aa67ca6cjLiMJKUWJhRK9El8[] = {
/* columns rows colors chars-per-pixel */
"64 32 244 2 ",
"   c #010B00",
".  c #070900",
"X  c #001300",
"o  c #001C00",
"O  c #0B1A07",
"+  c #161E0F",
"@  c #012300",
"#  c #0A2B09",
"$  c #033403",
"%  c #003A02",
"&  c #093808",
"*  c #172714",
"=  c #153715",
"-  c #14300E",
";  c #23301A",
":  c #1D2E2E",
">  c #29262B",
",  c #322B2D",
"<  c #2A372A",
"1  c #2C2A33",
"2  c #3A2D34",
"3  c #352C36",
"4  c #2B343A",
"5  c #293635",
"6  c #343334",
"7  c #3B3336",
"8  c #35343A",
"9  c #3B333C",
"0  c #343C3B",
"q  c #3B3A3C",
"w  c #363B35",
"e  c #36362D",
"r  c #3B1F2D",
"t  c #42383B",
"y  c #432D34",
"u  c #024303",
"i  c #024E01",
"p  c #094707",
"a  c #015401",
"s  c #025C02",
"d  c #0C570B",
"f  c #14580C",
"g  c #184518",
"h  c #175718",
"j  c #0E490F",
"k  c #264E1B",
"l  c #026403",
"z  c #016A01",
"x  c #086609",
"c  c #136D0D",
"v  c #077809",
"b  c #176816",
"n  c #0C7815",
"m  c #177818",
"M  c #0F6B12",
"N  c #25671C",
"B  c #23791B",
"V  c #1B5725",
"C  c #164D22",
"Z  c #274926",
"A  c #285829",
"S  c #374A38",
"D  c #365838",
"F  c #304E2E",
"G  c #197921",
"H  c #1C672F",
"J  c #286929",
"K  c #267725",
"L  c #296733",
"P  c #366739",
"I  c #287835",
"U  c #377538",
"Y  c #31712D",
"T  c #43453D",
"R  c #475637",
"E  c #476D3B",
"W  c #2D3B41",
"Q  c #3A3944",
"!  c #3B334A",
"~  c #482B43",
"^  c #473A46",
"/  c #483852",
"(  c #54354E",
")  c #374646",
"_  c #3A5143",
"`  c #3D7445",
"'  c #4A444C",
"]  c #464849",
"[  c #455844",
"{  c #544958",
"}  c #475553",
"|  c #585657",
" . c #50504D",
".. c #64555B",
"X. c #476448",
"o. c #477847",
"O. c #556959",
"+. c #547153",
"@. c #646F5C",
"#. c #655E67",
"$. c #696868",
"%. c #657766",
"&. c #697974",
"*. c #7A7A78",
"=. c #77716B",
"-. c #556E64",
";. c #857B79",
":. c #927D7A",
">. c #0B870C",
",. c #11890C",
"<. c #18861B",
"1. c #1A941B",
"2. c #0F851E",
"3. c #20911B",
"4. c #1A8825",
"5. c #278829",
"6. c #269429",
"7. c #38873B",
"8. c #2C9634",
"9. c #389939",
"0. c #32892E",
"q. c #2AA629",
"w. c #37A63B",
"e. c #34AF35",
"r. c #41953C",
"t. c #42B03F",
"y. c #3A894B",
"u. c #359248",
"i. c #3CA646",
"p. c #3BB343",
"a. c #468549",
"s. c #489942",
"d. c #568856",
"f. c #469F54",
"g. c #589758",
"h. c #508B4E",
"j. c #699457",
"k. c #49A747",
"l. c #53A74A",
"z. c #49B548",
"x. c #49A855",
"c. c #57A956",
"v. c #4CB856",
"b. c #5CB35C",
"n. c #56B859",
"m. c #59B34F",
"M. c #65A85B",
"N. c #62B75D",
"B. c #73A55B",
"V. c #5E9E63",
"C. c #5A8561",
"Z. c #689E68",
"A. c #7C8C7C",
"S. c #778477",
"D. c #718C70",
"F. c #57A864",
"G. c #5AB965",
"H. c #67A768",
"J. c #76A869",
"K. c #64BB64",
"L. c #68B668",
"P. c #74B96A",
"I. c #77AB74",
"U. c #75B878",
"Y. c #6BAD73",
"T. c #59C659",
"R. c #4EC751",
"E. c #64CA5B",
"W. c #5CC466",
"Q. c #58D168",
"!. c #67C569",
"~. c #73C66B",
"^. c #69D667",
"/. c #6AC673",
"(. c #7CCB7B",
"). c #75C774",
"_. c #6BD576",
"`. c #76D777",
"'. c #72D66F",
"]. c #72E16E",
"[. c #83847D",
"{. c #838D7D",
"}. c #89857A",
"|. c #82917C",
" X c #86B977",
".X c #8BB173",
"XX c #85C57A",
"oX c #8FD079",
"OX c #7C7985",
"+X c #7E7592",
"@X c #857D82",
"#X c #897F9A",
"$X c #7C8B85",
"%X c #788985",
"&X c #799583",
"*X c #78D883",
"=X c #70CE82",
"-X c #838383",
";X c #898483",
":X c #848C84",
">X c #8B8C84",
",X c #8B8B8B",
"<X c #89848A",
"1X c #918A84",
"2X c #968787",
"3X c #8A938B",
"4X c #889586",
"5X c #959589",
"6X c #8A8695",
"7X c #939C93",
"8X c #999998",
"9X c #948E96",
"0X c #99A497",
"qX c #8CA98A",
"wX c #A7A89D",
"eX c #9791A4",
"rX c #AC9BAA",
"tX c #A7A8A6",
"yX c #B8B8BA",
"uX c #ABB3AD",
"iX c #9DA1A0",
"pX c #89CA83",
"aX c #98C385",
"sX c #86D984",
"dX c #95D588",
"fX c #A5D596",
"gX c #A8C995",
"hX c #8EE28D",
"jX c #A9EE9B",
"kX c #BBF9A8",
"lX c #AEECA3",
"zX c #BBC2BA",
"xX c #D8FCB8",
"cX c #C7F4B1",
"vX c #BDD0C9",
"bX c #D1D5D5",
"nX c #D9FFC6",
"mX c #D9F0D1",
"MX c #E4FECA",
"NX c #E8FEC8",
"BX c #F1FFCB",
"VX c #E9FFD4",
"CX c #F1FFD4",
"ZX c #D6D1E5",
/* pixels */
"< F S W / / ! ! W W t T _ ) ! / Q W W Q 0 5 5 4 4 4 4 0 W 8 3 1 ^ t < < e 9 y 3 > < < 0 Q 3 5 Z 5 4 0 q Q 8 8 1 4 8 6 1 < w 5 < ",
"F w ) W / ( / ! ) W t y < : 3 ! Q 8 0 ) ) ) } } } ) ' ) ] ' ' { { ' S S ] ' / / [ S S 0 3 ! 5 S 0 0 0 1 > 1 8 ^ 3 9 9 6 , < < < ",
"e t ) W ~ ( / Q 4 t | ..$.$.OX@X@X;X}.;.-X-X-X*.-X-X<X-X@X;X<X<X#X6X%X%XOX#X6X6X&.D.&.OX#X+X#.&...$.$.$...^ 2 , 2 2 7 7 e , , 7 ",
"t t q Q ~ ( { { -X,X}.}.%X;X@X#X;.;.;.}.;X,X[.*.[.-X>X-X;X}.;X;X6X6X&X&X$X6XeXeXvXvXbXZXZXZXyXiX0X5X1X1X2X@X=...^ 7 2 2 7 2 2 7 ",
"t t Q Q ~ ..&.OX=.}.}.}.4X3X3X:X2X5X}.|.>X4X4X:X{.|.:X&X:X|.$X,X6X<XA.A.6X6X9X9X5X0X0XwXrXrXwX0X|.}.}.}.}.5X>X[.=.| q 1 , 7 7 9 ",
"T t W Q { *.6XiXqX|.D.%.+.+.[ S F < < ; = - # # = # # & - = = = * = & % - * * * # & - * , e e Z R X.@.%.D.S.|.7X7XS.| S > , 3 8 ",
"t 9 0 ) &.&X&XC.E k @ @ o X o $ @ @ $ g g $ % p % u j C V C j & % d M M d % # % a f f $ @ # % $ o X X o # k R @.D.A.A.} 5 : 4 4 ",
"q 6 S O.%X&X+.C & - A h.d.U A L A Y o.H.H.U H J H I y.F.G.F.I b I i.R.R.u.5.H K l.z.9.B N U k.m.E P A k k A g & ` Z.&X%.) 5 5 4 ",
"9 q T D.qXD & = P d..XqX Xg.g.V.c.h.Z.U.L.c.f.c.F.x.f.G.=XG.x.x.i.R.Q.Q.R.k.x.c.^.E.z.s.a.g.~.~.j.d.h.E o.J.J.A # Z B.|.O.> 4 4 ",
"~ t | }.+.k k j.wXoXoXfXfXfXdXsXpXXXXXU.pXpXg.L./.G.F./.*X/.F.G.F.W.^.Q.W.b.c.F.T.].E.N.pXdXhXoXfXgXgXqX X.X.Xh.A k +.}.=.6 1 Q ",
"~ ( =.}.E E oXBXNXBXNXNXVXVXmXnXmXVXxXdXlXjXf.L.)./.L.K.*X).K.P.Y.L.^.].U.H.I.J.~.jXdXfXVXVXnXMXNXNXNXCXCXVXNXMXJ.R R ;.1X( r ~ ",
"y ( :.}.A B.cXBXNXBXNXxXxXcXnXcXkXcXkX XdXfXM.L.P.U.L.F.).U.M.Y.I.H./.`.I.I.I.Z.~.fXXXoXcXmXcXnXCXBXMXxXNXNXxXxXcX@.k @.5X..r y ",
"( ^ }.@.U P.xXxXxXlXoX.X.X.XoXsXJ.B.XXB.M.pXP.L.L.(.L.c.(.).M.L.U.F.W.*X/.Y.=XZ.~.).L.H.Y.I.XXpXJ..X.XJ.oXkXxXNXNX.XF R }.=., r ",
"^ T }.E s.N.kXcXoXoXP.J.B.B.P.`.).l.XXXXc.P.(.c.c.(.L.c.(.(.G.L.=Xv.Q.]./.G.U.F.!.^.!.P.V.V.).~.j..X.Xj.M.).jXcXjX Xk F D.;.y y ",
"_ O.qXY 3.q.R.oXB.B./.).P.c.R._./.x.K.sXb.b.*XW.x._.W.x._.(.n.G.).x.R.^.W.K.).b.z.^.!.N.Y.M.!.`.L.U.(./.c.n.'.`.N.N.b V C.D.5 1 ",
": -.A.k ,.t.t.E.E.m.T._.~.n.v.Q.`.G.G.sXG.x._.G.x.*XW.x._._.x.G.=Xl.T.^.n.b.).b.k.].E.m.P.b.m.`.G.c./.`.W.R.T.z.6.z.b H C.D.< 5 ",
") O.&XV d n x.z.R.z.t.E.].].z.v.'.T.n.!.W.n.G.!.n.G.!.v.W._.n.n.!.N.v._.!.b.!.W.v.T.~.M./.m.N.`.`.z.Q.R.R.,.q.e.q.z.f N C.D.e 6 ",
": -.&XC C a c 1.e.e.q.q.t.T.v.m.'._.E.'.`.W.!.G.c.)._.c./.*Xn.K.).b.n.`.~.c.^.!.G.^.oXN.!.v.s.m.z.1.q.e.e.,.1.q.,.e.f g @.D.7 7 ",
": &.&XA U d a z ,.q.q.>.q.w.9.m i.E.l.P.oXK.(.~.s.(.~.s.~.).k.E.~.l.c.`.l.s.!.W.8.9.N.r.w.9.B 0.p.v ,.e.e.,.,.3.x 0.N j +.{.6 9 ",
"5 %.A.F ` Y x s a v 1.>.q.e.q.l m k.b 9.l.K 9.7.m c.9.B m.k.<.l.l.B 8.m.B B r.i.n m l.b 8.9.b B z.>.>.q.q.,.v v l K Y g %.:X6 9 ",
"5 | A._ A U 5.s s z >.z <.1.4.v 6.i.n 9.v.2.8.i.n i.2.2.e.1.v z.9.c 6.w.c c 9.w.<.m k.M 4.w.M m 6.z z 1.1.v z v l K U C D.-X> 3 ",
"8  .4X%.& A r.b c z v v v n n x n n a 4.8.x G 8.4.6.v 4.q.v >.t.6.c 6.6.x n 8.w.v x 5.a 2.4.s z <.z l 4.<.n z c f J L D A.%.> Q ",
"q q ,XA.g g Y K s a l m n 4.4.5.m M d 5.5.d s M 5.c s n n s v 3.x s n v i x 2.4.z z c s m 2.l l m x z 6.<.<.x a d V A _ 3X| > { ",
"q 2 =.{.F = g Y b d s m l 5.8.9.d d b Y I b b d r.b x B l l 5.3.x x G l a M G 5.l x M s 6.4.b d M x s 5.B K d u u k Z O.iX' 3 #.",
"t 2 | :X%.Z k a.h u u a a G u.G u b E c.` d d p K K N x i c 0.B f f d i j N N B d d j f N N h p i i d b b d u p o.A F 3X%X1 #.^ ",
"9 3  .S.{.X.< Z o.L L b p h J h % h U h.U p & u u h f u % s c f % & u $ & g k f u $ $ & f f p # p i h L U ` o.d.g D %.3X| 1 ' / ",
"t , 7 $.3XA.X.< = Z X.d.C.H.F.` a.Z.Y.&XY.` L P L y.y.Y I I 7.7.Y I I H I ` y.7.I I Y y.y.u.y.y.` o.d.d.o.D = # F O.7XS.0 ' 8 ^ ",
"^ 6 ,  .*.3XA.O.[ = X X   # C & = ` ` a.-.` F P F X.` A L L A L A L H H A A H H H H A Z C j C & = $ o X X # S X.*.:X,X| 9 #.' Q ",
"w q q 6  .%X9X7X3XS.%.-.O.X.F * 5 O.R [ T + . . O * O . X   .   .   X     . . .     . . O + + ; * = D O.@.S.A.,X8X>X$.w ] | ..2 ",
"6 S w 6 6 { *.,X$X6X,X-X,X3X7X7XS.wXwXuXtX2X:.@X9X2X;X*.;.[.S.;X;.;.;.*.@X:.*.*.,X>X2X2X}.}.@X;X:X4X3X4X,X:X-X*.*.#.7 2 ] 6 | > ",
"6 w q 8 6 9 ' { OX6X9X@X<X7XiXyXzXbXmXZXbXyXyXyX8X6X<X-X-X-X,X>X;X[.%X%X;X<X$X$X%X%X;X-X:X$X<X1X:X:X[.[.@X2X@X@X' 9 2 ' t , | e ",
"w w 6 q q 9 9 ! ! { #.$.OX<X6X3X3X0XuXuXiX8XrXtXrX-X@X<XS.<X,XS.<X:X%X%X-X$X%X%X%X%X-X:X%X%X%X;.[.:X*.=.$.#.^ > t , 6 #.t T | ] "
};
