/* XPM */
static char *_65dd61537744b8dca41ab873616be55pZXScsqim13OsFRl[] = {
/* columns rows colors chars-per-pixel */
"64 32 235 2 ",
"   c #020202",
".  c #010B01",
"X  c #0C0C0C",
"o  c #07020A",
"O  c #001501",
"+  c #011C01",
"@  c #081B07",
"#  c #141414",
"$  c #1B1B1B",
"%  c #141817",
"&  c #141213",
"*  c #012201",
"=  c #082B07",
"-  c #003E01",
";  c #073608",
":  c #172E17",
">  c #183618",
",  c #223D1E",
"<  c #232323",
"1  c #2D2D2D",
"2  c #262C28",
"3  c #273A27",
"4  c #343434",
"5  c #3B3B3B",
"6  c #353538",
"7  c #302F35",
"8  c #453A3D",
"9  c #014301",
"0  c #024A02",
"q  c #0C490B",
"w  c #055503",
"e  c #025B01",
"r  c #0C580A",
"t  c #144314",
"y  c #1B4319",
"u  c #1D481D",
"i  c #155612",
"p  c #14530C",
"a  c #224E1C",
"s  c #026301",
"d  c #096709",
"f  c #0B760A",
"g  c #186A19",
"h  c #1B741C",
"j  c #177816",
"k  c #107010",
"l  c #244224",
"z  c #274A27",
"x  c #354C27",
"c  c #2A5827",
"v  c #33582A",
"b  c #2E4834",
"n  c #334839",
"m  c #2E5931",
"M  c #3A5838",
"N  c #1D6921",
"B  c #1F7326",
"V  c #286A25",
"C  c #31642D",
"Z  c #257725",
"A  c #33782E",
"S  c #396737",
"D  c #3B7439",
"F  c #377537",
"G  c #45463B",
"H  c #44563A",
"J  c #427A3B",
"K  c #3E3D44",
"L  c #453B43",
"P  c #4B3947",
"I  c #4D3B54",
"U  c #55314A",
"Y  c #3B4743",
"T  c #3B5846",
"R  c #434344",
"E  c #4B4345",
"W  c #4C454D",
"Q  c #4A4B4A",
"!  c #494946",
"~  c #485A48",
"^  c #4D4B51",
"/  c #534453",
"(  c #574A56",
")  c #4E5751",
"_  c #535353",
"`  c #5C5C5C",
"'  c #595657",
"]  c #564F45",
"[  c #496A49",
"{  c #477946",
"}  c #4D6854",
"|  c #596759",
" . c #587956",
".. c #53724B",
"X. c #657655",
"o. c #645666",
"O. c #6D5873",
"+. c #70526A",
"@. c #516762",
"#. c #646464",
"$. c #6C6C6C",
"%. c #697968",
"&. c #79687A",
"*. c #6D7671",
"=. c #747474",
"-. c #7C7C7C",
";. c #797678",
":. c #73676E",
">. c #827D7D",
",. c #82777F",
"<. c #856B7E",
"1. c #198717",
"2. c #178E19",
"3. c #1C8020",
"4. c #258627",
"5. c #279C27",
"6. c #2C8730",
"7. c #338935",
"8. c #3A993C",
"9. c #2BA12D",
"0. c #39A737",
"q. c #3BB23E",
"w. c #32A02F",
"e. c #46B23A",
"r. c #51AB3C",
"t. c #3F9B44",
"y. c #3FB142",
"u. c #4D844C",
"i. c #4A884B",
"p. c #489B4B",
"a. c #4E9755",
"s. c #559858",
"d. c #528753",
"f. c #62815D",
"g. c #718257",
"h. c #65975B",
"j. c #45A549",
"k. c #4AB648",
"l. c #4EAD54",
"z. c #53A455",
"x. c #52AB53",
"c. c #58AB5A",
"v. c #59B55D",
"b. c #54B359",
"n. c #65A85F",
"m. c #62B158",
"M. c #5D9160",
"N. c #639966",
"B. c #7D8B7C",
"V. c #798678",
"C. c #6D9475",
"Z. c #789377",
"A. c #6F8B6F",
"S. c #5DB463",
"D. c #5FAD62",
"F. c #67B767",
"G. c #78B879",
"H. c #6EAD68",
"J. c #5FC74D",
"K. c #5ACB5D",
"L. c #4CC043",
"P. c #6AC554",
"I. c #67C66A",
"U. c #72C56C",
"Y. c #67D569",
"T. c #6ECC74",
"R. c #69C871",
"E. c #78C778",
"W. c #75D478",
"Q. c #72D36E",
"!. c #82897E",
"~. c #85947C",
"^. c #81BB7A",
"/. c #8FAE76",
"(. c #89D36D",
"). c #84C479",
"_. c #89D67F",
"`. c #8FE373",
"'. c #7C7385",
"]. c #877B89",
"[. c #90778E",
"{. c #7E8882",
"}. c #7C928A",
"|. c #6B8681",
" X c #7BAF84",
".X c #7DC882",
"XX c #7EE589",
"oX c #848483",
"OX c #848C84",
"+X c #8C838B",
"@X c #8A8A8B",
"#X c #888787",
"$X c #928F8B",
"%X c #849283",
"&X c #8D918A",
"*X c #889788",
"=X c #8E8794",
"-X c #958A97",
";X c #8D9495",
":X c #939393",
">X c #9B9A9A",
",X c #99969B",
"<X c #A38F9B",
"1X c #82BE83",
"2X c #96A297",
"3X c #8BAF83",
"4X c #A5BA82",
"5X c #9C8DA3",
"6X c #9D9AA3",
"7X c #A49CA5",
"8X c #9EA2A1",
"9X c #A7A8A7",
"0X c #B2B2B2",
"qX c #BCBDBD",
"wX c #ADACB2",
"eX c #86C885",
"rX c #83D687",
"tX c #8FD692",
"yX c #96CF8D",
"uX c #B8F99F",
"iX c #B6CDB6",
"pX c #BEFFB7",
"aX c #AAF7A9",
"sX c #83ED88",
"dX c #C8FFBB",
"fX c #D4FEBC",
"gX c #DBFDBE",
"hX c #CEFFAD",
"jX c #C4C5C5",
"kX c #D1D8CF",
"lX c #D4FEC4",
"zX c #D7FFC7",
"xX c #CDFFC7",
"cX c #E7FFCA",
"vX c #E4FFD3",
/* pixels */
"G G E ( / I U / G n b n P U U I Y ` './ &.o.o./ E G ] ] 8 E / P P E ! ! R R R R G E R G K 5 5 8 4 5 5 4 4 4 6 6 5 5 1 6 Q _ 5 2 ",
"G G E W I P U P _ }  .| :.<.'.'.=.>X+X-X[.-X&.>.;.;.;.;.>.,.[.].].-.oX-.-.-.oX#X=.;.=.;.=.$.$.$.$.#.| ' _ Q 5 6 6 4 6 ! ' ! 6 5 ",
"] Y n K / +.<.#XA.}.Z.Z.OX=X[.'.}.2X#X9X=X9X-.#X~.*X~.!.#X#X].-X#X@X#XOXoX@X:X:XqXqXjXjXjXqX0X0X>X:X@X@X@XoX;.=._ G 4 Q _ 6 4 _ ",
"8 K T @.<.[.+XOXC.C.Z.~.*X;X;X;X2X*X2X2X9X:X@X*X%X~.~.B.*X@X#X:X@X@X@X#X#X@X:X>X8X9X9XwX0X0XwX9X:X:X@X@X@X@XoX-.oX#.Q Q ! 4 6 ` ",
"8 Q @.|.=X,X$X!. XN.d.X.} M Y ) M l T b T 2 3 > : > > , 3 3 1 4 1 1 1 4 1 1 4 4 7 7 4 5 5 G L G ' ` #.$.=.oX$X>X:X&X;.#.! 1 6 #.",
"E | |.}.#X;.#.) = * + * + + = z z t u z > * * * = = y > *                                           X % < 6 Q | =.@X>X@X` 1 6 $.",
"R $.;X;X@.3 : @ S S F v x x H { u.d.M.N.S S S C F F s.h.> . O                     . o     o X X X X X o o X # $ 5 ' oX>X-.G 4 #.",
"$.{.}.) > : H X.H. XE.s.g.g.h.s.M.H..X XM.u.a.a.p.i.eXG.y O .                           o .   X X X X X # # $ $ : < _ :X:X_ 4 _ ",
"+XV.#., , !././.4XyXyXyX/.4X).).).G.G.tXF.s..X XF.s.G.tXt O .                             o X   o o X X X # # $ $ < 1 o.>X;.n 5 ",
"-.V.b M iXgXgXcXlXxXlXzXcXcXzXzXpXaXrXaX.XD.S.R.F.z.F.tXt .                                     . X X # X # # $ < < 1 ' &XoXE 6 ",
"$X| S G.gXhXcXcXlXdXfXfXgXgXfXpXpXaXU.aX.XF.l.I.R.b.F.eXt . .                               o . X o X X X # # $ < < 1 W ].@X` 4 ",
"~.M d.tXcXhXgXuX_.).^./.yX).E.F._.).p.G..XR.p.I.W.S.c.eXt .                                 X   . X X X X # # $ < < < K $.$X$.4 ",
"%.J a.b.hXhX(.(.U.m.h.H.^.).U.I.I.U.c.m.E.E.l.v.T.R.x..Xu .                                 . o o X X X X # $ $ < < 2 4 _ @X!.4 ",
"X.c c.r.Y.`.r.r.Q.U.H.H.H.).W.Q.F.).E.z.E.W.v.l.T.T.s.1Xz .                                 o . X . X X X # $ $ < < 1 1 Y #X@X5 ",
"{ 9 8.j.e.J.P.m.m.Q.E.F.n.F.T.R.z.E.E.n.S.rXb.x.T.W.a.eXz .                                 o o X o X X X # # $ < $ 4 1 6 -.:XL ",
"u.p w 4.e.L.r.J.e.Q.sXU.n.F.R.T.j.E.E.I.x.rXb.v.I.W.a.1Xb                                 o . o X X X X X # # $ < $ 6 4 1 =.:X! ",
"{ a p p k w.e.r.9.5.K.XXY.l.I..XS.K.Y.Y.l..XS.b.K.W.b.G.3                                   X     X X X & # # $ $ 1 1 4 8 $.>X_ ",
"..v V p w j 1.w.9.2.q.K.L.8.y.S.l.t.K.K.y.R.S.l.Y.Y.x.).b . . .                                   X X X X & % $ < < 2 4 4 #.:X#.",
"..C J V 0 e d 1.2.2.2.y.k.6.3.t.4.3.y.q.B t.t.B k.w.4.H.3                             o   o   X   X X X X & # $ < $ 2 4 4 #.$X` ",
"f.S H J g e e s 1.1.1.9.y.Z k 6.B j 9.q.f 6.B g 0.1.h N.,   . .                       .         o X X X X & $ $ < $ 1 4 6 $.oXR ",
"Z.v y D F i s s f f f 3.t.j e B d f 9.9.f 6.B g w.f Z s.:   . .                             X X X X X X X & % $ $ < 7 1 E oX;.1 ",
"~.H = c D N r s k j j 4.8.j e g e s 1.1.d N r g 1.s h D *                                 o     X . X X & & # $ < 1 2 < _ &X$.1 ",
"~.f.y y S V i w w k j h 6.h r d d k 2.f d N 0 N d s Z c % . . .                             o .     X X X & # $ $ 1 2 1 *.:X_ 4 ",
"B.*XH l H C i 9 9 w d g Z h r r w h 1.f r N ; A e s V t O                               . o   o X X X X & & % $ $ 1 1 5 #X@X4 1 ",
"%.OX%.x z [ u.C q q p p i r 0 - 0 w s e 9 ; ; q 9 9 - ; % o                                 o . . o X X # # % # $ # 5 ;.@Xo.n 6 ",
"! !.2X%.3 = y v u.u.u.i.d.i.{ F F F 7.A A m m m V Z D M 2 o   .                 o       o . o   # X & & X # $ $ 1 8 #.@X!._ 4 4 ",
"5 ' V.;X~.| x = O O * ; u z m m c v V A S } } } F F { T 7 o                                               # < 5 ` =.@X@X#.5 7 6 ",
"^ ) | ;.@X~.-.A.X.[ H l : * O O O O O O . . .   O O O + & & X X                         X X # $ < 1 6 R _ $.-.@X@X:X:X$.! 1 4 8 ",
"7 R ` =.{.@X$XOX&X%X!.B.B.{.}.}.*.%.f.f.A.;.'.*.A.d. .%.&.'.$.#.$.=.=.$.=.=.$.=.=.=.;.;.-.oX#X@X@X@X@X@X@X@X#XoX@XoX#.! 4 4 4 6 ",
"_ R 6 6 ^ ;.+X>.>.>.OX&X8X0XjXjXkXkXkXiXqXwX5X].Z.A.C.{.[.=X5X,X@X#X#X#X#X#X#X#X#X#XoXoX#X#X@X@X-.-.oX@X:X:X@X-.| _ G 1 4 6 5 1 ",
"7 K W W ^ ( ' ' ;.&.,.].#X=X,X6X<X,X2X2X6X5X[.].%X*X*X@X[.[.].+X@X#X#X#X#X@X@X#X:X@X@X@XOX#X#XoX@X#XoX-.=.#.' Q 8 6 4 1 4 5 4 4 ",
"^ Y K L P L 8 L 8 P 8 P W ^ _ ( o.o._ ' o.+.'.o.} }  .| O.'.$.$.#.#.#.#.#.` #.#.` ` ` ` ' ' _ _ R R R 5 5 4 4 1 4 6 4 4 4 4 4 4 "
};
