/* XPM */
static char *ff46647414014709fde72c1f77779cbf0t0hfe7gUps9ViRS[] = {
/* columns rows colors chars-per-pixel */
"64 32 209 2 ",
"   c #020202",
".  c #0B0200",
"X  c #0B0B0B",
"o  c #140000",
"O  c #1B0301",
"+  c #180B04",
"@  c #141414",
"#  c #1B1B1B",
"$  c #250401",
"%  c #230D05",
"&  c #380501",
"*  c #261707",
"=  c #35140B",
"-  c #311007",
";  c #2F1B1C",
":  c #3F291E",
">  c #1A1F22",
",  c #232323",
"<  c #242C2D",
"1  c #2B2B2B",
"2  c #29262B",
"3  c #34242C",
"4  c #332B2E",
"5  c #22312E",
"6  c #2B2D31",
"7  c #222D31",
"8  c #352C33",
"9  c #3A2C34",
"0  c #253331",
"q  c #2B3433",
"w  c #2B3936",
"e  c #2F3F3F",
"r  c #333333",
"t  c #3B3233",
"y  c #343539",
"u  c #3B343B",
"i  c #353C3C",
"p  c #3B3B3B",
"a  c #460100",
"s  c #441918",
"d  c #5A191D",
"f  c #4B2019",
"g  c #55231A",
"h  c #591A22",
"j  c #671C21",
"k  c #592929",
"l  c #422D37",
"z  c #42383D",
"x  c #5B3734",
"c  c #533A3E",
"v  c #5B3E3A",
"b  c #56322A",
"n  c #6E3939",
"m  c #702E31",
"M  c #760D11",
"N  c #33413E",
"B  c #5B453C",
"V  c #77443D",
"C  c #3E3A40",
"Z  c #493B45",
"A  c #533A45",
"S  c #683B44",
"D  c #3B4745",
"F  c #3D524D",
"G  c #444444",
"H  c #4B4B4B",
"J  c #484949",
"K  c #594948",
"L  c #554E53",
"P  c #4C5954",
"I  c #535353",
"U  c #5C5C5C",
"Y  c #595656",
"T  c #47524A",
"R  c #68474C",
"E  c #714445",
"W  c #64554D",
"Q  c #76524D",
"!  c #635758",
"~  c #795656",
"^  c #53625D",
"/  c #5B615D",
"(  c #6A6257",
")  c #6A5C64",
"_  c #5C6865",
"`  c #5C716C",
"'  c #626262",
"]  c #6C6C6C",
"[  c #656B69",
"{  c #786667",
"}  c #78736C",
"|  c #6E7471",
" . c #727272",
".. c #7B7B7B",
"X. c #797A77",
"o. c #70706F",
"O. c #9A0D17",
"+. c #891218",
"@. c #911E2B",
"#. c #A71826",
"$. c #8E2E2D",
"%. c #96262B",
"&. c #863639",
"*. c #A7242C",
"=. c #B1232F",
"-. c #AB2732",
";. c #B92936",
":. c #B7363C",
">. c #C52836",
",. c #8F443F",
"<. c #9B3B47",
"1. c #A83542",
"2. c #C83B48",
"3. c #D03A46",
"4. c #85595A",
"5. c #97504D",
"6. c #BB484A",
"7. c #AC4D4F",
"8. c #906056",
"9. c #A4615C",
"0. c #B55C65",
"q. c #996967",
"w. c #887676",
"e. c #957B7D",
"r. c #987678",
"t. c #8B6D62",
"y. c #AF796F",
"u. c #AD6E6A",
"i. c #C74C55",
"p. c #D74954",
"a. c #C95758",
"s. c #D6555A",
"d. c #E4525C",
"f. c #C96F56",
"g. c #D85465",
"h. c #C75B69",
"j. c #EB5C67",
"k. c #F35D69",
"l. c #D87270",
"z. c #E6766B",
"x. c #E86D6F",
"c. c #7B847C",
"v. c #798476",
"b. c #AE875E",
"n. c #87837C",
"m. c #96857D",
"M. c #B48566",
"N. c #B6916B",
"B. c #A88673",
"V. c #BA957C",
"C. c #D78259",
"Z. c #DB9A6F",
"A. c #C9987A",
"S. c #D19371",
"D. c #E68B6A",
"F. c #FF9B7E",
"G. c #F39279",
"H. c #D7A277",
"J. c #F2A57B",
"K. c #807E81",
"L. c #967F81",
"P. c #A17781",
"I. c #7E8C84",
"U. c #858584",
"Y. c #8D8381",
"T. c #838C83",
"R. c #8B8B8B",
"E. c #8D8882",
"W. c #968C8C",
"Q. c #958787",
"!. c #88918B",
"~. c #92928C",
"^. c #989187",
"/. c #949494",
"(. c #9A9A9A",
"). c #B89186",
"_. c #A89799",
"`. c #A6868A",
"'. c #A3A49E",
"]. c #BDAA89",
"[. c #A5A5A5",
"{. c #AEAEAE",
"}. c gray70",
"|. c #BBBBBB",
" X c #D38480",
".X c #E89186",
"XX c #CFAA97",
"oX c #E2A89A",
"OX c #F3AF8B",
"+X c #E5B6A5",
"@X c #F0BFB0",
"#X c #E7AFA0",
"$X c #B8C4BA",
"%X c #D2C1A5",
"&X c #EACAA8",
"*X c #FFC9A6",
"=X c #EAC2B3",
"-X c #F6D9BC",
";X c #EED0BA",
":X c #FFE0BB",
">X c #CECECE",
",X c gray77",
"<X c #CED3CF",
"1X c #D3D3D3",
"2X c #FFE7C4",
"3X c #FFEED2",
"4X c #FFF1D4",
"5X c #FFF5DA",
"6X c #FFFAE3",
/* pixels */
"! c K ) l A Z 3 8 8 4 8 8 t t t p p r r r r 6 r r r 4 r r 4 r r r p r 1 p u r r r I G p i 1 r r r H U r r r G r p r 1 p p r r r ",
"K ! ! L L H 3 u Z u y 8 8 1 1 1 , < , 1 1 1 1 1 6 r 1 r r r q 4 r p r 1 r r 1 r C J r 1 r 4 p 1 , p I r p r C r p p r p p r r p ",
"G I ! D J N > i , 2 6 w N G T P Y U U U U ' ' ' U U / U U U U U U _ Y Y / U U ' [ [ I Y ' U ' H H I U H G 8 1 2 r r r p p r r p ",
"^ N ^ w < 5 i D ^ ` ..I.!.!.c.c.U.U.U.U.U.U.U.R.R.R.R.R.R.R.R.R.U.~.R.R.R.U.R.(.}.{.[.|.|.|.{./.R.U.R.U.I.] ) U p p 6 r r r r r ",
"` F P 0 q D [ | !.R.U.c.v.v.I.!.~./.R./.R.R.R.R.R.~.R.R.R.R.R.R.R.R.R.R./.U.R.[.}.}.}.1X1X>X>X{.(.R.R.(./.R.n.I.] U p r r p r r ",
"F _ D 6 [ ..w._.n.m.E.^.n.n.] / Y Y I I I H J H J J J J H H J J J J J J H G H ' H J Y X...X.U.] o.] ] U.U.R.R.(./.n.' G r r p r ",
"0 ' 8 H Q.Q.w.w.Q v ; $ o o + +                                               # .   X r u t N #   X # p 1 G H ] ..R.U.[ J r r p ",
"p ) z w.L.r.4.s s k V 4.t.Q k - X       .     .                       .     X 2 @   # H H J D @ X 1 r p X X X 1 G  .(.U.Y r r p ",
") 8 ! _.m.f f x 4.y.oX+X Xr.r.O .                                       .     # >   X p G I B X p H G , X @ # # # , ' W.R.p r u ",
"Z Z W.w.B x 9.#X#XoX+X=X=X=XXXO X                                             # ,     2 G H < @ J G q @ X @ # # , 2 H X.R.I p r ",
"7 I '.W B ).;X4X4X4X4X3X5X6X;X*     .                                       . # @     X 0 1 X r I r # X X # # # 1 , r U ~.o.G 6 ",
"7 [ ~.K t.;X5X4X:X:X:X&X&X-X%X+ .                                           X # @   X   . X X H J 1 X . @ # # # , , , N U.U.J r ",
"C K.w.W B.+X4X:X*XOXH.b.B.XX].X .                                             @ 1   X X   X 6 Y r # . X @ @ @ # , 2 2 r ] R.H p ",
"Z K.{ Q M.XX*XOXZ.Z.H.S.N.A.V.* .                                 .           X i .   X   , I G @ X X X @ @ # # # 1 r r Y R.I p ",
"A P.4.n y.C.G.D.f.C.G.OXH.M.b.* .                                               # >       2 H 1 X X X X X @ # , , 2 y 1 J ~.Y i ",
"A P.q.d ,.f.z.G.J.D.D.OXOXA.M.o .                                                 p X   X @ G 2   X X @ X @ @ # , , p 1 p /.' r ",
"S P.~ n &.%.s.j.z.D.6..X.XoXB.$ .                                                 , 1 X   , r X X   X X X @ # # > r , r H n.o.q ",
"A L.~ 4.5.@.=.:.s.z.6.a.l.S.8.O . .                                               X # @ @ > >   X X X X @ @ @ # # q 1 r H U.' r ",
"A e.{ 4.0.1.#.O.*.s.a.:.l. X<.$ . .                                                 X 2 4 , X   . X X X @ @ @ # , , r r H R.U r ",
"A L.{ S 0.h.2.#.O.:.d.;.p.x.7.& o                                               .     # r @   X X X X X @ @ # # , , r 1 I /.I r ",
"9 K.w.A S h.g.2.#.#.d.>.>.j.i.a o .                                                   . @     X X   X @ @ @ # # 2 , 1 r U /.H p ",
";  .W.R j <.g.2.*.O.p.>.>.k.i.a o                                                             X X X X X @ @ # # 2 , , G o.U.G p ",
"2 H R.w.k @.1.g.%.+.*.i.>.j.6.a o                                                   X       X X X   X X @ # # # , 1 1 / n.o.r p ",
"C 6  .W.R S <.0.7.$.M %.%.i.$.a o                                                     X     X   X X X @ @ @ # # # r 6  .R.U 1 p ",
"y 6 P U.L.S j j 0.9.9.7.7.f.5.& .   X                             X X                           @ X X @ # # # # @ p  .R. .G r p ",
"y 6 D [ Q.L.4.S - = f g m V B + .                     . .       . X @ X     .         .   X X         . X @ , 1 I  ./.U.Y p r p ",
"y 6 5 F X.`.`.w.} ( B : - = *   .     X   . X X                   X X                 . X   X X # # , r p I ] ..R.(.R.' p r p p ",
"8 r 5 5 J  .L.W.n.T.~.^.m.n.n.v.|  . .o.] ' _ ! ] ] ] ] ] ] ] ]  . . .] ' ] o.] ] |  . . .......U.T.R.R.R.R.R././...Y p p p p p ",
"8 r q 5 1 p ! { I.I.I.U.K.Q.'.$X<X1X1X>X,X|.{.[.U.R.U.R.U.U.R.U.R.R.R.U.U.U.R.U.U.U.U.U.U.U.R.U.K.K.U.U.R.R.U.K.] H q 6 p p p p ",
"9 r q w q 4 9 C N P [ K.Q.Y.U.!.!././.(./.W.R.U.R.R.R.R.R.W.R.R.R.R.R.R.R.R.R.R.R.R.R.U.U.U.U.U.!.U... .] / L J J p y B N t p z ",
"l 9 q w r 8 8 2 w e 0 2 l 9 4 C p p Z J H H H H H H H J H L I I H H H H I H H H I H H H H H J J p u y r q q r r p N G G p p p p ",
"3 9 p 5 6 u Z 9 7 D q 8 A A 8 y r r q q r q r r r r r q r y p p r r r r p y r r r r p r r r r r r p G G B p p p Z G N r p G G r "
};
