/* XPM */
static char *_d22985179d34916bc5f9b5ad19d262awDebjWGCoLidM492[] = {
/* columns rows colors chars-per-pixel */
"64 32 239 2 ",
"   c #040504",
".  c #090405",
"X  c #020C01",
"o  c #0B0B0B",
"O  c #090A03",
"+  c #021400",
"@  c #011C00",
"#  c #0A1407",
"$  c #111B0B",
"%  c #131313",
"&  c #1C1C1C",
"*  c #161819",
"=  c #130B07",
"-  c #022201",
";  c #062706",
":  c #083907",
">  c #163A13",
",  c #162B0C",
"<  c #252525",
"1  c #2C2C2C",
"2  c #2C2827",
"3  c #393E2C",
"4  c #2A3837",
"5  c #343434",
"6  c #3A3C34",
"7  c #343A3B",
"8  c #3B3B3B",
"9  c #3A3436",
"0  c #273B22",
"q  c #273818",
"w  c #413C3D",
"e  c #443737",
"r  c #014502",
"t  c #004C02",
"y  c #044A0A",
"u  c #09480B",
"i  c #005402",
"p  c #005A01",
"a  c #075709",
"s  c #164915",
"d  c #0C5814",
"f  c #165819",
"g  c #155109",
"h  c #284C1D",
"j  c #036B04",
"k  c #066709",
"l  c #126A0E",
"z  c #07730B",
"x  c #096814",
"c  c #166818",
"v  c #0B7515",
"b  c #167517",
"n  c #16750F",
"m  c #28482A",
"M  c #275825",
"N  c #2B4837",
"B  c #3D443C",
"V  c #374837",
"C  c #33522F",
"Z  c #1A6B23",
"A  c #1C7922",
"S  c #256928",
"D  c #386936",
"F  c #287732",
"G  c #357637",
"H  c #2B6F2D",
"J  c #1F512B",
"K  c #434E3E",
"L  c #42433E",
"P  c #435436",
"I  c #46582E",
"U  c #45743D",
"Y  c #3C3A42",
"T  c #433D43",
"R  c #4A3C43",
"E  c #483948",
"W  c #533848",
"Q  c #563854",
"!  c #4E314B",
"~  c #693858",
"^  c #394647",
"/  c #354E45",
"(  c #424343",
")  c #4C4344",
"_  c #434C43",
"`  c #44444B",
"'  c #4C4B4C",
"]  c #494949",
"[  c #534647",
"{  c #495B4A",
"}  c #4C4452",
"|  c #4A4954",
" . c #524A52",
".. c #544652",
"X. c #4C5556",
"o. c #5C5C5C",
"O. c #565358",
"+. c #55594C",
"@. c #61515D",
"#. c #644B58",
"$. c #4A674A",
"%. c #53614C",
"&. c #4A7949",
"*. c #4B6656",
"=. c #596758",
"-. c #587558",
";. c #57764E",
":. c #61695B",
">. c #6D725A",
",. c #5B5C64",
"<. c #615663",
"1. c #636363",
"2. c #6B6B6B",
"3. c #6C6667",
"4. c #756A6C",
"5. c #677667",
"6. c #757564",
"7. c #776D74",
"8. c #687771",
"9. c #747474",
"0. c #7C7C7C",
"q. c #797879",
"w. c #897C7A",
"e. c #17831C",
"r. c #1A8A25",
"t. c #1E9324",
"y. c #0F8622",
"u. c #278929",
"i. c #26922A",
"p. c #2B8B31",
"a. c #36883A",
"s. c #2A9734",
"d. c #359536",
"f. c #348D2F",
"g. c #38A33A",
"h. c #32AD35",
"j. c #208E1D",
"k. c #419C3C",
"l. c #3A8744",
"z. c #3A9545",
"x. c #38A642",
"c. c #3EB843",
"v. c #46874A",
"b. c #4E8755",
"n. c #528555",
"m. c #558958",
"M. c #4F9651",
"N. c #4BAC4C",
"B. c #47A649",
"V. c #52AB4C",
"C. c #44B74A",
"Z. c #4DAA55",
"A. c #5DAB55",
"S. c #59AB58",
"D. c #4CB554",
"F. c #5ABB5C",
"G. c #57B659",
"H. c #66A65A",
"J. c #63B65D",
"K. c #79877A",
"L. c #6D8C6F",
"P. c #5AA860",
"I. c #58BA65",
"U. c #63AC68",
"Y. c #69BA67",
"T. c #73BB6A",
"R. c #71B564",
"E. c #6CBA74",
"W. c #79BA76",
"Q. c #73A46D",
"!. c #55C45C",
"~. c #5CD35F",
"^. c #60C15A",
"/. c #5BC665",
"(. c #5ED169",
"). c #64C465",
"_. c #6BC36A",
"`. c #6BCD6C",
"'. c #66C667",
"]. c #73C96D",
"[. c #66D36C",
"{. c #6DC876",
"}. c #77C875",
"|. c #6DD472",
" X c #7AD678",
".X c #70D06E",
"XX c #88897A",
"oX c #8A937E",
"OX c #968D7E",
"+X c #89B274",
"@X c #88CB7B",
"#X c #81D27A",
"$X c #7A7F83",
"%X c #837A82",
"&X c #7C8A82",
"*X c #7A8485",
"=X c #7FB581",
"-X c #7EC782",
";X c #78D082",
":X c #74E480",
">X c #848485",
",X c #8D8383",
"<X c #848D8C",
"1X c #8C8C8C",
"2X c #898788",
"3X c #958589",
"4X c #859284",
"5X c #8A9385",
"6X c #89958A",
"7X c #949188",
"8X c #8A8D92",
"9X c #868A91",
"0X c #879593",
"qX c #939292",
"wX c #999A9B",
"eX c #988F94",
"rX c #94AB94",
"tX c #A19FA4",
"yX c #9FA5A7",
"uX c #ABB1AC",
"iX c #88C889",
"pX c #88DA84",
"aX c #9BD695",
"sX c #94C990",
"dX c #A6E79C",
"fX c #B9C2BC",
"gX c #B2EEA9",
"hX c #A1D89E",
"jX c #C0C5BE",
"kX c #CAFABA",
"lX c #BCCBC4",
"zX c #C7CCC8",
"xX c #CECDD1",
"cX c #C8FFC2",
"vX c #D4FFC5",
"bX c #D9FFC8",
"nX c #D7FFD4",
"mX c #E3FFC9",
"MX c #EAFFD3",
/* pixels */
"3 V V w Q ~ Q E ` L e e _ ` Q ! E E } } } | } ..} }  . . . ...' ..[ ) ) [ W [ W [ [ e e [ ) L 8 w 8 9 8 8 Y 8 5 9 9 9 5 8 5 5 5 ",
"C P V ^ Q Q Q T _ B e e B ^ Q Q E Y Y Y Y Y 8 8 T T T w w w 8 w ) T w 8 w e e e e 9 e 9 9 8 8 8 5 5 5 5 6 9 5 6 5 5 5 5 5 5 5 5 ",
"C N N / } Q } ^ / N V V N / E Q ( B B B 7 V V 6 6 6 6 3 6 3 3 6 8 ^ 8 B 8 9 9 6 8 6 9 5 8 8 Y 8 8 8 ] ( ( 8 B ( 7 7 8 8 5 5 5 5 ",
"N N / ^ } E Y ^ N N V 3 4 4 4 7 _ B K / B _ K K K K K K K K K K _ ] ' ] ] _ _ ] L B ( ( ^ 8 Y 7 7 8 8 5 5 1 1 1 5 5 5 5 5 5 5 5 ",
"L L ^ ' W ! T ( V P +.%.-.8.$X%X$X$Xq.$XK.*XK.*X&X&X&X&XK.&X&X&X*X*X4XK.K.K.K.&XXXK.4X4X<X*X9X%X>X0.9.2.3.:.O.O.( 8 1 1 1 5 5 5 ",
"[ R R R ! W #.3.XXXXOXXXK.L.q.w.8X8X9X9X9X8X9X8X8X<X8X<X<X<X<X6X4X4X5X5X4X4XXXoXuXuXjXzXxXxXxXxXuXyXwXqX1X2X>X0.9.3.X.8 5 5 5 5 ",
"W e W W #.w.w.w.XXXXOXOXoXOX7X7Xw.%X%X$Xq.7.7.7.4.7.4.7.9.4.7.4.3.6.6.6.6.6.6.>.6.6.w.XX%X3X%X3XeXqX,X>X>X2XqXqXqX1XK.3.' 8 5 5 ",
"! W W #.3.w.3XOX6.>.+.P h q , , $ $ o # # O X + + + + O + + + + @ + @ @ @ - @ + X + + O O = = % 1 1 1 5 8 ` o.2.0.1XqX2X2.] 8 5 ",
"Y  .L 9.5XK.K.I > ; ; > s : : : y u f l.v.S d f c y f a.z.v.G a f f l.z.z.z.Z i d l.l.b.J X + X % o       o % * 2 ( 0.<XqX9.9 1 ",
"| _ ' 6XQ.C s ; s D Q.=XQ.n.v.v.v.a.z.G._.V.p.d.B.d.d.N.F.I.C.p.z.s.I.I.!.!.z.s.z.Z.I.E.S + - ; # o o o o o % % & * 8 O.XX8Xo.9 ",
"| ] q.5X;.: C n.+XrX+XsXsXiX+XY.}.H.T.E.}.@XA.H.R.Y.J.J.}.#X_.A.Y.A.{.{..X.XG.G.S.R.-XhX&.X @ , X o o o o % % % < o * 1 :.wX0.Y ",
"9 O.7X-.M U hXkXkXvXnXcXkXbXvXkXnXkXvXaXaXdXT.H.T.}.J.H.}.#XY.S.R.J.U.].#X'.A.).S.E.hXgX;.X # X     o o % % % % < & < 2 8 0.1XO.",
"9 3.OXI U @XMXmXMXMXnXvXmXmXmXkXcXcXnXhX=XgX-XH.U.-XU.P.E.;XE.P.Y.U.S._. X).G.).S.T.aXgX;.+ $       o o o % % * % & 1 < < o.1X9.",
"8 6.XXI M.pXmXkXmXgXW.H.+X+X@X@XS.U.-XU.Z.-X}.U.S.W.{.P.Y. X{.S.Y._.S.Y. X).F.'.S.T.iXaX$.+ #   o       o o % % * & < 2 1 ' >X>X",
"V K.L.C V.!.gXgXH.W.}.W.H.H.^. X_.J.T.}.P.Y.}._.B._.{.F.G..X.XV.Y.{.Z.I. X/./.'.I.E.E.rX-.X     o   o o o % % % & 2 < 1 1 8 2.2X",
"/ Q.;.h N.h.|.^.V.J.`..XR.A.J.~.#XV.G.#X).Z._.].B.). X).N.`. XN.I. XZ.I.:X'././.Z.I.E.sXm.#       o o o % % % % * < & 1 5 2 1.1X",
"' 5X$.: Z x.!.C.~.~.h.|.#X.XB.Y.|.`.G.'.|.!./.{.V.J. XJ.J..X`.F././.F.B.}.#XV.`.F.D.{.;Xm.X O .   o   o o % % * * < < 1 1 1 ,.qX",
"+.5X-.s Z v r.c.c.c.h.c.~..XG.G.'.'.Z.!.[.D.I.[.J.V.#XR.V.#X.XV.(.(.F.G. X].V..X|.I.'.iXm.    . o   o o o % % % & < & 1 9 1 o.2X",
"' XX-.S Z p j e.j.h.h.j.c.^.N.i.I.|.D./.:X(.D. XG.V.pXJ.V.#X XN.(.[.N.).#XJ.V.`.(.c.N.{.n.X   . o   o o o % % * & & & 1 5 5 <.2X",
"+.XX-.C G c i p z e.j.j f.g.g.z e.d.e.i.D.s.r.c.f.k._.f.f._.N.i.D.x.i.k.J.F u.d.D.p.A S.&.+     . o   o o % % % & & < 9 1 1 1.1X",
"] K.5.M H a.c i p j n z y.r.s.v n d.b e.c.s.y.g.j f.k.n i.N.b y.c.s.v s.B.l l u.D.u.l M.D + X   . o   o o % % * & < < 5 < 1 2.1X",
"8 K.K.m > G G l i j n n e.y.y.v p b j v s.A z b p f.u.l d.s.z r.x.t.z i.d.l z u.x.r.a a.M + X       o o o % % % * & 2 1 < 6 0.2X",
"6 =.5X$.: h H H a g l b z y.y.v i l k b u.v j z i A k k u.k k y.r.j k b b p i u.p.c t H > + +   o   o o o % % * * & < 1 2  .2Xq.",
"T ' 7XL.> h M S g g g c x u.t.v p l d A u.v x x a A i b A p x r.r.j b b x a i a.p.A t H : + X     o   o o % % * & & < 1 1 :.8X2.",
"( ` 8.4X*.m C U h g : : y d x x r r a c Z d i i a a a a a a x A c p t i a t f a.S a y s ; + X *       o o % % * & 2 & & ' 2X0.] ",
"8 8 =.K.L.$.m h &.U U D G F F F s g f S Z d y y y u u u y y d Z d r r y y y u Z f g s s > X   o o o o . o o % % % * < ] 0.qX2.5 ",
"T 8 ] 5.6XK.*.N ; , h C D H H H &.&.;.b.b.b.&.l.&.n.n.n.b.b.b.M.M.n.&.b.m.b.m.m.;.&.&.%.N $ X * o         o % & 1 5 X.0.qXK.' < ",
"' ] 7 _ K.0X&X$X6.+.0 ; @ ; ; ; - + + + @ @ ; ; + + @ @ @ @ ; @ @ @ @ @ ; ; ; # ; - ; ; X       * * * * < 1 B ] 2.9.1XwX0.O.5 5 ",
"R [ 7 1 X.8.*X=X4X4X2X5X5XK.L.-.5.:.=.=.*.$.{ / { *.X.{ { $.$.$.%.*.X.,.*.,.*.*.P { P %.o.:.2.9.2.9.9.q.>X2XqXqXqXqX1X9.' 5 1 8 ",
"9 ) ] 7 7 / X.8.>X1X8X>X>X5XwXuXuXzXzXzXlXfXuXyXqXqXqXqX1X<X<X<X1X8X8X9X*X0X&X&X6X2X5X7X7X1X9X<XqX8X1X1X1X2X>X>Xq.4.o.^ 5 5 5 5 ",
"e R ] ` 7 4 ^ Y ` O.2.7.7.q.1XwXwXwXtXyXyXyXwXqX2X3X2X%X2X9X>X9X3X%X$X%X*X*X&X&XXXXX,XXX,X2X9X%X>X>X>X0.q.2.1.1.' B 5 2 5 5 1 1 ",
"R e T ( 7 ^ ^ Y Y Y Y E R R R R ....} R ` X.X.| O.@.@.@.<.@.O.O.@.#.<.,.$XX.,.8.+.@.+.[ ) '  . .( ( ( w 8 5 1 2 7 1 5 5 9 1 1 8 "
};
