/* XPM */
static char *_585113466953[] = {
/* columns rows colors chars-per-pixel */
"64 64 255 2 ",
"   c #030301",
".  c #0B0401",
"X  c #050A03",
"o  c #0A0A04",
"O  c #0C0D0A",
"+  c #08070A",
"@  c #130401",
"#  c #130B03",
"$  c #1B0C01",
"%  c #120D0A",
"&  c #170B0D",
"*  c #0D1102",
"=  c #0D110C",
"-  c #0A1607",
";  c #141204",
":  c #1B1203",
">  c #13130C",
",  c #1C140C",
"<  c #171A09",
"1  c #140C11",
"2  c #0D1513",
"3  c #141512",
"4  c #151B13",
"5  c #1B1B14",
"6  c #1C1D1A",
"7  c #191615",
"8  c #0B0E11",
"9  c #250A09",
"0  c #251B0C",
"q  c #251708",
"w  c #370D19",
"e  c #231C19",
"r  c #281A15",
"t  c #361716",
"y  c #2D1214",
"u  c #1C2418",
"i  c #172207",
"p  c #28250A",
"a  c #34260B",
"s  c #2C2313",
"d  c #23231C",
"f  c #2C251B",
"g  c #252817",
"h  c #332A1C",
"j  c #372717",
"k  c #293219",
"l  c #38371C",
"z  c #371D22",
"x  c #1E2926",
"c  c #2B2B23",
"v  c #272623",
"b  c #372926",
"n  c #2A3426",
"m  c #373729",
"M  c #2A3734",
"N  c #383A35",
"B  c #2D2E30",
"V  c #432A1A",
"C  c #45361B",
"Z  c #6E3E13",
"A  c #541328",
"S  c #691633",
"D  c #462827",
"F  c #473927",
"G  c #53392B",
"H  c #4B2A33",
"J  c #552735",
"K  c #473935",
"L  c #563938",
"P  c #51212F",
"I  c #682838",
"U  c #6C3932",
"Y  c #39442A",
"T  c #3A4735",
"R  c #314A2E",
"E  c #774511",
"W  c #464429",
"Q  c #56462A",
"!  c #484737",
"~  c #594737",
"^  c #47553B",
"/  c #595439",
"(  c #794727",
")  c #634939",
"_  c #794A36",
"`  c #67553B",
"'  c #6F4C31",
"]  c #4B643D",
"[  c #6C1D47",
"{  c #593A43",
"}  c #513648",
"|  c #742948",
" . c #673A47",
".. c #733849",
"X. c #7A3B55",
"o. c #6C2D4C",
"O. c #3C4D46",
"+. c #494C45",
"@. c #574744",
"#. c #4A5646",
"$. c #555649",
"%. c #565855",
"&. c #4D5654",
"*. c #684A47",
"=. c #675747",
"-. c #75564C",
";. c #6B4854",
":. c #784756",
">. c #6A5756",
",. c #785959",
"<. c #764749",
"1. c #57664B",
"2. c #596555",
"3. c #5E7951",
"4. c #4C6449",
"5. c #77644B",
"6. c #666858",
"7. c #7A6756",
"8. c #667659",
"9. c #767256",
"0. c #785965",
"q. c #734F67",
"w. c #5A6E6B",
"e. c #656866",
"r. c #7A6566",
"t. c #6A7666",
"y. c #77786B",
"u. c #6B6B73",
"i. c #796776",
"p. c #6B7978",
"a. c #787878",
"s. c #5A5062",
"d. c #83471B",
"f. c #844A26",
"g. c #865135",
"h. c #8E3C66",
"j. c #873556",
"k. c #854A5A",
"l. c #865859",
"z. c #88584C",
"x. c #846857",
"c. c #88745A",
"v. c #916A57",
"b. c #894764",
"n. c #954968",
"m. c #875866",
"M. c #94586C",
"N. c #955275",
"B. c #A4567B",
"V. c #876966",
"C. c #94686B",
"Z. c #8A7769",
"A. c #967868",
"S. c #896A74",
"D. c #966A75",
"F. c #887977",
"G. c #987877",
"H. c #A57D79",
"J. c #A56378",
"K. c #A37151",
"L. c #75846B",
"P. c #73847A",
"I. c #78887A",
"U. c #6D8174",
"Y. c #968369",
"T. c #86897A",
"R. c #9D827E",
"E. c #958777",
"W. c #99927A",
"Q. c #878870",
"!. c #A3867B",
"~. c #AB946F",
"^. c #BBA679",
"/. c #A7A57F",
"(. c #9C895E",
"). c #C1AA7D",
"_. c #667D84",
"`. c #797C83",
"'. c #6C7692",
"]. c #6C7C91",
"[. c #887981",
"{. c #977C82",
"}. c #8E6F90",
"|. c #A87B89",
" X c #AF6A8A",
".X c #98628D",
"XX c #6B8488",
"oX c #7A8D83",
"OX c #76878A",
"+X c #7E9389",
"@X c #7D9186",
"#X c #788A92",
"$X c #7D9294",
"%X c #6F8698",
"&X c #858788",
"*X c #998888",
"=X c #839484",
"-X c #82958B",
";X c #85998E",
":X c #8A9989",
">X c #98978B",
",X c #868897",
"<X c #968C94",
"1X c #879B91",
"2X c #8A9E93",
"3X c #889999",
"4X c #999597",
"5X c #A38B85",
"6X c #A48D8C",
"7X c #AB8C8C",
"8X c #A58686",
"9X c #A7968A",
"0X c #AA8C93",
"qX c #AB9493",
"wX c #A99997",
"eX c #B39C9C",
"rX c #B79897",
"tX c #B4928D",
"yX c #8DA196",
"uX c #8EA29A",
"iX c #87A29D",
"pX c #92A59B",
"aX c #96A698",
"sX c #95A485",
"dX c #BAAB87",
"fX c #AAA696",
"gX c #B4A39C",
"hX c #B6A794",
"jX c #B8B296",
"kX c #B4AD8B",
"lX c #9097AD",
"zX c #A59CA4",
"xX c #BC98A5",
"cX c #A99BB6",
"vX c #8EA3A2",
"bX c #96A8A4",
"nX c #9DA8B6",
"mX c #AAA5A9",
"MX c #B9A4A3",
"NX c #B8A9A9",
"BX c #B5ACB5",
"VX c #B8B4B7",
"CX c #B0AFAF",
"ZX c #C3B189",
"AX c #C2AAA7",
"SX c #C5B3AB",
"DX c #C8B7B6",
"FX c #CFB8B8",
"GX c #C18F97",
"HX c #CBC4AD",
"JX c #C9C29C",
"KX c #B1B8C6",
"LX c #8EA1C2",
"PX c #C5BBC5",
"IX c #D1CBCA",
/* pixels */
"=X=XsX=X>XI.c c b v 7 > > = X     M P.bXOXe.XXbXoX&X3X2X-XI.I.U.t.@X2X@XoXa.&.4   % 7 & r v K } X w.pX1X;XyX2X@XI.@XI.I.P.U.U.U.",
"=X=X:XT.>XI.c 5 m v 7 = = O +     - u n x x &.,X&X;XyX4XT.U.L.L.T &.2.w.%.T =   4 e e r z b b b u p.yX;X+X2X+XI.@X@X@X@XP.P.U.U.",
"sX2XaXaXmXaX$.N c d > O + - = O X       +   6 M M O.+.#.T u u n 4 2 4 u 2     X 6 e e e v b z 7 #.I.pXyX2X;X+X+X+X+X+XI.oXP.XXP.",
"=XT.=X=X>XT.+.c e 7 O o + O O O X X X = 8   +   + + = 4 - X X X X X X X     O d > O & 5 v v v e U.2XbXyXyX2X+X1X+X+X+X+XoX@XI.P.",
"=X=X=XT.L.6.! 4 % % o o X X + X           + + 8 + X X 3 d 5 o X     o     X X     O 3 6 d v B N oXpXpXpXpX1X;XyXyX+XiX+X@XoXoXP.",
"=XaX>XaX&Xt.6.B   . o o + X X               + 1 + +   . 5 c p X   o .     o       X > 4 2 7 m +.P.yXpXyXyX1X+X2XyXyX+X+X@X@XoXoX",
"I.=X=XaXI.e.6.6 . X X   X     X   o + + + + +   + 1 o   5 ! m r > o   . . o o =   X O O X 3 M 2.t.yXuX1X1XyX;X1X+XyX+X+X+X+XoXoX",
"sXyXsXaXT.6.$.  o o         X + . % & 1 1 1 + +   1 .   # ! $.m , % 7 b c %   O = - X X O u +.e.2.$XpX1XyXpXyX2X+XsX+X+X+X+XI.XX",
":X>XaXaXa.6.m   .           X O % % % & e 7 &     & . . # 5 K ! e r v K K b v v 7 4   X   x oX-XU.+XiXaXpXyXpX$XiXiXyXyX+X+X+X+X",
"aXaXaX:X=Xt.B   . . .     O = 2 > & % & 1 1 1 &   &   . . 5 ~ ! v & @ e N N c 6 O X   2 - x I.=XI.+XyXyXiXpXpXsXyXyXyXiXyX+X1X+X",
"=XI.1.#.y.6.d     .       + O = & % + . + + + +   &       5 ~ +.&   . . 7 e 5 >       X   2 %.I.+XyXyXyXyXaXpXyXyXiXyX+XiX+X+X+X",
"U.8.n u +.T ;   o o . X X O X O o . .   .   +     + .     0 $.m     .       X > v 6 4 4 X 3 2.2XyXpXyXyXyXpXpX2XsX$XyXsX1XsX+X+X",
"I.U.T u T c   X > > % > O O O O .   .   +         + . .   5 +.s   . & o X . O 7 c v v u 2 7 +.-XaXpXpXyXpXpXpXyXyX2X2X1X1X1X+X+X",
"L.3.+.R m u   X % O o o + X X   O o o O 1 8 8     + + o   f $.; o .     > 5 4 > X 4 c d u 6 v e.2XyXpXyXpXbXpXyX2X2XyX2X1X+X+X+X",
"4.&.T M u o   o . .   X X X X   3 O + 8 6 6 3 +           n %.  > = X   X 3 5 3 o c +.N N N v &.+XyXaXbXpXpXpXyX2X2X2X2X1X;X;X+X",
"t.4.^ Y *   o , % % & 3 3 3 3 4 7 O   8 7 x 7 + +         m 1.  3 d d =     5 c O B %.N N N 7 N I.sXbXbXaXpXpXyXiXyXyX2X2X:X;X+X",
"2.t.2.m e #   . @ @ . @ . . . % > e d e e d ,         <   5 6.k ; c m 5   4 v = 8 + 8 + + 8 M x U.yXCXbXiXbXbXbXbXbXbXbXbXbXiXiX",
"a.8.#.m h , @ q @ @ . . o & .   % % & , X         o   o o i %.$.* X 4 4 = > = X O   + + + 2 B M @XpXbXbXiXbXiX$XiXpXbX$X$XvXiX$X",
"2.! ! ! b # . $ . b r . .     6 & .     > > % >   O   > m u c ! c X - d d 2 3 2 X X   + 2 2 B O.2XpXbXbXbXbXbX$XbX$XbXbX3X3X$X;X",
"^ W W m 0 # r K F.gX*Xr.K %   7 o > o     o     4 o   c +.N m &.+.u > u u > 4 u = 2 + + 6 8 x %.yXiXpXpXbXbXKXbXbXbXbX$X3X3X$X$X",
"6.~ m p q K F.9XMXmXfXzX<X}         + = +   O 3 O   + B B d B &.N u u > X X = = = 4 + + 8 8 B a.bXiX$XbXbXvX$XbXvX$XvX$X$X%X#X#X",
"=.l j h F Y.SXgXNXwXNXPXBX&X`.F.&.=   + u O + 3 + + %.e.N 6 % 7 - = u >   X -   X = = O 3 d %.,XbXiX$X$X$X$XXX$X$XOX%X%X%XXXXX_.",
"F a ~ Z.Y.fXNX9XNXeXSXmXa.F.cXmXVXe.8   + 8 +   &.a.CXcX<Xe.8   X X u u = = >   X . > 4 u ! a.4XiXU.w.%X$X$XXX@XXXOXXXXXXX_.p._.",
"Q F Y.SXhX9XSXgXgXwXBXzXS.zXIXzXmXbXe.8   +.&X3X,XVXBX<XPXzXx 8 - X - 2 - = = o o   3 d c %.<X>XP.w.&.w.$X$X$XXX#X#X%X%XXXXXXXXX",
"F =.SXAX5XgXhXfXMXMXNXeX[.0XPXVXfXIXVXp.t.CXIXVXCX4XmXBXzXmX,X}   X =   < d ; 5 > 5 5 d ! $.4XI.M M O.p.oXOX`.`.$XOX#X#X_._.OX_.",
"a L ZXHXhXhXeXMXNXgXMXqXS.*XNXNXVXHXIXIXIXVXBXBXmX<XzXnXzXcXzXu.O   > % = 7     > = > g +.6.*XT.M M O.p.,X&XOX#X&Xp.i._._.OX#Xp.",
"F V ,.9XgXgXqXgXwXqXzXMX8X{.7X7XNXfXCXIXIXmXeXVXzX<XzXzX<XBXKX,X6   . > ; d d u f < d ! 6.T.y.I.O.M N 2.a.&X[.<X&X[.[.`._.`.#X_.",
"@.! ,.*XgXhXwXfX9X6XrXrX7X|.|.7X5X7XwXgXeXMXNXBXzX<X4X4X<XzXBX4Xi.f e r . , d r B g +.9.y.=X+.6.w.O.N e.T.[.[.{.[.<XzX<Xu.u.`.a.",
"H F.AXFXSXeXwXwXgXqX8X8XH.D.J.!.!.tXrXrXtXMXgX*XwXqX4X4X*X4XzXzXwXL b e . , d v m m $.t.8.t.n +.2.+.$.y.<X6X*X{.S.0XBXzXF.a.,X[.",
"*.NXIXFXVXNXNXqX*X7X8XH.!.C.z.z.H.G.D.H.R.R.6X6X*X*X<X<X4XzXzXmX{.@.K b 0 z b m K $.1.2.6.3.T 3.e.%.+.*.r.R.7XrXG.7XxXxX0XzXmX<X",
"i.DXBXzXNXSXVX>XF.5X!.H.H.K.U U l.-._ ) -.7.G.6X*X*X<X4XzXzXmXBXzXS.0.K b b r f ^ y.1.#.L.t.t.L.T.F.7.@.*.S.0XrX{.7XxXqX*XwXmX>X",
">.VXNXBXDXCXMX9X5XhXA.-.z.z._ j._ _ ' U ' l.C.C.0X0X*X6XNXCXmXBXzX<XS.{ K @.K @.@.I.2.4.2XI.;XoXbXBXzX[.0.D.J.C.C. XGX|.r.S.F.F.",
">.BXSXBXDXVXfXE.!.!.A.K.g.d.d.f.d.E Z ( g.z.H.GX|.xXxX0XcXBXVXVXzXCX4X[.z H @.+.e.:Xa.w.XX_.'.'.KXKXLXlXi.}..Xn.I ..J.k.C.D.F.S.",
"r.FXFXSXDXCXwX*X!.!.^.~.K.g.d.d.E Z E f.f.g.z.J.|.xXxXxXDXBXwXzXmXKXmXxX@.H ,.i.y.a.u.#XlX].'.LXLXLXLX%X'.q.q.X.X.k.k.:.J.G.0XS.",
",.FXFXSXVXgXNXhXtXhXGX~.K.g.f.d.E E f.f.U U U k.J.D.S.}.*X<X&X4X<X<X0XzX{ t *.Z.T.a.e.OX$X'.'.LXLXLXLXLX}.q.q.m.k.M.k.k.D.V.0XS.",
",.AXDXSXDXSXDXSXAXrX!.v.z.f.f.f.g.f.f.f.Z U <.l.D.D.S.S.F.F.F.wX<X<XqXwX*.V >.F.y.*Xu.s.s.s.}.}.'.'.%X}.'.q.q.;.;.D.,.V.0.L F.S.",
"V.FXSXSXHXSXNXgXhX7XA.x._ ' U _ g.' E ' z.z.l.D.{.|.{.{.*Xy.e.Z.qXeXrX5X-.L Z.7.7.[.a.i.} } .X.XcXLXlXlX}.lX4X{.;.[.r.F.,.K ,.>.",
"G.FXFXAXAX9X6X*XE.*X!.A.v.z.z._ ( E ( 5.v.A.D.H.D.{.{.*X*XF.F.>XwXrX7XV.*.~ 7.F ! $.r.}..X[ h..XcXcXcXcXcXBXBX4X4XfXF.9Xy.$.@.m ",
",.rXtX8X*XF.F.E.*X5X7X5X!.H.C.C._ g.5.A.!.H.|.G.6X0X*XqX9X:X*XgX9X9X5X-.` ) y.C F b K S.q.X. XB.cXcXcXPXKXBXKXCXmXaX=X>Xy.6.N ! ",
"V V.A.v.V.7.G.5XgXtX5X8XH.!.tXtXA.A.!.!.8X!.R.8X*X*X6XwX*X>.F K Y.Z.x.~ Q F 6.h N c e D } b. XN..Xq.}.lX<X`.p.p.U.U.U.I.$.1.! 6.",
"V U x.G.G.W.tX9XAX5X9X8X{.tX0XrX9Xc.rXrX!.7XR.6XxX4X*X5XMXE.r @ j s 9 l / F Y n i i g b  .k.n.M.;.q.0.i.`.a.P.P.P.+X2.2.8.T 4.L.",
"G *.E.tX9XtXgXhXNXG.6XgXrXrXrXrXtXC.5X7XR.5XqX6X0XMXeXF.7XwX~ @ . j ~ =.! h m p X - k b j J ..b.S.D.i.s.*.e.a.P.O.4.R R R R 4.1.",
") ~ -.x.Y.!.hXdX5.) E.tX*XtXeX0X7XR.G.6X7X6XgX6X*XNXAXF.6XxX>.& b h m =.~ m ! k < u < X 9 D ..U ..0.;.b e } &.&.R 4.#.#.R 4.L.] ",
"=.D s F ) x.Z.-.F ~ !.7XV.rXAX0X7XtXG.7XeX6XMX*X*X0XNXxXwXG.L t F.b , ~ ~ L $.h < n m g h =.7.*.L ;.>.L H +.*.%.%.e.1.#.1.3.3.] ",
"=.b j G / ~ Q a G F c.G.A.rXxXtX7XrXG.*XqX6XMXwXxX*XxXNX{.q.P H >.m H @.L H @.r   Y y.6./ 5.9.5.-.l.V.,.;.@.0.F.T.T.W Y L.3.3.L.",
"F l F / Q Q Q Q ' a G x.!.tXtXAXGXgXD.S.G.6XgXMXeX{.eX|.0.;.o.{ b K H P J m.G.L r / 6.! m W / Q Z.V.V.l.U L ,.*XR.y.W / L.L.] 3.",
"p : l ~ / Q ` ` ) Q ) ' A.!.A.MXrX8Xm.~ ,.S.,.S.>.{ 0.q. .q.q.X.;.} w w ;.|.GXM.,.=.m ; < l C l 7.V.A.V.*.*.0.8X,.K l 3.3.] ] R ",
", # s =.9.5.Q V V x.c.V V ~ L ,.A.,.) y D ~ 9 r y @ z  . .b.q.q.i.} 9 P M.M.D.D.;.*.Q s p l W Q a ` V.,.*.*.,.x.r.t l L.R ] sX3.",
"< . : m >.$.F q V / Y.7.) ' C G ,.G L V D L z w w A P  .q.X.q.b.C.n.I I k.m.C.tX*.j q p l a a a C C ` ) s : k ! g m T T Y Y R Y ",
">     e m F b s 9 a 5.x.x.c.` ` ) C ) G G <.D t t w w A P [ o.b.k.n.U U m.M.0.S.D D j a q < p a C / / p X * n k k ^ 4.^ ^ ^ W k ",
"O       > 0 f h q q F ` 7.c.-.` G F *.*.) <.U J J P P J [ o.[ | | | I I k.:.;.,.t K Q j p p W ` W l l p X   i k x ^ 4.Y W 3.3./ ",
"X   . . . # , h F 0 q j D F G ) G ) 5.-.*.-.0.,... .X.X.X.X.| j.I I A A I  .:.S.D f q p p C Q / / l W ! k - i k ^ 4.! k l 3.sXkX",
"O % % =     ; f c : . $ q q j G Q ' 7.x.-.<.C.l.k.:...o.| [ [ [ S S S A A ..m.G.L r $ s W l k p p l W n p k g X k Y ] L.Q.W./.kX",
"3 = +       o d , $ . s a # q p j Q 5.c.-.*.l.<.:.X.j.b.h.X.[ [ A A S S A ..m.r.D , < K ] Y i * * o < g u u k u k Y (.kXJXJXJXJX",
"O X         . , e f , j r . q $ a Q ` x.` U l. .:.k.N. X XB.j.j.S S S S | <.:.J @ .   p Y l i X i X * m Y u m ^ k Y l W Q 9.^.JX",
"      X o     o c m : 5 : . f 0 a Q ` -.L G l...k.k.n.B. X.Xh.h.j.S | j.:.m.:.z q @   * n ^ l i ; * < - X * i X 8.W././.~.~.^.^.",
"  >     = o   o & e f f 5 : , 0 a p C C V D L l.:.:.:.B. XN.h.B.j.n.n.k.M.M.) y 0 . : ; g k ^ p * * < < X   X p kXjXjX^.~.(.(.~.",
"  > %   o # & 5 5 f f <     . o s : q q q V t D :.D. XB.n.h.h.N.n.B.J.n.k...*.) ~ s s i : i Y ! < *   X < m L.fXjXjXjXkX/.~.~.^.",
"% ; 7 #   : c b b K m e # # # . p : q : 9 q 9 w  .;.:.X.N.N.b.b.n.J.B.| A P L -.5./ ` 3.W W Q 9.9.y.*XsXsX9XfXfXkXfXjXZX).^.^.^.",
"$ . , #   0 m f s ! ! b f h r # ; ; s 0 q 9 $ j { t w X.|.|..X|. XJ.f.A t V G ~ / 5.c.(.9.5.5.L.Z.Q.T.W.:XW.Q.Q.jXjXkXdX).).^.^.",
"# . $ : $ f m 9 : f b 0 , f 0 . o X 0 < % # @ r L D H ;.|.0X0XxX|.m.P t t G ` ` / (.5.c.-.c.c.(.W.Y.F.Q.W.sXfXhXjXjXkXdXZX).).).",
": q q q q j j $ 0 s 0 @ # 0 0 : <   o X % 0 . % } $.K H 0.6XD.;.{ H t 9 a D ~ ` 5.(.9.5.z.Y.A.A.Y.Q.E.W.9XhXfXsXjXjXkXdX).).).).",
"$ a s q s j q @ s 0 q # $ 0 0 , d   X X ; 5 . & K $.b , K S.>.y 9 y y y a j C Q ` c.c.5.(.Y.A.A.W.W.E.E.W.jXHXHXjXjXjXdXZXdX).).",
"$ V j q a r $ @ $ $ @ @ $ : $ # o X > O X O . e v K K b K >.@.@.y z D F F C C Q Q ' ' Q (.z.v.(.c.Y.Y.W.W./.>XW.9XkXjXZXJXZX^.ZX"
};
