/* XPM */
static char *_585113032305[] = {
/* columns rows colors chars-per-pixel */
"64 64 250 2 ",
"   c #040201",
".  c #0B0402",
"X  c #0B0B03",
"o  c #0B0C0B",
"O  c #050907",
"+  c #130B02",
"@  c #190E05",
"#  c #120D0B",
"$  c #1B0E0B",
"%  c #100402",
"&  c #0C110E",
"*  c #0D1106",
"=  c #1B1205",
"-  c #14120C",
";  c #1C140B",
":  c #1B1A0D",
">  c #151306",
",  c #0D1212",
"<  c #0F181A",
"1  c #131514",
"2  c #1B1513",
"3  c #151816",
"4  c #1C1A14",
"5  c #131519",
"6  c #151A1A",
"7  c #1B1C1C",
"8  c #191719",
"9  c #0B0C11",
"0  c #22150C",
"q  c #241A0E",
"w  c #2A1B0D",
"e  c #2A1907",
"r  c #231C14",
"t  c #2A1E15",
"y  c #231D1B",
"u  c #251916",
"i  c #351E17",
"p  c #301908",
"a  c #1D201E",
"s  c #1E2214",
"d  c #242215",
"f  c #2C2214",
"g  c #24221C",
"h  c #2B241C",
"j  c #2B291D",
"k  c #32231C",
"l  c #3B241C",
"z  c #332B1D",
"x  c #3C2B1C",
"c  c #362515",
"v  c #322612",
"b  c #1B1E21",
"n  c #241F22",
"m  c #1D2121",
"M  c #232323",
"N  c #2A2522",
"B  c #2D2A24",
"V  c #2D2B2A",
"C  c #252A28",
"Z  c #332522",
"A  c #332B24",
"S  c #3B2C23",
"D  c #322D2A",
"F  c #3B2B27",
"G  c #3C3324",
"H  c #34332B",
"J  c #3C342C",
"K  c #373528",
"L  c #353332",
"P  c #3B3533",
"I  c #3D3B34",
"U  c #393A38",
"Y  c #30302C",
"T  c #492919",
"R  c #48331C",
"E  c #55341D",
"W  c #4E2A16",
"Q  c #64391D",
"!  c #422D24",
"~  c #492E21",
"^  c #443224",
"/  c #45352B",
"(  c #43392B",
")  c #4D3B2C",
"_  c #4A3527",
"`  c #543C2C",
"'  c #583926",
"]  c #433D33",
"[  c #4B3C33",
"{  c #443D3A",
"}  c #463735",
"|  c #513E34",
" . c #532F21",
".. c #633D2B",
"X. c #411F13",
"o. c #3D403D",
"O. c #59422C",
"+. c #4D4333",
"@. c #47433B",
"#. c #534434",
"$. c #5B4334",
"%. c #53433A",
"&. c #5B4B3C",
"*. c #594939",
"=. c #5A513D",
"-. c #4C402E",
";. c #67432A",
":. c #624C3D",
">. c #6D4D3C",
",. c #674834",
"<. c #734D37",
"1. c #68523B",
"2. c #7A543A",
"3. c #4B4743",
"4. c #5D4C42",
"5. c #534B45",
"6. c #595449",
"7. c #5B5953",
"8. c #4F504A",
"9. c #674D41",
"0. c #724E40",
"q. c #635344",
"w. c #685849",
"e. c #735543",
"r. c #7C5B44",
"t. c #765C49",
"y. c #695B54",
"u. c #755E51",
"i. c #5F615C",
"p. c #7C644E",
"a. c #74644D",
"s. c #696357",
"d. c #7C6353",
"f. c #7B6C54",
"g. c #756858",
"h. c #7E715B",
"j. c #6F6149",
"k. c #6A6762",
"l. c #7C6D63",
"z. c #7A7568",
"x. c #777973",
"c. c #845A3D",
"v. c #865D43",
"b. c #83634C",
"n. c #8A6448",
"m. c #92694B",
"M. c #846A52",
"N. c #876A59",
"B. c #966D51",
"V. c #89765C",
"C. c #977258",
"Z. c #A27659",
"A. c #8B6E60",
"S. c #877867",
"D. c #957B66",
"F. c #867D76",
"G. c #A47D66",
"H. c #97846A",
"J. c #8D8575",
"K. c #938C74",
"L. c #958E79",
"P. c #988974",
"I. c #9C937B",
"U. c #9A927A",
"Y. c #8B826A",
"T. c #A08C6E",
"R. c #A68C75",
"E. c #A1957C",
"W. c #A4997E",
"Q. c #A9987B",
"!. c #B0987E",
"~. c #B0A27F",
"^. c #958E83",
"/. c #9D9681",
"(. c #9D9887",
"). c #949690",
"_. c #A49B83",
"`. c #AA9D83",
"'. c #A39D8B",
"]. c #AC9E8A",
"[. c #A39581",
"{. c #A69F92",
"}. c #B89E84",
"|. c #AEA285",
" X c #A6A18E",
".X c #ABA28C",
"XX c #AFAA8E",
"oX c #B1A386",
"OX c #B3A48B",
"+X c #B9A98A",
"@X c #A5A294",
"#X c #ABA592",
"$X c #AEA995",
"%X c #AEAA9A",
"&X c #A8A59A",
"*X c #B3A593",
"=X c #B3AC95",
"-X c #B9AD93",
";X c #B3AD9A",
":X c #BAAC9A",
">X c #B6B095",
",X c #BBB295",
"<X c #B5B29D",
"1X c #BBB49B",
"2X c #BCB99D",
"3X c #B8B192",
"4X c #ACABA3",
"5X c #B2AEA2",
"6X c #B4B2A4",
"7X c #BAB5A3",
"8X c #BAB9A3",
"9X c #B5B4AA",
"0X c #BAB6AC",
"qX c #B9BAAB",
"wX c #BABBB3",
"eX c #AEB2A7",
"rX c #C2AE8B",
"tX c #C2AC85",
"yX c #C3B494",
"uX c #C1B69A",
"iX c #CBBB9B",
"pX c #C4B99A",
"aX c #CAB691",
"sX c #C3BCA3",
"dX c #C6BEA9",
"fX c #C3BEB4",
"gX c #BFC1B4",
"hX c #CAC2A8",
"jX c #D8C8A9",
"kX c #C8C6B9",
"lX c #D8CEB7",
"zX c #E3D9BA",
"xX c #D9D0A9",
"cX c #C9CBC4",
"vX c #D4D7CD",
"bX c #D6D9D5",
"nX c #D0D0C9",
"mX c #DDE1D7",
"MX c #F7EBCA",
"NX c #E4E5DB",
"BX c #FFFEDB",
"VX c #FEF6D5",
"CX c #FAEBD2",
"ZX c #DEE8E8",
"AX c #E9ECE7",
"SX c #F5F4EA",
"DX c #FAFFFD",
"FX c #F7FCF6",
"GX c #ECF2EF",
"HX c #E0DAC0",
/* pixels */
"J.Y.J.J.J.K.K.K.L.L.L.U.U.L.U.U.I.I.W.W.'.(.'.'.&X@X&X&X4X4X9XwXbXZXGXZXcXeXeXeX&X{.{.{.{.{.*X{.{.#X#X#X#X#X#X#X X X X'.'.'.'.'.",
"K.K.K.K.K.L.L.L.L.L.I.I.(.(.I.(.I.I.I.(.I.'.(.(.@X@X&XeX4XwXcXbXGXGXFXGXbXcXwXeX9X5X5X5X*X:X*X*X*X&X#X#X X X X X'. X'.'.'.'.'.'.",
"K.K.K.L.U.^.U.U.(.I.(.I.I.(.'.(.I.W.W.W.'.'. X'.@X@XeXeX9XfXvXGXDXDXDXFXZXbXcXwX0X5X7X5X5X5X:X:X#X#X#X'. X X X(. X'.'.'._.(.(.'.",
"L.L.L.L.U.U.U.U././.I.(.'.W.'.W.|.W. X XXX X XXX@X&XeXeX0XfXbXGXDXDXDXDXZXbXcXwX0X5X5X%X*X*X*X{.#X#X#X#X X X X X'.'.'.'.'.'.'.'.",
"K.K.K.K.U.U.U.U.I.I.I.I.I.W.I.'.|._. X X X]. X#X@X&XeX6X6XwXcXbXFXFXDXGXZXcXwXwX5X5X%X*X].#X]. X'.{. X X X@X X X'.'.'.'.'.'. X'.",
"K.K.K.K.K.K.T.U.I.I.I.I.I.'.I.W.I.I.I./._._.'.'.@X@X@XeXeX9XkXnXAXGXGXAXcXwX9X9X5X%X*X&X#X#X*X#X]. X X X.X X X@X'.#X'. X X X X X",
"K.K.K.K.U.U.K.U.I.I.I.W.W.I.W.'.[.[.[._._.'.'.'.@X@X@X%X6X6XwXkXvXvXnXcXgX9XeX4X5X5X*X%X*X*X$X$X#X#X#X#X#X#X X#X#X X#X X#X#X#X$X",
"K.K.K.K.T.U.U.U.I.I.I.I.W.W.W.W._.'.`.`.].'.{.#X<X#X@X%X6X<X6X7XqXqX9X9XwX9X9X4X%X%X%X$X$X%X*X$X%X$X#X#X#X X X X X#X@XXX@X$X@X$X",
"U.P.U.U.I.I.I.W.'.W.W.'.~.W.|.'.[.`.].[.].{.].'.$X$X$X$X%X%X%X%X6X6X6X6X6X5X5X<X%X$X$X$X.X$X#X$X#X#X X#X#X#X X#X$X#XXX%X<X$X$X<X",
"U.U.R.U.E.W.W.W._.W.W.'.W.'._.~.].].].].].].*X#X$X$X$X$X$X%X;X$X<X6X6X;X;X;X;X;X%X$X$X$X$X$X$X.X#X#X#X#X#X#X#X#X#X X@X#X#X@X$X%X",
"U.T.I.E.W.W.E.E.~.W._.W.|.W.|._.].].].].#X].*X#X.X=X$X=X;X$X$X;X;X<X;X;X;X=X;X=X=X$X*X$X$XXXXX$X#X#X&X#X#X#X$X$X#X$XXX X X X%X%X",
"E.W.E.E.W.W.`.Q._.|.|.|.|.|.|. X].].*X}.*XOX*X#X*X=X$X;X;X>X;X<X;X;X>X;X=X=X=X=X=X=X=X=X$X=X$XXX%X%X$X$X$X$X$X$X#X%X%X#X$X<X<XXX",
"Q.W.Q.`.`.`.`.`.`.`.oX`.|.|.|.XX].].*X].OX*X*X*X=X=X=X=X>X>X>X>X-X;X;X-X=X=X*X=X;X=X;X-X;X$X$X$X=X%X%X=X$X%X;X$X$X<X<X#X%X8X#XL.",
"W.Q.W.`.`.`.|.|.oX|.OXoX|.|.OXoX].OX*X*X*X*X*X*X-X-X;X-X>X>X<X>X-X-X,X;X=X=X=X=X>X;X;X;X;X;X;X$X=X;X%X<X;X;X;X;X#X%X$X#X<X<XL.7.",
"W.`.`.`.|.|.OXoXoXOXoXOXOXOXOXOX*X*X:X:X:X:X:X-X;X-X-X>X>X>X3X3X,X-X,X-X=X-X*X=X-X,X;X>X;X=X;X>X<X;X<X;X;X<X;X;X#X<X%X#X<X=Xz.z ",
"`.`.`.|.|.|.|.oXoXoXoXOXOX+X+XXX:X:X:X:X:X:X7X1X-X-X-X-X,X,X3X3X,X,X-X,X3X3X>X>X>X;X>X>X>X;X=X=X=X=X<X;X;X;X<X<X;X6X<X$X6X>Xs.> ",
"$X'.`..XXXXXoX~.+X~.aXoXR.+XR.F.F.*X4X{.sXfXdXuXdXsXhXjXiXrXrXiX-XuXuX1X,X1X1X>X<X,X<X2X8X<X<X<X<XXX>X>X$X>X<X$X XhX5X7XfX'.$ } ",
"#X X X.XXX|.~.~.~.T.+X!.R.R.A.u.F.F.l.k.l.^.'.:XzXMXCXzXxXiXaX+XyXuXuXuX1X1X,X,X1X<X1X<X<X<X<X<X2X>X3X2XXX>X8X<X6X6X5X0XfXl.$ y ",
" X$X$XXXXX~.+X+XiX+X-XoX].[.A.l.^.^.F.F.^.'.{.sXdXlXzXjXjXxXxXiXyXuXuXuXuXuX1X1X<X<X<X<X<X<X<X2X>X>X2X2X=X<XgX8XfX@X{.9X0X} u N ",
".X+X+XXX+X3X,X,X+XU.D.f.d.y.9.w.F.F.x.F.{.(.^.'.K.S.V.S.~.aXjXlXuX1X,XuXuX1X1X,X1X1X<X8X<X<X6X<X<X%X2X2X$X=X2XgXqX%X9XnX4XD H L ",
"+X-X-X+X+X,XaX3Xh.f.=.G F t i } k.6.{ } 7.y.u.l.K.V.g.S.V.H.yXCXhXaX,XpX2X,X,X2X2X1X2X8X<X<X8X2XgX>X<XeXXXeXkXlXkXNXAXDX).U V M ",
"+XrX+X3X,XaX~.H.#.a.-.z A 4 y F } } n n ! { { %.J.S.Y.H.j.:.E.VXzXhX1XpXpX>X>X2X2X2X1X2X8X8X8X8X8X%X8XgXgXmXFXFXFXDXSXbXk.L y M ",
"rXrXrXrXaX3XV.-.z w.A ; t 2 u 8 u Z Z u F J Z i %.4.A.F.a.=.J.lXMXlXsXsXpX1X1XsX2XsX8X8X8X8X8X2XeX%XgXmXAXSXSXAXbXkX).k.V M 1 C ",
"rXrXrXrXpX~.j.= v y.h . r 1 8 9 2 } } k Z ! F F %.w.Y.OX:X.X:XlXVXzXhXhXhX2X<XhX8X8X8X8X8X8X8XgXeXgXvXGXGXmXgX).x.{ U O M 7 O 1 ",
"tXiXtXaXiXf.x v f x.; # b 9 n 8 u F } Z i F S i F &.&.lXSXCXlXhXlXvXlXhX>X8XdXhXdXqX8X<X7XgXgX<XcXcXvXeXx.x.x.L C C 3 - & & o   ",
"tXrXtXiXW.T + w + y.. o 9   1 2 u i F F k k / 4.y.| ! &.h.f.S.S.XXhXkXkXhXhX8X%X@X0XkXqXeXqXkXvXvXeX).i.Y g C s 6 g a O   O 1 3 ",
"rXtXrXiXY.v @ @ % 7.+ 1 1 . 3 8 Z i F ~ l i | l.S e y.u.a.+.#.G =.s.Y.(.7XkXcXkXkXfX9XwXkXkX4X).k.8.o.I Y a g V 2 g 3 X X C L Y ",
"+X+X+XyXV.&.[ . u 6.. 1 1 o 1 2 i l ~ F c i [ a.! w D.I.h.j.=.j.f f j ] s.^.5XwXcX).y.7.x.x.3.& V V C @.7.@.g 3 g g 2 - Y 8.7.U ",
"+XQ.+X>Xh.=.[   P 3.  o . O   . u X.l X.i l ^ _ w.x f.|.S.f.+.=.} Z u 8 Z @.7.k.F.7.M 9 9 5 3 1 g g s j 5.y.U r B D D B I 8.3.K ",
"oXT.|.2Xs.@ @ . { { . 2 9 2 2 r u ! |  .| ..` x -.p ) `.P.K.O.G 5.{ P P { I L L { P V b 8 b n V - - + # J k.k.] j J ] K j f d r ",
"|.U.|.2Xw.  . % } F 9 n 2 n N }  .| 0.u.u.9.$.x x R R j.f.f.j.6.] P { 5.8.{ P L b 9 5 M V b 5 9 y 2 r ; y 6.s.I ] G z f ; + . + ",
"W.~.|. Xw.> ; # 9 $ . 2 % 0 i [ | ..0.A.N.,.E T p 1.a.=.1.z 6.+.} L L P L n 8 n 5 9 9 9 9 b b M r . 2 ; + [ k.4.6.k . + 0 @ . . ",
"iX,X3X$X+.f @ @ $ $ $ $ 0 i i T ` ..v.A.m.c.c.;.r.v.D.D.:.G z t N D L L V 8 # . 8 8 2 5 2 8 b n 5 9 O o % 0 3.S.y.} q $ $ . . . ",
"zXzXMXzX=.w ; + $ 0 i l T ~ ` ......b.G.Z.B.B.m.m.m.D.V.&.^ A h { { { L V y r 8 8 V } o.P V N n 5 9 o o . . t | S.y.Z $ + # #   ",
"VXVXBXVXj.z f ; % u ! } | | 9.0.| ..n.G.Z.Z.Z.Z.C.C.D.N.:./ K h L L D V M y n N n L 3.5.U N n 8 9 9 9 o +   % 0 l.g.} @   # #   ",
"VXMXVXzX=.G ( y . $ Z | | 9.9.9.` >.B.R.G.B.B.n.C.B.C.b.*.) ( Z 4 8 y y y n n M N V V N 8 # # # 9 O o 2 2 + + + %.y.w.y   + 2 # ",
"VXMXMXiX+.J -.G % $ u ! %.9.9.,...>.N.G.C.m.n.c.B.m.m.p.&.&.%.G 4 4 2 8 r y M N D g 2 X   . X o O O X 3 : q = + : 6.z.=.; + ; : ",
"MXVXVXiX+.x H P u $ $ i | 9.w.9.$.| 0.b.v.c.n.c.n.v.b.t.0.w.6./ H N 2 - 2 8 N D M 4 o . X # # X o X O X > > + + X @.Y.g.S + X @ ",
"MXBXzXU.^ z y Z h u $ u S #.&.9...} ....<.2.n.c.c.c.b.r.w.u.q.( ] H r ; - y j B ; - - - 2 2 ; 1 4 1 * X . X X     z s.z.=.=   X ",
"BXBX~.=.x J u y Z n $ % q S ) #.%. ...e.c.n.m.c.c.2.p.r.e.a.q.S ] L V B V V D D 2 4 4 4 4 y B V s s : > X X X X > d =.z.g.z + = ",
"BXV.R e +.z ; g u r 2 # @ w G ` } X.i W ....Q Q ;.2.c.a.M.j.-.+.P B h j V @.@.B # I D g : * j H @.o.: s * X s       s =.z.j.z : ",
"aXQ.|.g.+.> . y n y u # @ @ f x i l ~  . .Q ..<.<.c.v.n.p.1.-.+.6.I H D B H A : D @.j - g g 4   j =.d * : * * O > X   : 6.Y.f.G ",
"pXiXjXh._ ; ; 4 N n r 8 $ ; 0 w i l ~ ` Q Q <.c.c.m.n.b.2.O.R *.g.@.K J h r 4 : H @.d > K 6.6.B s s.o.O s s O * X * * * j =.f.g.",
"xXpXOX&.S t r 2 y 8 8 r t t q w ! l X. ...<.c.c.v.B.m.v.1.E R q.x.@.A B : X X > d @.H j B B D d o.i.o.* s 3 O & O * j j s : K g.",
"iXoX`.=.G = # - 8 2 # y y r q t } } ~  ...<.2.2.n.B.B.n.>. .` g.x.-.s d *   X : # K o.=.@.: > : 6.K j s * & & , s 3 s o.K s v R ",
"iXQ.P.+.S # # - 8 o # 8 4 > = t ! %.9.9...,.c.v.m.C.B.m.2.' :.D.z.J 4 d d d K ( > d : ] @.j K @.o.* * *   & & , < s o.C K o.K v ",
"jX`.S.v t 0 2 2 6 2 1 4 4 + ; k i %.u.u.e.r.v.c.n.m.m.n.1.E 9.F.z.@.j z K J @.o.d d   X s X : d > O * * & < O < * C o.K j K ( ( ",
"+XR.H.x e ; 8 2 4 1 2 g r ; u } Z | w.N.C.D.m.2.c.v.b.c.,.R ..S.(.y.] K j j 4 X X g * 4 g : >     s a O C C   < & , j o.j s s -.",
"t.Y.u.f w d @ > 4 g 4 r j f 0 f %.! 9.N.d.D.R.v.2.b.2.2.<.W  .N.P.4.4.F N D 8 1 6 b 6 7 s 3 1 1 & & 1 1 3 6 a m < , 6 U o.Y C C ",
"w.N.:.v w d - - 2 r : r j r ; w / _ 9.u.u.D.H.B.,.<.2.b.b.<.....A.4.y.4.Z D 6 1 < < < < < < 3 3 1 1 1 3 3 6 a m 7 3 m U o.Y m C ",
"w.w.) f t r ; : : 4 : d z d = q k _ &.1.w.b.D.H.2.1.>.r.<... .X.u.} y.y.Z h M 8 5 < < < < < < 1 1 < 1 3 6 7 a m m 6 m L U C m C ",
"p.&.R v f ; ; 4 2 4 r g K h = e w _ #.-.1.a.V.T.V.,.;.,.W X. .' 9._ q.y.N y V 7 5 5 6 6 < < 1 1 & , & , 3 6 6 6 7 6 6 C C C m C ",
"h.#.x x f 4 2 r 4 y r h K Z ; t w ( ( ^ =.p.V.H.H.' v Q E E t.A.A.4.4.9.F y V b m b b b 6 6 < , & & o , , 3 1 , 7 6 , 1 < 3 6 m ",
"N.#.x S t ; r t 4 y r N ( A q t f z ^ R O.p.H.Y.T.O.e R 1.p.A.D.[.N.%.4.} n V M b m b b 7 6 1 , & & O & 1 6 , , m 7 6 & O o , 6 ",
"g.[ ^ x 0 ; h y 7 r 4 g I A r t v z -.-.-.a.H.h.T.n.O.E 2.p.p.d.P.D.%.9.y.N M M b 6 b < 7 6 4 3 < , , 3 7 m 6 , 7 m a 6 , o & & ",
"a.) ^ S = ; N g 4 4 ; y J D t f d v +.=.R j.T.f.H.~.H.;.=.2.e.d.A.A.} 5.g.F M V , < 6 6 6 6 7 7 7 3 3 a m C a 6 , a M m 6 3 , , ",
"w.*.x w u g Z y 8 - 2 y D J Z t Z z =.( -.j.f.T.T.P.!.M.,.u.b.u.A.A.9.y.k.{ n 9 7 7 6 1 1 3 m a < 6 6 m a a 3 3 3 6 3 3 , 6 1 3 ",
"u.4._ k t i n n 2 4 y N Z N Z f ( ) q.=.1.f.a.V.H.H.!.C.,.0.e.b.D.u.9.l.A.} n N M 7 6 y s 7 s g 6 a a m a 6 6 < 1 < 1 3 3 , 3 , ",
"q.%./ k y y h N 1 y N N u r y k F G #.*.j.V.V.V.T.H.Q.N.,.>.0.t.A.u.4.d.A.[ D H g 1 - a M 4 3 3 a a m a a 7 a a 3 3 3 1 3 6 6 3 ",
"| / F k u 0 n V 2 8 n n r r y k f f x R #.f.V.H.!.R.Q.r.' >.0.>.0.d.9.%.6.3.} D y & O 3 7 2 - 2 7 a 6 7 6 a m m 3 6 6 6 6 6 7 6 ",
"_ S l i u $ y Z u 8 u 8 u y N Z S ! l x _ ,.b.V.C.T.+Xv. .<.0.>.9.b.:.` | } 5.I V 8 - 4 7 4 s g 3 3 3 6 7 m m m 6 7 7 a 7 7 m a ",
") ! S Z n 2 8 N n 8 5 2 y N Z S Z ) ~ ` $.1.M.M.;.C.}.b. ...0.0.t.t.` | 4.} 3.6.V N a 4 2 4 4 a 1 3 3 7 7 a m m 7 7 7 a m m m m ",
"[ ! S S N u u n n 8 8 2 r N D F l ) R *.j.b.D.M.O.<.B.<. .....9.e.b...&.9.} 3.6.H U L g - 3 2 - 1 3 6 6 6 a 6 6 6 6 6 6 a a m m ",
"/ k i F Z u n n n n u 8 8 n F F / | l O.t.M.H.M.n.E W W  .0.......A.9.[ | 4.6.{ I 8.8.H 4 g r * 1 3 6 7 a 3 3 , 3 < < 6 6 6 7 a "
};
