/* XPM */
static char *f09a5ae69b5f4603cecb18c45a07738a8VShhoIdPxZtgK16[] = {
/* columns rows colors chars-per-pixel */
"88 25 237 2 ",
"   c #00040B",
".  c #000605",
"X  c #0D130A",
"o  c #040C12",
"O  c #020C1C",
"+  c #040B1B",
"@  c #081417",
"#  c #151916",
"$  c #121A0F",
"%  c #1C221C",
"&  c #010924",
"*  c #091729",
"=  c #151B27",
"-  c #0A1B36",
";  c #1A2327",
":  c #0E233C",
">  c #0E2A3C",
",  c #04283F",
"<  c #122534",
"1  c #102831",
"2  c #11243B",
"3  c #112C3D",
"4  c #1B2337",
"5  c #0F282D",
"6  c #272B26",
"7  c #33362F",
"8  c #232933",
"9  c #2C333B",
"0  c #373A38",
"q  c #2F342E",
"w  c #3F463E",
"e  c #40453E",
"r  c #0B2A47",
"t  c #192B44",
"y  c #183449",
"u  c #152F57",
"i  c #1C3D5C",
"p  c #173658",
"a  c #0E3A53",
"s  c #26364B",
"d  c #253B54",
"f  c #2E3B59",
"g  c #283856",
"h  c #313D5D",
"j  c #383958",
"k  c #202B4B",
"l  c #2B3A6D",
"z  c #253966",
"x  c #323C6A",
"c  c #154359",
"v  c #3F4347",
"b  c #2B425B",
"n  c #264558",
"m  c #38475E",
"M  c #2F515B",
"N  c #1F4760",
"B  c #224364",
"V  c #2C4869",
"C  c #364261",
"Z  c #33446E",
"A  c #3B496A",
"S  c #3C526C",
"D  c #2B4373",
"F  c #3C4C75",
"G  c #35457C",
"H  c #3B4D7D",
"J  c #364878",
"K  c #2A5174",
"L  c #3B5375",
"P  c #3C527B",
"I  c #35547A",
"U  c #2A536F",
"Y  c #545A53",
"T  c #434D6C",
"R  c #444C72",
"E  c #424E7C",
"W  c #43537D",
"Q  c #4A557D",
"!  c #435A7D",
"~  c #465777",
"^  c #4B5772",
"/  c #5F677C",
"(  c #636B7E",
")  c #727873",
"_  c #80857F",
"`  c #3C4D82",
"'  c #364D83",
"]  c #365483",
"[  c #3B5583",
"{  c #355D83",
"}  c #3E5B84",
"|  c #3D558B",
" . c #3E5A8D",
".. c #37548A",
"X. c #3E5B91",
"o. c #386884",
"O. c #404E86",
"+. c #455584",
"@. c #495584",
"#. c #445A84",
"$. c #4B5A85",
"%. c #45568C",
"&. c #49568B",
"*. c #43598C",
"=. c #4A5A8B",
"-. c #515D8D",
";. c #515A86",
":. c #435791",
">. c #4A5491",
",. c #435991",
"<. c #4A5B94",
"1. c #515E94",
"2. c #4A6484",
"3. c #556489",
"4. c #4D6293",
"5. c #476296",
"6. c #57689A",
"7. c #4E779B",
"8. c #587899",
"9. c #5F708E",
"0. c #6B7588",
"q. c #71768A",
"w. c #697898",
"e. c #747D91",
"r. c #626993",
"t. c #576DA4",
"y. c #667AA6",
"u. c #6B77A9",
"i. c #7B8385",
"p. c #7A8C9D",
"a. c #7A8397",
"s. c #5A95A7",
"d. c #6A86A8",
"f. c #778BA5",
"g. c #7B8AA5",
"h. c #7E87AA",
"j. c #7C8BA9",
"k. c #758AA6",
"l. c #6E92AC",
"z. c #6B96A6",
"x. c #7699AC",
"c. c #6C87B2",
"v. c #7282B3",
"b. c #7789BA",
"n. c #6E92B3",
"m. c #739CB5",
"M. c #739EBA",
"N. c #799CBD",
"B. c #7493B7",
"V. c #75A2AE",
"C. c #7EA5B4",
"Z. c #74A0BA",
"A. c #7AA7B9",
"S. c #6EABBC",
"D. c #7C8EC1",
"F. c #7A9CC1",
"G. c #7BA7C6",
"H. c #7FB6CA",
"J. c #83879B",
"K. c #8B908F",
"L. c #9EA69B",
"P. c #818AAD",
"I. c #888FA2",
"U. c #8592B1",
"Y. c #84ADBE",
"T. c #8AADBC",
"R. c #89AEB7",
"E. c #9FA5A3",
"W. c #A4ACB9",
"Q. c #BABEB9",
"!. c #B6BBB7",
"~. c #A1A7A7",
"^. c #BDC5BA",
"/. c #C2C7BE",
"(. c #8596C8",
"). c #8CACC0",
"_. c #83ABC5",
"`. c #84B0C2",
"'. c #8DB2C2",
"]. c #89B6CC",
"[. c #91B8D0",
"{. c #B4B7C8",
"}. c #8DCCDC",
"|. c #87C8D7",
" X c #94CCDD",
".X c #9ACDDC",
"XX c #95C5D8",
"oX c #8ED5DE",
"OX c #90D4DE",
"+X c #9AD4DD",
"@X c #BAC3C8",
"#X c #A3C5DC",
"$X c #BFCAD0",
"%X c #92C4E4",
"&X c #9CCDE4",
"*X c #9BCBED",
"=X c #95C7E7",
"-X c #96D6E6",
";X c #9AD4E5",
":X c #92DAE4",
">X c #9BD8E7",
",X c #9BD6E9",
"<X c #96D9E8",
"1X c #9CDAEA",
"2X c #96D2EE",
"3X c #9CCCF1",
"4X c #9ED6F2",
"5X c #9EDBF6",
"6X c #8DC4E2",
"7X c #A4CEE6",
"8X c #A1D4E5",
"9X c #A2D5EB",
"0X c #ABD5EA",
"qX c #A2DBED",
"wX c #A8DAE8",
"eX c #A4DDF2",
"rX c #A3D5FB",
"tX c #ACDEFE",
"yX c #A7D8F6",
"uX c #B3DBF8",
"iX c #A9CFEC",
"pX c #97E0E7",
"aX c #9BE2EB",
"sX c #9EE2F0",
"dX c #A6E1EE",
"fX c #AAE2F3",
"gX c #ADE2FF",
"hX c #B3E6FB",
"jX c #C7CBC7",
"kX c #C1C7D1",
"lX c #D5D9D4",
"zX c #CFD6DC",
"xX c #DADEE0",
"cX c #D2E7F6",
"vX c #E5E9E4",
"bX c #E3E7E7",
"nX c #EEF8F7",
/* pixels */
"aXaX1XsX,X2X,X,X9X&XeXfXqX+X+XdX2XyXgX3XtX3X5XrXrXrX3XrX3XtXrX4XeX+X+XfX+XdXdX+X;XfXfX;X X1XeX1X<X:XoXoXpXoX:X:X:X:XOX:XoXoX:X:X:X:X:X:X:XoX:X:X:XoX:X:X:X:X:X:X:X-X,X2X-X1X-X1X",
"oX<X|.-X,X4X7X*XXX7X0X.X8XwXwX+XtXyX*X7XtX3X7XrXrX*X3XuX*X*XyXuXwX.X.X8X+X+XXX+X&X&X&X%X;X9X2X6XOXpX:XaXpXpXpXoX:X:X:X:XpXpX:X:X:X:X:X:X:X:X:X:X:X:X:X:X:X:X:X:X<X-X,X,X;X-X-X-X",
":XoXs.m.S.G.Z.N._.N.k.l.V.V.x.z.l.B.n.F.F.B.n.F.F.n.D.F.F.B.M.l.z.V.V.V.A.z.z.Y.A.M.M.Z.F.F.G.G.S.:XpXpX>XOXaXOX:X:XOX:XpX:X:X:X:X:X:X:X:X:X:X:X:X:X:X:X:X:X:X<X<X<X1X,X,X<X<X<X",
"}.H.c c a i u p z u p f n 9 y M n S d y g b b f g b b d y b S n n M y 3 n n y c i i z z p u ' 7.o.OXoXoX:X-XsX:X:X:XpXpX:X>X:X:X:X<X-X<X:X:X:X:X:X:X:X:X:X:X<X-X<X-X-X<X,X<X,X,X",
"yX9XU K I #.P $.;.Q R g * + O & . o @ X % . o o o o . ; o @ o . @ * @ - & S ~ A F W +.` G O.t.c.c +X1X}.1X;X1X;X;X>X;X;X:X>X;X>X-X-X-X2X-X-X<X<X:X:X;X-X-X-X<X-X-X-X<X<X;X<X,X,X",
"=X*XK } P #.E @.Q ;.x 4 0.{.kXW.% Y /./.L.X ) /.^.Y 6 ^.^.^.w % @X$X@XW.& T 2.~ W @.%.O.>.6.t.4.r >XqX XdX;X,X;X1X,X1X,X>X>X1X;X-X,X<X<X-X,X,X<X<X2X<X,X1X-X,X<X1X,X;X,X<X,X,X,X",
",X%X{ } =.&.@.@.Q Q j = xXbXL.% $ jX6 6 6 X jX7 7 Q.6 vXq e lX% bXnXe.8 & R T 3.-.H =.*.+.v.d.p G.,X1X,X1X;X,X;X;X,X>X>X>X>X,X>X,X,X,X<X<X,X;X<X<X<X<X,X1X2X;X,XyX9X X-XqX-X=X1X",
"4X%X{ ] | =.-.-.-.Q ^ + s K.vXQ.6 lX# . X $ jXX ; Q.7 vXlXjX_ 7 bXi.# + & ^ Q +.@.+.4.#.! y.3.r .XqX9X9XeX,X9X1X9X9X9X9X,X9X,X9X9X,X9X9X,X9X9X,X2X1X4X,X1X1X9X,XXXXXhXhX].0X}.1X",
"5X6X{ ..O.>.1.>.;.Q T * kXxXvXK.8 K.!.jXE.$ ~.jX@X_ 6 xX0 e zX6 bXzX@XW.= R -.&.>.` %.4.8.B.B.8.M.M.Z.Z.Z.Z.Z.Z.Z.Z.Z.M.Z.Z.Z.Z.Z.Z.Z.Z.Z.Z.Z.Z.Z.Z.Z.M.Z.Z.Z.N._.m.m.G.`.;XdX5X",
"2X6X{ X.>.O.O.x E 3.A & s 8 8 # v @ 8 = ;   @ ; = o   =   o = o 5 9 8 2 & Q ;.x -.` %.y.y.P f V B B B B B B B B B B B B B B B B B B B B B B B B B B B B B B B n i V c n 8.c XX-X",
"5X2X7.y.U.(.(.(.b.u.(.h.( ( J.q.I.q.( a.I.q.e.e.a.J.a.e.e.0.J.0.q.I.w.r.w.u.u.(.D.u.v.(.B.$.B L P P P P [ P P P P P P P P P L P P P P P P P P P P P P P P P P P V ! L 7.2.c ,X0X",
"2X6XK l l l l z G l z g R T j j s A m b y f h f f j x f h k C T x k h A O.l ' l l ' D z D L L $.+.+.+.+.@.@.+.+.+.@.+.+.+.+.@.+.+.+.+.@.+.+.+.+.+.+.+.+.+.+.+.+.2./ ! z.y C.&X.X",
"5X%X{ ] +.O.>.>.>.%.D ` x @.R Q Q z W Z L 6.Z P =.J W Z $.#.z R 3.F W J x x :.l ' :.*.H I #.#.K #.&.=.&.=.@.=.&.&.=.&.=.@.=.&.&.=.&.&.&.&.$.&.=.=.&.&.@.=.&.&.$.~ ! w.~ r #X.XyX",
"4X%X{ } %.%.&.:.` | t.| O.@.r.R =.*.=.#.=.H =.%.J =.=.<.' #.6.[ E @.E <.1.t.:.<.<.' ' #.#.! 2.=.+.&.%.%.%.%.%.&.%.&.%.%.=.%.&.%.%.%.%.%.%.%.%.%.&.%.=.%.=.&.%.+.2.0.k.- ).0X8X9X",
"4X X{ } %.%.:.:.:.:.>.| >.>.>.@.%.*.:.*.*.| ,.*.| %.,.*.%.| <.*.+.%.%.&.>.<.>.:.>.| %.| #.} #.#.#.%.:.%.%.:.:.:.*.*.:.:.*.%.*.:.%.%.,.%.*.%.*.*.<.| %.5.*.' *.,.$.w.2.- #X.XuX,X",
"eX%X{ ] +.&.&.%.:.:.:.:.>.>.>.>.:.,.,.:.X.%.,.,.,.X.X.,.X.X.,.:.:.&.:.>.>.:.:.:.:.:.*.#.#.#.#.*.,.X.,.:.X.X.:.:.,.*.:.:.X.,.X.,.X. .:.:. .,.*.,.,.| :.:.,.5.| 2.y.x.t '.cX0XXX;X",
"4X%X{ } #.%.%.%.:.,.,.:.:.:.>.>.:.:.:.,.:.,.,.,.,.,.,.,.X.:.,.,.:.*.:.:.,.,.:.:.,.*.:.#.*.*.#. . .,.X.X.X.X.X.X.X.X.,.X.X. .X.X.X. .X.X.X. .X.X. ...5...,.t...5.d.3.2 0X7XXX<X1X",
"4X%X} [ +.%.&.+.*. .X.X.,.>.>.>.:.X.:.X.X.%.:.X.*.*.,.,.,.:.:.*.*.*.*.*.*.*.*.%.%. .=.| #.%.*.%.| X. . . .X.X.X.X. .X.X.X. . .X. . . .X.X. .X.X.X...X.' X.5.] t.d.t ).uX0XqXhXaX",
"rX%X..] #.+.%.+.*. . . .,.,.%.>.%. .#.%.*.*. .%.*. .*.*. .| *. .*.%.*.*.#.*.%.#.#. .#.*.*.*.%.#.*.*.*.*. .| %.:. .*.*.*. . .%. .,. .*.*. .*.X.*.,.| 5...' *.,.c.! t 7X0X&XqX}.|.",
"rX=X{ ] *.+.=.+. .2. . .X.*.:.&.%. . .*.*.#. .#.*.} *. .#.#.#.*. .*.}  .*.#.*.#.%.*.*.*.%.,.%.*.:.*.:.*.%.X.%.%.*.*.*.:.%.%.*.%.%.*.*.*. .#.*.*.%.[ :.,.' %.y.d.r Y.XXwX>X1XsXpX",
"rX=X{ ] #.$.&.$.2. . . .*.*.:.*.2.#.#.*.#.*.*.*.#.=.=.#.=.#.#.*.*. .2. .#.#.#.#.*.*.=.*.:.=.,.*.=.%.&.&.%.&.&.%.&.%.&.&.%.%.&.&.*.&.&.&.=.*.%.=.&.%.&.1.H 1.v.P , 0X&X XdX}.<XoX",
"rX%X{ P #.W Q W ! #.} I #.#.#.#.! ! ! ! #.! ! ! ! ! ! ! ! ! ! ! ! ! ! P #.L #.! ! +.+.+.+.+.#.&.&.@.@.@.@.@.@.@.@.@.@.@.@.&.@.@.$.$.@.+.@.@.@.+.W -.P 3.R 6.v.r _..XhX XeX1X|.sX",
"yX&Xz.z.x.f.f.f.f.f.f.k.l.f.j.f.f.p.p.p.p.g.p.g.g.g.p.g.p.p.p.g.I.g.P.g.P.I.g.h.g.P.P.g.h.h.P.h.h.P.P.h.h.h.P.U.h.h.P.h.h.h.h.j.f.f.f.f.f.f.f.f.k.f.f.f.j.p.L r 8X&X1X;X9X;X-X<X",
"wXZ.c , > > > > 2 2 r > > > > > 5 5 1 1 1 1 < 1 < < < < < < 1 4 - 2 2 < - 2 < 4 - 2 2 < 2 2 2 2 2 2 2 : : 2 2 : 2 r 3 2 2 r 2 2 3 3 3 2 3 3 > 2 t 3 > y 2 > n x.8X<X;X1X<X<X-X>X",
"1X;XZ.V.`.Y.T.T.'.'.).T.).`.).T.R.R.R.R.T.T.T.T.).).).).).T.).T.T.Y.`.Y.`.Y.Y.`.`.Y.Y.`.Y.Y.`.T.Y.Y.A.Y.`.Y.A.A.Y.Y.Y.Y.A.`.Y.Y.T.Y.T.Y.T.Y.R.T.'.x.R.'.'.R.[.0X;X,X,X<X,X<X,X;X"
};
