/* XPM */
static char *_24b3821f31b4a1ad0515d8d094a02e0[] = {
/* columns rows colors chars-per-pixel */
"32 32 6 1 ",
"  c None",
". c #215800",
"X c #297100",
"o c #2F8200",
"O c #389306",
"+ c #509529",
/* pixels */
"                                ",
"                                ",
"                                ",
"                                ",
"                                ",
"                                ",
"                                ",
"                                ",
"       +                        ",
"      +O                        ",
"    + +O                        ",
"    o+oO                        ",
"     ooO O    +                 ",
"    O +oo   +O                  ",
"     OooOo   oO                 ",
"       oo     oO            +   ",
"     O Oo     OO+          O    ",
"      oOoo     o        +  o    ",
"      .OoO+   Oo         o o+   ",
"       oOo  o ooO       Xo O.   ",
"       OOo   Oo.         XOO    ",
"  O  O O+Oo OoO     O     oO    ",
"   X +Oo+o  oo    O O     XO +  ",
"   oOoOOO  +Oo     OO     .o  X ",
"   oXO.O.  +oOO    OOO     o Xo ",
" o +o.oOO+Oo.O  O  O.      ooo  ",
" +.Xo.oOOO..oo o   o     . Xo.  ",
" X.Xo+.+oOO.OooO O oO     .XO   ",
" XX.oX.O.OO+.oO   Oo   . X.XO X ",
" X..+oo.o+oO.OO   o.   .o.XOOX  ",
"  X.XXo.oo.Oo.Oo  o     ..ooOX  ",
"  X XoXo.Oo.OoOO  .      ..XoO  "
};
